<svg width="135" height="117" viewBox="0 0 135 117" fill="none" xmlns="http://www.w3.org/2000/svg">
<path d="M53.2232 42.1723C53.3648 37.3929 44.1128 37.7804 33.9551 25.581C33.9551 25.581 20.4648 12.3201 14.8791 6.47366C14.0558 5.61328 12.8231 5.32691 11.7884 5.7381C10.5734 6.2222 9.84676 7.5908 10.1219 8.97562C10.882 40.7562 13.1626 56.8446 16.9636 57.2407C17.2453 57.2674 17.5307 57.2135 17.8273 57.0708C47.3088 51.2538 53.1046 45.898 53.2148 42.1646L53.2232 42.1723Z" stroke="#283885" stroke-width="4" stroke-miterlimit="10"/>
<path d="M17.6004 21.3292L17.472 21.3273L17.4306 21.4498L17.3917 21.3231L17.2638 21.3293L17.3718 21.2518L17.3249 21.1255L17.4335 21.2086L17.5335 21.1315L17.4921 21.254L17.6004 21.3292Z" stroke="#283885" stroke-width="3" stroke-miterlimit="10"/>
<path d="M28.3113 29.9419L28.0291 29.7626L27.7677 29.968L27.8543 29.6424L27.5721 29.4631L27.9078 29.447L27.9943 29.1215L28.1156 29.4371L28.4433 29.4214L28.19 29.6264L28.3113 29.9419Z" stroke="#283885" stroke-width="3" stroke-miterlimit="10"/>
<path d="M21.6388 41.5063L21.31 41.3534L21.0601 41.6225L21.1045 41.2588L20.7673 41.0982L21.1323 41.0325L21.1687 40.6691L21.3464 40.9901L21.7114 40.9244L21.4611 41.1854L21.6388 41.5063Z" stroke="#283885" stroke-width="3" stroke-miterlimit="10"/>
<path d="M38.6558 40.4819L38.4468 40.3231L38.2308 40.4781L38.3217 40.2327L38.1127 40.074L38.3774 40.0774L38.4683 39.832L38.5377 40.0777L38.8024 40.0811L38.5864 40.2361L38.6558 40.4819Z" stroke="#283885" stroke-width="3" stroke-miterlimit="10"/>
<path d="M14.9606 55.5122C14.9606 55.5122 9.48661 58.3134 4.74587 62.2047C4.74587 62.2047 -5.84054 75.9547 27.7909 68.4878C27.7909 68.4878 52.2684 61.8203 66.2861 46.2267C66.2861 46.2267 71.3865 33.8722 53.3813 39.1291L52.6269 40.017" stroke="#283885" stroke-width="3" stroke-miterlimit="10"/>
<path d="M13.0033 70.3284C8.95939 81.9316 9.96292 90.0951 18.9048 100.835C27.7433 111.443 42.664 114.93 55.239 109.298C67.5038 104.894 75.979 93.5682 76.7649 80.5623C77.5376 67.758 71.4949 56.2364 60.9493 50.3621" stroke="#283885" stroke-width="4" stroke-miterlimit="10"/>
<path d="M33.1171 71.5047C33.1575 71.5108 33.2224 71.5238 33.2939 71.5123C33.4539 71.5047 33.5055 71.4218 33.6931 71.3325C33.9429 71.208 34.1584 71.1897 34.2139 71.179C34.3099 71.1744 34.3899 71.1706 34.4467 71.1839C34.5436 71.1953 34.6728 71.2133 34.8198 71.2625C35.6374 71.5527 35.9517 72.4697 36.0083 72.6277C36.3412 73.592 35.8412 74.8694 34.7286 75.7905C34.3774 75.968 33.9529 76.125 33.4495 76.1571C31.4209 76.3025 30.0024 74.3939 29.8632 74.1916C29.5093 73.2845 29.7825 72.259 30.5193 71.6533C31.2487 71.0559 32.2954 70.9897 33.1087 71.4971L33.1171 71.5047Z" fill="#283885"/>
<path d="M51.4225 69.3734C51.5166 69.0395 51.8093 68.23 52.5487 67.825C53.6466 67.234 55.3639 67.7222 56.4712 69.2278C56.4983 69.2828 57.0246 70.5672 56.2183 71.6584C55.5392 72.5828 54.4517 72.6269 54.3158 72.6334C53.9686 72.5858 53.3277 72.4398 52.708 71.9472C51.544 71.0227 51.4356 69.6138 51.4225 69.3734Z" fill="#283885"/>
<path d="M30.6832 87.9427C30.6832 87.9427 29.728 84.8225 31.1862 84.351C31.1862 84.351 33.3468 81.8932 36.9759 90.5421C36.9759 90.5421 38.7138 95.3764 43.3324 96.0954C43.3324 96.0954 52.0082 94.8684 53.5502 89.877C53.5502 89.877 57.5569 80.051 58.0465 79.7623C58.1319 79.71 58.2115 79.6982 58.2764 79.7112C58.8126 79.8382 58.8949 81.9475 58.5228 86.0311C58.071 87.7562 57.164 90.2584 55.2545 92.7604C51.5564 97.63 46.5451 99.2842 44.6322 99.8016C44.6322 99.8016 38.3706 102.359 30.6752 87.9431L30.6832 87.9427Z" fill="#283885"/>
<path d="M88.4975 101.36C88.4975 101.36 88.3287 100.17 88.9017 100.087C88.9017 100.087 89.8472 99.3263 90.6627 102.678C90.6627 102.678 91.0121 104.534 92.6702 105.081C92.6702 105.081 95.9398 105.166 96.8091 103.445C96.8091 103.445 98.8751 100.124 99.0717 100.05C99.1032 100.04 99.1352 100.039 99.1597 100.046C99.3485 100.125 99.2538 100.893 98.8675 102.35C98.5952 102.949 98.1119 103.8 97.2646 104.596C95.6074 106.138 93.666 106.432 92.932 106.507C92.932 106.507 90.4751 107.058 88.5055 101.359L88.4975 101.36Z" fill="#283885"/>
<path d="M74.5497 90.7652C74.5497 90.7652 96.019 63.0768 110.194 89.0569C110.204 89.0806 110.213 89.1042 110.222 89.1279C110.581 90.1311 118.257 112.269 91.331 112.33C91.2591 112.333 91.1943 112.32 91.1286 112.291C89.623 111.721 71.3106 104.347 83.0604 87.9389C83.083 87.9137 83.0977 87.8889 83.1204 87.8637C83.7669 87.222 93.6748 77.6438 97.7861 88.583C97.8242 88.6936 97.8387 88.8135 97.8048 88.9276C97.6317 89.5787 96.8655 91.8571 94.4463 92.9131" stroke="#283885" stroke-width="4" stroke-miterlimit="10"/>
<path d="M94.4131 92.9879C94.422 92.9874 94.4284 92.9726 94.4274 92.9547C94.4264 92.9368 94.4185 92.9226 94.4096 92.9231C94.4007 92.9235 94.3943 92.9383 94.3953 92.9562C94.3963 92.9741 94.4042 92.9883 94.4131 92.9879Z" stroke="#283885" stroke-width="4" stroke-miterlimit="10"/>
<path d="M91.2478 96.4767C91.6669 95.526 91.091 94.3481 89.9615 93.8457C88.832 93.3433 87.5765 93.7068 87.1574 94.6575C86.7382 95.6082 87.3141 96.7862 88.4436 97.2885C89.5732 97.7909 90.8286 97.4274 91.2478 96.4767Z" fill="#283885"/>
<path d="M103.132 99.2105C103.948 98.5839 104.045 97.3423 103.348 96.4375C102.651 95.5326 101.424 95.3071 100.608 95.9337C99.7916 96.5604 99.6949 97.8019 100.392 98.7068C101.089 99.6116 102.316 99.8372 103.132 99.2105Z" fill="#283885"/>
<path d="M121.634 89.1585C121.244 89.3142 120.908 89.5637 120.639 89.89C118.323 92.7181 106.831 106.878 106.108 109.957C106.108 109.957 105.146 113.577 109.069 111.497C109.069 111.497 123.791 93.773 124.075 90.8205L124.073 88.171L121.641 89.1501L121.634 89.1585Z" stroke="#283885" stroke-width="2" stroke-miterlimit="10"/>
<path d="M119.214 88.6816L124.364 88.1871L125.042 92.1508C125.045 92.2068 125.134 92.2185 125.155 92.1613L126.6 87.8764L130.338 88.535C130.394 88.5403 130.423 88.4747 130.381 88.4446L126.775 85.5402L128.278 82.5126C128.313 82.4386 128.237 82.3541 128.159 82.39L124.644 83.9355L121.321 82.7267C121.272 82.7131 121.227 82.7555 121.254 82.8023L122.878 86.2699L119.176 88.5711C119.114 88.6063 119.151 88.7007 119.214 88.6896L119.214 88.6816Z" stroke="#283885" stroke-width="2" stroke-miterlimit="10"/>
<path d="M123.954 82.192L123.534 79.9785" stroke="#283885" stroke-miterlimit="10"/>
<path d="M125.156 81.7079L126.066 79.3253" stroke="#283885" stroke-miterlimit="10"/>
<path d="M119.84 85.9805L117.587 85.9258" stroke="#283885" stroke-miterlimit="10"/>
<path d="M119.653 84.9834L117.507 83.5723" stroke="#283885" stroke-miterlimit="10"/>
<path d="M129.445 84.3054L131.697 84.1748" stroke="#283885" stroke-miterlimit="10"/>
<path d="M130.661 85.2852L132.918 86.5221" stroke="#283885" stroke-miterlimit="10"/>
<path d="M128.605 90.5L129.342 92.6329" stroke="#283885" stroke-miterlimit="10"/>
<path d="M127.783 92.0176L128.48 94.49" stroke="#283885" stroke-miterlimit="10"/>
</svg>
