<svg width="272" height="78" viewBox="0 0 272 78" fill="none" xmlns="http://www.w3.org/2000/svg">
<path d="M270.574 75.0759C270.534 75.9499 270.961 75.6362 271.027 75.7707C270.934 74.3028 270.468 75.1208 270.574 75.0759Z" fill="#283885"/>
<path d="M269.628 60.6447L269.801 60.9024L269.375 58.7734L269.628 60.6447Z" fill="#283885"/>
<path d="M269.628 47.1523C268.908 48.4297 269.748 52.0378 269.495 54.447L269.335 54.8392L269.908 55.9261C269.815 53.0015 269.441 49.2141 269.641 47.1523H269.628Z" fill="#283885"/>
<path d="M271.174 39.9476C270.894 40.3958 270.934 38.39 271.081 41.6283C271.121 41.4715 271.134 41.4154 271.147 41.3258C271.147 41.0345 271.147 40.6311 271.161 39.9476H271.174Z" fill="#283885"/>
<path d="M271.16 41.326C271.402 40.396 271.174 42.7491 271.16 41.326Z" fill="#283885"/>
<path d="M271.001 34.7593L271.254 36.6305C271.414 36.2384 271.454 34.5688 271.574 35.1963C271.441 33.2802 271.281 33.6723 271.001 34.7593Z" fill="#283885"/>
<path d="M270.48 32.9883L270.586 33.9631C270.653 33.7951 270.679 33.5373 270.48 32.9883Z" fill="#283885"/>
<path d="M270.801 36.0149L270.575 33.9531C270.455 34.2221 270.228 34.2557 270.655 34.8944C270.441 34.7263 270.655 35.1297 270.801 36.0037V36.0149Z" fill="#283885"/>
<path d="M270.694 37.1797C270.534 38.233 270.441 39.5888 270.188 37.7063C270.281 41.292 270.787 40.7654 270.694 37.1797Z" fill="#283885"/>
<path d="M268.895 46.4587L268.682 47.8593L268.922 49.0695C268.802 48.4644 269.121 46.369 268.895 46.4475V46.4587Z" fill="#283885"/>
<path d="M271.374 23.1053C271.228 22.9932 270.974 23.7328 270.774 23.8784L270.948 25.2567C271.054 24.5507 271.148 23.1949 271.374 23.1053Z" fill="#283885"/>
<path d="M270.774 23.8679L270.508 21.7949C270.481 23.6438 270.601 23.98 270.774 23.8679Z" fill="#283885"/>
<path d="M269.682 32.6538L270.241 36.049L269.682 32.0039V32.6538Z" fill="#283885"/>
<path d="M271.387 15.1947L271.734 16.3713L271.214 14.2871L271.387 15.1947Z" fill="#283885"/>
<path d="M271.334 9.96154C271.627 10.8243 271.827 8.77378 272 9.69261C271.973 8.97547 271.893 8.32556 271.8 7.69807C271.68 7.05937 271.574 6.45428 271.467 5.88281C271.494 6.19656 271.507 6.52151 271.534 6.84647C271.534 7.14901 271.534 7.46276 271.534 7.78771C271.507 8.44882 271.44 9.15476 271.32 9.96154H271.334Z" fill="#283885"/>
<path d="M271.147 2.62305C271.214 3.62032 271.347 4.66241 271.481 5.88379C271.414 4.74085 271.321 3.63152 271.147 2.62305Z" fill="#283885"/>
<path d="M270.588 18.2771C270.681 18.1202 270.921 17.8065 271.028 16.6523L270.601 17.4703C270.601 17.7168 270.601 17.997 270.601 18.2883L270.588 18.2771Z" fill="#283885"/>
<path d="M270.574 17.4921V17.4584C270.6 16.5732 270.613 15.9681 270.613 15.6992C270.613 15.9233 270.6 16.4612 270.574 17.4809V17.4921Z" fill="#283885"/>
<path d="M270.587 18.479C270.587 18.4006 270.587 18.3446 270.587 18.2773C270.548 18.3558 270.535 18.4006 270.587 18.479Z" fill="#283885"/>
<path d="M270.068 27.2305C269.828 26.0203 269.575 23.4767 269.215 25.9307C269.508 26.8047 269.721 25.4041 270.068 27.2305Z" fill="#283885"/>
<path d="M270.054 19.4975L269.961 21.6938C270.068 21.649 270.241 21.2568 270.361 21.8506L270.068 19.4863L270.054 19.4975Z" fill="#283885"/>
<path d="M269.908 18.4219L270.054 19.4976L270.08 18.6796L269.908 18.4219Z" fill="#283885"/>
<path d="M270.748 7.87827C270.654 7.40765 270.601 6.90341 270.574 6.37676C270.574 6.01819 270.548 5.65962 270.534 5.27864C270.534 4.83043 270.521 4.37101 270.508 3.90039C270.481 4.79681 270.441 5.70444 270.414 6.61207C270.414 7.25077 270.388 7.87827 270.388 8.49456C270.521 8.67384 270.761 9.2117 270.748 7.86706V7.87827Z" fill="#283885"/>
<path d="M270.626 12.5508C270.626 12.4836 270.613 12.4051 270.6 12.3379C270.561 12.4724 270.548 12.5732 270.626 12.5508Z" fill="#283885"/>
<path d="M256.7 0.796875C256.78 0.819286 256.847 0.841696 256.927 0.864107C256.94 0.841696 256.953 0.819286 256.98 0.796875H256.714H256.7Z" fill="#283885"/>
<path d="M270.308 8.71897C270.228 9.66022 270.334 10.2317 270.467 10.7695C270.427 10.0636 270.4 9.31285 270.387 8.50607C270.321 8.42764 270.281 8.41643 270.308 8.71897Z" fill="#283885"/>
<path d="M267.042 0.43834C268.015 0.516777 269.094 0.572804 270.187 0.640035C269.388 0.527982 267.455 0.348698 267.042 0.43834Z" fill="#283885"/>
<path d="M270.721 12.0249C270.721 12.0249 270.721 12.1146 270.734 12.1706C270.825 11.8568 270.786 11.9017 270.721 12.0249Z" fill="#283885"/>
<path d="M270.721 12.0245C270.654 11.5427 270.547 11.1505 270.454 10.7695C270.494 11.341 270.534 11.8789 270.601 12.3383C270.627 12.2262 270.681 12.103 270.721 12.0245Z" fill="#283885"/>
<path d="M252.529 3.10434C252.729 2.76818 255.687 2.46564 258.233 2.82421C260.738 2.57769 259.099 1.47957 256.914 0.863281C256.834 1.00895 256.834 1.14341 254.248 1.3339C255.154 1.51319 259.979 1.7597 257.806 2.06225C254.381 2.23033 255.008 1.93899 253.342 1.77091C254.754 2.18551 248.984 2.376 249.73 2.98108L252.729 2.76818C252.782 2.85782 251.702 3.0147 252.529 3.10434Z" fill="#283885"/>
<path d="M261.831 0.897329L262.897 0.852508C261.685 0.796482 260.818 0.662018 259.219 0.404297C257.447 0.561171 257.087 0.695634 256.967 0.796482L262.204 0.841303L261.845 0.886124L261.831 0.897329Z" fill="#283885"/>
<path d="M269.694 0.851572C268.841 1.03086 267.455 1.16532 266.589 1.29978C265.709 1.43425 265.403 1.56871 266.349 1.77041C268.095 1.77041 268.935 1.70317 269.534 1.63594C269.654 2.16259 269.814 2.20741 269.921 3.47361C269.921 2.31946 269.907 1.65835 269.907 1.32219C269.348 1.32219 269.574 1.27737 270.001 1.24376C270.094 1.73679 270.241 2.85732 270.374 0.930009C270.214 0.930009 269.987 0.907599 269.721 0.896393C269.974 0.896393 270.241 0.873983 270.441 0.873983C270.494 1.9609 270.507 2.95817 270.52 3.91062C270.574 2.77888 270.64 1.69197 270.694 0.661082C270.507 0.661082 270.361 0.649877 270.201 0.638672C270.267 0.638672 270.307 0.649877 270.374 0.661082H270.414H270.401C270.534 0.683493 270.627 0.694698 270.64 0.705904C270.64 0.739519 270.64 0.739519 270.64 0.705904C270.64 0.705904 270.56 0.705904 270.427 0.705904C270.401 0.705904 270.294 0.705904 270.241 0.705904C270.134 0.76193 269.934 0.795546 269.721 0.840367C267.455 0.76193 269.428 0.750725 270.241 0.705904C270.294 0.683493 270.374 0.672288 270.401 0.649877H270.374L266.162 0.739519L264.19 0.784341L262.924 0.829162C263.19 0.829162 263.47 0.851572 263.79 0.851572C264.19 0.851572 264.63 0.851572 265.123 0.851572C266.349 0.851572 267.828 0.829162 269.721 0.817956L269.694 0.851572Z" fill="#283885"/>
<path d="M268.295 23.6778C268.335 23.5434 268.362 23.5546 268.402 23.5434C268.349 23.2744 268.308 23.1624 268.295 23.6778Z" fill="#283885"/>
<path d="M268.549 21.9298C268.615 22.2435 268.775 22.4901 268.735 23.4985C268.602 24.3725 268.535 23.4985 268.389 23.5434C268.509 24.1484 268.695 25.6612 268.908 23.7675L268.855 23.4649C269.002 21.7617 269.535 19.5655 269.601 19.868C269.215 20.3611 268.935 20.8093 268.562 21.941L268.549 21.9298Z" fill="#283885"/>
<path d="M269.388 12.0472L269.175 8.51758L268.802 10.3104L269.028 10.2208C268.935 12.2265 269.215 11.7895 269.388 12.0472Z" fill="#283885"/>
<path d="M256.221 0.617308L256.767 0.236328L254.342 0.774182L256.221 0.617308Z" fill="#283885"/>
<path d="M250.756 0.662844L250.956 0.337891L249.517 0.52838L250.756 0.662844Z" fill="#283885"/>
<path d="M5.1709 53.1816L5.27841 54.2237C5.2381 53.7307 5.21122 53.417 5.1709 53.1816Z" fill="#283885"/>
<path d="M5.19796 45.6734L4.99805 45.4941C5.10467 45.8415 5.18463 45.9872 5.19796 45.6734Z" fill="#283885"/>
<path d="M116.762 0.70725C114.963 0.393502 112.964 -0.0883251 113.177 0.292655L113.723 0.662429C114.976 0.595197 115.936 0.640019 116.762 0.718456V0.70725Z" fill="#283885"/>
<path d="M24.9893 2.87984C25.1625 2.91346 25.3358 2.95828 25.509 2.9919C25.9488 2.86864 26.3487 2.74538 26.7218 2.64453C26.2021 2.71176 25.6023 2.80141 24.9893 2.87984Z" fill="#283885"/>
<path d="M23.7229 4.39351L21.3506 4.1582C21.8837 4.23664 22.6433 4.31508 23.7229 4.39351Z" fill="#283885"/>
<path d="M24.7098 73.3834L26.1491 73.0137C23.8968 73.0137 24.883 73.2042 24.7098 73.3834Z" fill="#283885"/>
<path d="M194.875 0.796371C193.329 0.650703 192.089 0.594676 191.01 0.572266C192.876 0.785166 194.382 1.09891 194.875 0.796371Z" fill="#283885"/>
<path d="M0.573242 50.2228C0.653207 50.8615 0.746499 51.1304 0.839791 51.108C0.759827 50.4581 0.679862 50.0883 0.573242 50.2228Z" fill="#283885"/>
<path d="M186.531 0.582783C186.811 0.616399 187.078 0.638809 187.344 0.672425C188.477 0.616399 189.623 0.560372 191.009 0.582783C189.623 0.425909 188.051 0.336266 186.531 0.582783Z" fill="#283885"/>
<path d="M201.618 73.6876C201.751 73.6988 201.898 73.7212 202.018 73.7325C202.058 73.6876 201.885 73.6764 201.618 73.6876Z" fill="#283885"/>
<path d="M253.155 77.3613C252.649 77.3837 251.822 77.3837 251.036 77.3837C251.423 77.4061 252.049 77.4062 253.155 77.3613Z" fill="#283885"/>
<path d="M228.806 0.504393C229.965 0.481983 228.992 0.459572 228.806 0.504393Z" fill="#283885"/>
<path d="M234.43 1.95117C234.19 1.99599 234.004 2.04081 233.964 2.13046C234.057 2.04081 234.217 1.98479 234.43 1.95117Z" fill="#283885"/>
<path d="M175.003 2.84766C175.003 2.84766 174.936 2.84766 174.896 2.84766C175.243 2.91489 175.176 2.90368 175.003 2.84766Z" fill="#283885"/>
<path d="M230.552 0.6726C230.112 0.627779 229.619 0.594163 229.072 0.560547C229.312 0.594163 229.765 0.627779 230.552 0.6726Z" fill="#283885"/>
<path d="M230.312 0.494688C230.711 0.505893 231.018 0.517099 231.324 0.528304C231.471 0.472278 231.338 0.427456 230.312 0.494688Z" fill="#283885"/>
<path d="M227.193 0.52827C227.86 0.52827 228.473 0.539475 229.073 0.561886C228.846 0.539475 228.753 0.517065 228.806 0.505859C228.473 0.505859 227.993 0.505859 227.193 0.52827Z" fill="#283885"/>
<path d="M106.833 74.6616C106.913 74.6616 106.993 74.684 107.086 74.6952C108.259 74.5383 107.739 74.5719 106.833 74.6616Z" fill="#283885"/>
<path d="M86.6423 4.49455C86.6423 4.49455 86.7217 4.49455 86.7747 4.47214C86.7217 4.47214 86.6555 4.47214 86.6025 4.46094L86.6423 4.49455Z" fill="#283885"/>
<path d="M82.4971 4.76209C84.2696 4.31388 85.2692 4.3587 86.6152 4.45955L85.2425 3.40625L82.4971 4.76209Z" fill="#283885"/>
<path d="M5.30483 71.1543L5.69133 68.7004C6.33104 71.6586 6.1178 73.81 6.66423 71.5017C5.30483 71.1543 6.53096 61.966 5.17155 61.6186L5.45143 60.0051C5.45143 60.4645 5.51807 60.5429 5.50474 61.0023C6.15779 57.8537 4.51851 58.6604 4.71842 54.6153C4.82504 53.2035 5.02495 52.2174 5.18488 53.1811L4.8517 50.0324C4.87835 49.1135 5.11824 49.3376 5.09159 50.2565L4.98497 45.4606L5.02495 45.4942C4.81171 44.8107 4.47853 43.2532 4.34525 42.5024C4.54516 41.281 4.49185 43.1187 4.66511 42.805L4.33192 40.1493C4.67844 39.0624 5.02495 41.2698 4.97164 43.1075C6.33104 40.6199 4.62513 40.9001 5.42478 35.5439L5.59803 38.0539C6.37103 36.4404 6.09115 34.4794 6.57094 31.6333C6.31772 32.3056 5.35814 37.3144 5.02495 34.4346C5.13157 33.6166 5.17155 32.5521 4.90501 30.9946C5.38479 30.9834 5.26485 29.4595 5.23819 27.5546L5.87791 27.689C5.69132 25.6385 5.37147 25.7953 5.07826 24.5852C5.1449 22.2881 5.63802 21.8175 6.05117 21.2796C6.15779 17.6155 5.25152 23.812 5.13157 19.4756C5.37147 16.4277 5.11824 14.2763 4.73175 10.6346C4.95832 8.49437 5.11824 11.0044 5.30483 10.2424L4.79839 8.34871C4.79839 7.88929 4.97164 8.03496 5.05161 8.11339C4.95832 7.31782 4.79839 7.2842 4.63846 7.13853C4.55849 7.0601 4.47853 6.95925 4.41189 6.72394C4.34525 6.48863 4.27862 6.02921 4.23863 5.69305C3.9321 5.46895 4.09203 4.70699 4.30527 4.06829C5.06494 4.18034 5.79795 4.3148 6.39768 4.37083C6.58426 4.39324 7.34393 4.40445 7.8637 4.38203C8.42345 4.35962 8.98321 4.3036 9.50298 4.21396C10.4092 4.37083 9.06317 4.53891 9.34305 4.75181C14.4075 4.3148 13.6878 4.42686 17.846 3.83298L21.3911 4.18034C18.7922 3.77695 22.1108 3.29512 25.0295 2.90294C24.1099 2.71245 23.3102 2.53316 22.7905 2.45473L27.4417 2.16339C28.0015 2.25303 27.535 2.43231 26.7754 2.65642C27.0952 2.6116 27.3884 2.56678 27.6283 2.53316C29.2942 2.73486 28.428 3.0374 27.2418 3.33994C26.6821 3.22789 26.109 3.11584 25.5626 3.00378C24.4164 3.32874 23.3369 3.68731 23.5768 4.01226C23.8833 3.94503 24.4564 3.90021 25.0961 3.86659C24.7896 3.95623 24.603 4.03467 24.7496 4.0907C24.9095 4.14672 25.3893 4.02347 26.149 3.889L27.2018 4.48288L27.4551 4.24757L33.5324 4.61735C37.8905 4.01226 41.6755 3.12704 48.5791 2.88053C46.8598 3.31753 48.2059 3.59766 48.1126 4.12431C46.2334 3.57525 42.7683 4.35962 39.1832 4.24757C41.0491 4.3036 40.6359 4.55011 40.1695 4.63976L46.5533 4.13552C46.4067 4.56132 47.9127 4.44927 49.5786 4.62855C48.3125 3.78815 54.3365 4.06829 56.9354 3.81057C57.0953 4.0907 56.4689 4.38203 53.297 4.3148C56.7888 4.9535 57.815 3.32874 61.2535 3.86659C60.4805 3.86659 60.0673 3.83298 59.7608 3.97864C61.5733 3.73213 65.9847 3.92262 64.9452 4.16913H64.1722C69.3166 4.26998 79.8186 4.18034 80.5783 3.4632C80.6316 3.55284 79.8986 4.32601 79.5921 4.47168L88.7614 2.06254C87.9484 2.67883 91.0537 4.13552 86.7889 4.48288C88.015 4.57252 89.521 4.67337 92.1065 4.46047C91.2669 4.37083 90.0275 3.57525 91.1603 3.51923C94.2923 4.20275 93.3327 3.889 97.1976 4.47168C95.9449 4.33721 97.3309 3.37356 99.3167 3.40717C99.0102 3.55284 99.4766 4.35962 98.7569 4.46047L103.675 3.51923C102.449 3.68731 103.462 4.3148 104.554 4.58373C104.048 4.39324 108.806 4.60614 110.125 4.50529L108.033 4.28119C113.59 4.42686 113.524 2.94776 119.028 3.00378C118.362 3.19427 117.375 4.20275 120.187 4.32601C121.467 3.84418 125.878 1.99531 130.756 1.62553L131.689 1.90567L135.434 1.59192C133.102 2.32026 126.571 3.85539 123 4.44927C125.079 4.67337 123.573 4.77422 126.691 4.75181C127.797 5.00953 124.999 5.14399 124.079 5.1552L131.329 5.32328C131.009 4.76301 136.873 4.75181 136.594 4.28119L128.717 4.86386C128.397 4.3036 133.275 3.26151 138.406 3.36235C139.712 3.58646 137.433 4.37083 137.54 4.56132C138.206 4.37083 142.418 4.19154 142.884 4.32601L140.698 4.62855C143.564 4.84145 145.363 3.8778 148.802 4.41565C149.988 4.44927 152.347 5.14399 152.547 4.80784C150.614 4.15793 150.228 2.16339 151.52 1.68156C151.933 1.72638 157.744 2.29785 159.104 2.6116C161.063 3.11584 156.172 3.82177 157.838 4.24757C157.904 4.0907 158.984 3.90021 159.437 3.84418C160.676 3.97864 158.917 4.32601 161.623 4.24757C162.076 3.6761 167.127 4.29239 162.902 3.76574C165.554 3.59766 165.714 3.889 168.819 3.85539C167.833 3.48561 171.605 2.60039 174.257 2.43231C174.097 2.57798 174.697 2.76847 174.99 2.85812C180.414 2.91414 183.333 3.17186 188.397 3.17186C188.864 3.30633 191.303 3.47441 190.263 3.72092C190.996 3.62008 191.663 3.42959 193.222 3.40717C196.247 3.90021 189.743 3.48561 192.049 4.07949C192.249 3.74333 196.087 3.62008 198.313 3.40717C197.633 2.89173 193.182 3.30633 190.956 3.51923C190.956 2.81329 194.821 2.06254 200.112 1.73759C204.31 1.5583 201.938 2.197 202.671 2.09616C210.561 2.21941 209.401 0.852369 215.959 1.36781C218.557 1.81602 216.079 2.26424 216.652 2.58919C213.226 2.75727 211.387 2.29785 209.068 2.32026L211.92 2.53316C210.828 2.67883 208.549 2.80209 207.296 2.66763C209.481 3.07102 220.637 2.74606 226.727 3.11584C227.807 2.95896 229.673 2.80209 228.793 2.6228L226.86 2.69004C225.088 2.32026 230.486 2.1858 228.047 2.01772C230.632 1.76 233.538 1.35661 237.176 1.56951L237.856 2.08495C237.776 1.93928 235.47 1.78241 234.457 1.93928C235.976 1.71518 240.041 2.63401 241.707 1.96169L239.162 1.60312C241.761 1.3454 244.972 0.796343 248.198 0.964422C246.732 0.460184 247.451 1.02045 245.159 0.426568C247.145 1.16612 236.909 0.392952 240.095 1.17732C237.749 0.482595 236.03 0.885985 232.951 0.292105C233.044 0.460184 234.044 0.617058 231.338 0.538621C231.219 0.583442 230.925 0.650674 230.739 0.68429C230.659 0.68429 230.632 0.68429 230.552 0.673085C230.605 0.673085 230.645 0.68429 230.699 0.695495C230.579 0.717906 230.565 0.729111 230.752 0.695495C231.392 0.773932 231.925 0.863574 232.138 0.953217C230.792 1.3454 226.487 1.3342 225.035 1.53589C223.422 1.45745 225.701 1.3454 224.835 1.15491L222.662 1.45745C222.449 1.07647 218.398 0.829959 222.183 0.605853L218.771 0.583442C216.758 0.370542 213.999 0.292105 212.307 0.448979C210.694 0.370542 208.242 0.863574 209.641 0.572237L204.297 0.807548L204.244 0.717906C198.966 0.673085 193.395 1.3454 187.358 0.661879C185.585 0.751522 183.746 0.87478 180.774 0.762727L180.201 0.437774C177.922 0.549826 173.351 0.11282 172.378 0.448979C169.926 -0.425033 161.316 0.258489 157.304 0.101615L157.158 0.527416C154.399 0.505005 151.747 0.628263 148.335 0.796343L148.548 1.17732C145.59 1.49107 140.952 0.908396 136.287 0.953217C136.607 0.807548 137.793 0.852369 138.633 0.930806C133.048 0.0792043 126.865 1.5471 121.8 0.930806C120.534 1.06527 119.628 1.02045 118.748 0.930806C118.868 0.930806 118.975 0.930806 119.055 0.908396C118.921 0.908396 118.735 0.908396 118.535 0.908396C117.975 0.841164 117.402 0.773932 116.789 0.7067C117.322 0.796343 117.829 0.87478 118.268 0.908396C117.295 0.908396 115.816 0.964422 114.377 1.05406L113.764 0.650674C113.644 0.650674 113.55 0.650674 113.43 0.661879C112.018 0.516211 112.284 0.852369 113.044 1.15491C112.311 1.22214 111.645 1.30058 111.138 1.40143C109.992 0.751522 107.34 1.62553 105.767 0.919601C104.794 1.25576 98.5037 1.17732 97.7307 1.89446C97.6774 1.80482 97.2509 1.76 98.0373 1.74879C96.4246 1.67036 94.812 1.58071 93.3727 1.78241L92.693 1.26696L89.1745 1.96169C87.0421 1.64794 86.1492 1.46866 88.2682 1.06527C83.1372 1.67036 84.1101 1.28938 79.752 1.89446L79.9652 1.5583C78.4059 1.56951 75.9137 2.01772 74.9808 1.73759C71.489 1.11009 57.735 1.64794 48.779 1.06527C50.5116 2.04013 44.6208 0.628263 44.261 1.39022C43.7412 1.15491 42.4884 1.03165 43.9411 0.829959C39.3698 1.05406 37.0775 0.460184 33.9322 1.09889C33.4124 0.863574 34.9051 0.762727 34.4386 0.617058C34.0788 0.661879 32.986 0.818753 32.5062 0.68429C32.0397 0.549826 33.1725 0.4938 33.8922 0.392952C29.2276 0.426568 28.7611 1.14371 28.4146 1.81602C26.0557 1.50228 24.8695 1.5471 23.1636 1.9841C22.3373 1.76 20.9646 1.53589 23.87 1.45745C22.244 1.42384 13.9144 1.1325 13.7411 1.67036C13.2347 1.53589 11.4621 1.62553 11.0356 1.69277C9.20977 1.67036 8.21021 1.65915 7.22398 1.64794C6.61092 1.64794 6.01118 1.64794 5.27817 1.64794C4.47853 1.64794 3.5456 1.65915 2.34613 1.67036L3.74552 1.76C3.23907 1.99531 2.70598 2.07375 1.99962 2.09616C2.01295 2.65642 1.97297 3.22789 1.91966 3.93382C1.90633 4.29239 1.87967 4.67337 1.86635 5.08797C1.86635 5.49136 1.85302 6.02921 1.86635 6.37658L1.78638 6.30934C1.22663 11.8896 2.05293 8.71848 1.41321 14.2315L1.893 13.9289C2.91921 14.4444 1.27994 18.8144 1.67976 22.008L1.95964 20.8538C2.30615 22.6018 0.560255 25.7393 0.42698 27.4873C0.333688 27.8683 0.280378 26.8823 0.213741 26.3556C-0.399322 30.9498 0.840131 26.9495 0.986733 30.3671C0.653547 30.9946 0.120449 29.5491 0.0671391 31.8574C-0.212737 33.0003 1.17332 38.5357 0.520273 41.6732C0.786822 40.9785 1.04004 40.295 1.23996 41.8861C1.33325 44.3177 0.253723 48.4748 1.08003 50.6711C1.01339 50.9848 0.946751 51.0969 0.880114 51.1081C1.09335 52.9682 1.22663 57.1589 1.67976 58.2795C0.0271567 60.0051 2.47941 69.8545 0.960079 69.8097L1.04004 76.9475L0.880114 76.8466C0.880114 77.0483 0.880114 77.25 0.880114 77.4181C2.38612 77.4293 3.67888 77.4181 4.78506 77.3957C5.87791 77.3733 6.8908 77.3285 7.29062 77.2724C8.34349 77.1716 9.08983 77.0147 9.82284 76.869C10.8357 76.9587 10.0894 77.0707 10.0094 77.138C16.3666 77.3957 17.0063 77.3397 22.3373 76.701L22.8971 77.1156C24.3364 76.869 32.093 77.7655 38.3303 77.2836C38.2636 77.3285 38.1437 77.4069 37.6506 77.4741C44.6741 76.9811 54.4565 78.6283 57.0287 77.1156L61.6666 76.7458C55.6693 76.6225 62.5596 76.0847 60.094 75.8381C62.453 75.7485 66.1846 76.2976 63.2926 76.376L62.8395 76.2976C61.7733 77.0931 70.2895 76.5777 70.1296 77.1156C81.9244 77.0819 93.426 77.5189 104.461 77.5526L103.195 76.9363L107.047 76.9699C108.06 77.1156 108.406 77.4517 105.661 77.4293C107.1 77.7767 110.272 77.138 110.352 77.0035C115.736 77.25 108.246 77.7206 109.899 77.7318L112.138 77.687L111.631 77.6198C113.444 77.3733 113.604 77.1043 116.909 77.138C119.001 77.2612 117.975 77.5189 118.801 77.5413C118.801 77.5862 119.068 77.6086 120.068 77.5638L124.919 77.6198L122.973 77.138C125.119 76.9026 127.544 77.1604 125.292 76.6113C128.584 77.4629 143.404 76.9139 145.416 77.1828C148.428 76.8242 151.4 76.8354 155.092 76.8802C154.173 76.7794 153.626 76.2303 156.811 76.2976C155.652 77.4181 162.635 76.7906 165.208 77.5974C162.915 77.0595 174.244 77.4629 170.645 76.701C173.297 76.7906 170.805 77.1268 172.818 77.3845C179.135 76.9475 186.731 77.6646 194.528 77.5189C194.648 77.3733 193.342 77.1492 195.021 76.9251L199.139 77.6646C200.685 77.5974 200.552 76.813 203.377 77.3285C202.978 77.2052 202.391 77.0147 203.417 76.9699C218.704 77.687 234.657 76.376 250.183 77.7318C248.078 77.4405 249.477 77.4181 251.09 77.4069C250.05 77.3397 251.116 77.0371 250.903 76.8466L257.407 77.4069C258.593 76.8466 264.377 77.3733 265.057 76.8354L263.005 76.9363C265.737 76.3088 259.18 75.5468 259.579 74.74C256.514 75.4572 251.503 73.6867 246.465 74.7064C245.359 74.5383 247.411 74.4487 246.812 74.2582C245.532 74.6056 244 74.6728 241.147 74.5159L241.467 74.4263C233.458 74.5159 230.019 74.1686 221.01 73.9445L221.676 74.3478C219.744 74.2918 219.33 74.1686 218.424 74.0677C216.198 74.6728 223.862 74.1013 221.836 74.7624C219.264 73.9557 208.189 74.7512 206.456 73.8324C203.484 73.8324 207.322 74.2918 204.35 74.2918L203.564 74.0453L202.818 74.3703C200.872 74.3142 199.886 74.0005 199.806 73.7988C200.286 73.8212 201.152 73.7428 201.658 73.7204C199.126 73.429 194.528 73.8212 193.648 73.7204L196.514 73.8772C188.397 74.1125 178.468 73.7876 170.632 74.2918L171.232 74.4823C165.234 74.8297 166.434 74.2806 159.85 74.4375L160.09 74.3927C158.77 74.5832 157.011 74.6728 155.212 74.6504C156.878 74.4263 152.08 74.2246 154.266 73.9781C147.762 74.3478 151.054 74.2694 146.762 74.9641L145.776 74.6504C144.31 74.9305 144.19 75.0762 140.912 75.1658C143.604 74.8969 138.819 74.6952 141.831 74.3366C134.941 73.6531 131.596 75.0202 128.424 74.0229C125.252 74.8857 134.395 74.5047 132.622 74.684C134.101 74.9641 130.01 75.3339 127.851 75.2443C125.652 75.2219 124.106 74.1462 118.562 74.1574C119.108 74.1574 119.148 74.1013 119.694 74.1013C117.615 73.8772 115.63 74.4039 113.084 74.0453C111.658 74.572 109.779 74.0117 109.366 74.684L114.443 74.5271C111.565 74.7064 108.859 75.4796 104.115 75.0986C104.488 74.9641 105.9 74.7849 106.873 74.684C105.487 74.4823 104.195 74.8185 102.769 74.6168C103.182 73.9557 108.939 74.4711 112.031 73.9669C110.538 73.6867 106.194 74.4487 107.74 73.7316C105.514 74.6504 102.275 73.6195 98.5304 74.3142L98.7836 73.9108C98.1839 73.9781 96.9577 74.1574 95.8649 74.1574L97.8374 73.6419C94.7987 74.0789 91.9866 73.2609 89.0679 73.4962C95.1719 73.485 90.4406 73.9781 93.0128 74.2694C85.4828 74.8073 88.6814 73.2273 80.2584 73.4178C81.4046 73.3618 84.5366 73.6531 82.7507 73.8436C81.1514 73.7652 79.0323 73.6083 78.0461 73.3954C72.4619 73.4738 78.899 73.81 76.5267 74.0453C74.6209 73.5635 73.7813 74.247 71.3424 74.4039V74.0005C64.9585 73.7428 69.6365 74.8409 63.919 74.5271L66.3446 73.9669L63.3592 74.1125L63.9723 73.6531C60.7204 74.0005 59.7075 73.9108 56.5356 73.7764C57.2686 74.0565 56.1224 74.5159 53.297 74.5271C51.3778 74.2918 54.3765 74.1462 50.3783 74.2022C51.2845 73.9445 52.2708 73.6307 54.0034 74.0005C54.1766 73.866 54.8963 73.7428 55.0695 73.6195C53.0038 73.3394 49.8718 73.5523 48.4191 73.5635C48.9789 73.5747 49.6453 73.5971 49.9785 73.6531L44.1943 74.2134C43.2881 74.0565 44.0078 73.9332 44.7274 73.8212C43.5546 73.866 42.7417 74.0565 41.0224 74.0901C41.4622 73.7652 41.3556 73.4178 43.8078 73.2609L38.2903 73.6307C37.9171 73.485 35.4649 73.2385 36.1712 73.1153C33.1192 72.9248 28.6679 73.754 24.6163 73.4962C24.4031 73.5635 23.9766 73.6195 23.1236 73.6643C19.312 73.5859 15.9401 73.1825 11.4221 73.6419L8.86326 73.048C7.09071 73.1153 7.95699 73.3057 8.53007 73.4962C8.82328 73.5971 9.02319 73.6979 8.79662 73.7876C8.67668 73.8324 8.46344 73.8772 8.07694 73.9108C7.89036 73.922 7.66379 73.9445 7.38391 73.9669C7.25064 73.9669 7.10404 73.9781 6.94411 73.9893C6.86414 73.9893 6.78418 73.9893 6.69088 74.0005H6.57094C5.58471 74.1013 5.46476 73.9781 5.61136 73.81C5.74463 73.6419 5.99786 73.429 5.89124 73.3394C5.8246 73.3618 5.74463 73.3954 5.65134 73.4178C5.46476 73.3282 5.23819 73.1041 5.11824 72.4766C4.9983 71.188 4.98497 69.7537 5.25152 68.2858C5.38479 69.3503 5.27817 70.1907 5.33148 71.188L5.30483 71.1543ZM4.98497 34.4794C5.09159 35.1854 5.39812 36.6084 5.11824 37.1239C4.57182 36.3171 4.82504 35.6896 4.98497 34.4794ZM31.4133 3.65369C30.7869 3.78815 29.814 3.72092 28.7212 3.56405C29.5208 3.53043 30.4138 3.54164 31.4133 3.65369ZM216.119 0.841164C216.119 0.841164 216.052 0.852369 216.025 0.863574C214.146 0.7067 214.812 0.762727 216.119 0.841164ZM220.037 1.00924C220.437 0.953217 220.397 0.89719 220.237 0.841164C219.97 0.942011 219.091 0.953217 218.078 0.919601C218.358 1.02045 218.864 1.09889 220.037 1.00924ZM119.188 77.3845L118.428 77.2836C120.148 77.1716 119.668 77.2836 119.188 77.3845Z" fill="#283885"/>
<path d="M23.8962 4.21434C23.6563 4.14711 23.5896 4.06867 23.5363 3.99023C23.2031 4.05747 23.2031 4.1359 23.8962 4.21434Z" fill="#283885"/>
<path d="M24.4424 73.452H24.5757C24.6423 73.4296 24.6823 73.4072 24.7089 73.3848L24.4424 73.452Z" fill="#283885"/>
<path d="M159.396 4.44923C158.597 4.3932 158.143 4.31477 157.837 4.23633C157.797 4.33718 158.157 4.41561 159.396 4.44923Z" fill="#283885"/>
<path d="M240.788 0.326172L238.282 0.427019C239.495 0.404609 239.935 0.494251 240.535 0.561483C240.481 0.471841 240.001 0.326172 240.788 0.326172Z" fill="#283885"/>
<path d="M262.552 2.83636C262.911 2.79154 263.325 2.83636 263.684 2.78033L263.578 2.58984C262.018 2.60105 260.926 2.75792 262.538 2.83636H262.552Z" fill="#283885"/>
<path d="M243.106 1.67086C243.306 2.00702 244.879 1.89497 246.638 1.82773H246.332C246.851 1.34591 244.972 1.51399 243.12 1.67086H243.106Z" fill="#283885"/>
<path d="M247.038 1.81623C247.585 1.80503 248.131 1.79382 248.664 1.81623C248.864 1.62574 248.011 1.77141 247.038 1.81623Z" fill="#283885"/>
<path d="M225.008 0.784889C225.834 0.874531 225.528 0.347883 226.007 0.482346C226.94 0.04534 220.45 1.00899 225.008 0.784889Z" fill="#283885"/>
<path d="M244.533 2.79155L243.893 2.37695L242.92 2.71311L244.533 2.79155Z" fill="#283885"/>
<path d="M230.659 2.48768L233.471 2.59973C233.431 2.5325 233.791 2.48768 234.217 2.45406C232.485 2.44286 230.592 2.35322 230.659 2.47647V2.48768Z" fill="#283885"/>
<path d="M234.217 2.45395C235.123 2.45395 235.976 2.45395 236.482 2.38672C235.989 2.38672 234.95 2.40913 234.217 2.45395Z" fill="#283885"/>
<path d="M240.694 2.92599L239.868 2.83635L237.882 2.80273L240.694 2.92599Z" fill="#283885"/>
<path d="M200.485 2.39844L197.42 2.5217C197.113 2.66736 197.94 2.75701 199.086 2.70098C199.819 2.60013 200.952 2.54411 200.485 2.40964V2.39844Z" fill="#283885"/>
<path d="M209.748 3.55347C208.922 3.46383 208.868 3.37418 208.402 3.22852L208.309 3.75516L209.748 3.55347Z" fill="#283885"/>
<path d="M200.819 3.67578C200.512 3.82145 196.367 4.09038 200.259 4.05676C200.566 3.91109 203.644 3.78783 200.819 3.67578Z" fill="#283885"/>
<path d="M154.665 3.01515H155.438L155.331 2.15234L154.665 3.01515Z" fill="#283885"/>
<path d="M113.977 5.06592C117.602 5.26762 114.843 4.53927 118.122 4.797C118.974 4.5953 115.443 4.58409 116.309 4.41602C114.123 4.62892 112.964 4.50566 113.977 5.07713V5.06592Z" fill="#283885"/>
<path d="M116.309 4.404C116.655 4.37038 117.028 4.32556 117.428 4.26953C116.788 4.32556 116.495 4.35917 116.309 4.404Z" fill="#283885"/>
<path d="M261.712 77.821L264.044 78.0003L262.538 77.709L261.712 77.821Z" fill="#283885"/>
<path d="M266.189 77.1934L266.736 77.7424L268.135 77.2494C267.602 77.2718 266.589 77.3166 266.189 77.1934Z" fill="#283885"/>
<path d="M6.29114 29.0343L6.13121 28.8887C5.95795 29.1912 5.94462 29.6506 5.91797 30.5695L6.27781 29.0343H6.29114Z" fill="#283885"/>
<path d="M5.81136 55.6469L5.82469 55.1875L5.23828 56.0503L5.81136 55.6469Z" fill="#283885"/>
<path d="M6.62329 72.6113C6.62329 72.6113 6.54383 72.6561 6.4776 72.6786C6.4776 72.6786 6.4776 72.6673 6.4776 72.6561C6.4776 72.6561 6.4776 72.6561 6.4776 72.6786C6.43787 72.7234 6.45111 73.1604 6.62329 72.6113Z" fill="#283885"/>
</svg>
