<?xml version="1.0" encoding="UTF-8"?><svg xmlns="http://www.w3.org/2000/svg" width="343.93" height="375.49" xmlns:xlink="http://www.w3.org/1999/xlink" viewBox="0 0 343.93 375.49"><defs><style>.cls-1{clip-path:url(#clippath);}.cls-2{fill:none;}.cls-2,.cls-3,.cls-4,.cls-5{stroke-width:0px;}.cls-3{fill:#283885;}.cls-6{clip-path:url(#clippath-1);}.cls-4{fill:#6e70e7;opacity:.9;}.cls-7{opacity:.8;}.cls-8{opacity:.75;}.cls-9{isolation:isolate;}.cls-10{mix-blend-mode:multiply;opacity:.45;}.cls-5{fill:#fffbef;}</style><clipPath id="clippath"><path class="cls-2" d="M102.72,109.8c-1.29-.16-2.58-.33-3.86-.49.83-.96,1.2-2.49.93-3.83-.75-.8-1.77-1.18-2.77-1.05,1.08-1.03,2.17-2.05,3.25-3.08-.75-1.22-1.98-1.93-3.22-1.84,1.18-.35.49-3.19-.62-2.58,1.39-.47,1.58-3.45.26-4.08.83-.13,1.58-.96,1.8-1.98-.57-.58-1.14-1.17-1.71-1.75,1.61-.15,3.2-.88,4.54-2.07-1.23-3.51-4-6.05-7.05-6.47,1.02-.72,2.05-1.44,3.07-2.16-.6.05-.83-.92-.86-1.67-.13-2.54-.25-5.08-.38-7.62.43-.22.77-.73.85-1.3-1.37-2.25-2.75-4.49-4.12-6.74.66.5,1.69-.12,1.81-1.1.13-.98-.7-1.91-1.46-1.64,1.86-.74,3.38-2.81,3.81-5.2-3.63-2.07-7.26-4.13-10.89-6.2,4.19-1.83,8.47-3.28,12.77-4.57,24.04-7.26,48.69-10.11,73.25-11.31,32.35-1.57,64.9-.29,96.36,7.96,3.16.83,6.65,2.04,8.2,5.57-2.56.58-5.11,1.16-7.67,1.74,1.22.73,2.13,2.19,2.41,3.86-.43.7-.86,1.4-1.29,2.1,1.06.8,2.01,1.8,2.82,2.97-.74.89-1.48,1.79-2.22,2.68.7.37,1.39.73,2.09,1.1-1.41,1.57-2.82,3.13-4.24,4.7.64.42,1.28.85,1.92,1.27-1.98,1.01-.6,4.72.98,6.41-2.2,1.92-2.47,6.48-.52,8.63-1.91,2.85-3.82,5.71-5.73,8.56-.47.7-.96,1.52-.86,2.4.25,2.12,3.33,1.74,3.75,3.81-.16,1.31-.84,2.51-1.78,3.13.89.2,1.78.4,2.67.61-.83,1.27-.14,3.51,1.14,3.67-10.4,8.21-22.25,13.39-34.32,15.01-25.76,3.45-51.24-9.1-77-5.47-7.74,1.09-15.33,3.63-23.03,5.25-7.55,1.59-15.17,2.28-22.78,2.98-3.44.31-6.87.63-10.31.65-2.45.01-5.14-.25-6.83-2.42-1.23-1.59-1.6-5.64.26-6.98.71-.51,1.49-.11,2.25-.19,1.44-.14,2.9-.78,4.3-1.22Z"/></clipPath><clipPath id="clippath-1"><path class="cls-2" d="M268.57,109.38c.17.02.33-.14.35-.36.38-5.17,4.26-58.17,4.32-59.14l.3-4.34c.01-.21-.11-.39-.28-.41-2.31-.21-17.17-1.59-18.39-1.62-1.32-.04-21.96-1.45-25.87-1.77-3.91-.32-20.99-1.81-25.74-1.75s-17.68-.23-26.58-.08c-8.9.15-23.03.54-27.37.83-4.34.3-11,.28-13.26.72-2.25.44-16.54,2.44-21.34,3.3-4.8.86-12.86,2.36-15.32,2.79-2.07.36-5.44,1.01-6.45,1.21-.17.03-.29.23-.27.44.23,2.83,1.71,20.79,2.46,28.28.81,8.15,2.28,23.58,2.49,26.23.17,2.27.66,7.18.8,8.58.02.21.17.35.34.32,2.64-.47,21.83-3.9,24.97-4.54,3.38-.69,12.02-2.64,13.53-2.86,1.51-.22,3.75-.45,4.46-.78.71-.33.42-.51,1.21-.83.79-.32,1.83.12,2.68.24.85.11,6.33,0,10.15-.23,3.82-.23,8.18-.2,11.4-.46,3.22-.27,9-.36,10.26-.65,1.26-.29,2.56-.58,3.27-.91.71-.33.47-.62,1.66-.59,1.19.03,3.25.6,4.51.9s10.47,1.31,15.53,1.76c5.06.45,15.56,1.82,22.04,2.09,6.48.28,16.09,1.64,22.82,1.99,6.73.35,12.6.75,15.36.99,2.26.2,5.03.54,5.96.66Z"/></clipPath></defs><g class="cls-9"><g id="Lag_1"><rect class="cls-5" x="37.5" y="94.01" width="268.99" height="235.38" rx="29.83" ry="29.83"/><path class="cls-3" d="M73.22,174.59v-17.04h1.68v15.55h9.84v1.49h-11.52Z"/><path class="cls-3" d="M85.87,171.01c0-.78.22-1.45.67-2.02.45-.56,1.07-1,1.86-1.31s1.71-.47,2.75-.47c.61,0,1.24.05,1.9.14.66.1,1.24.24,1.75.43v-1.05c0-1.05-.31-1.88-.94-2.5s-1.49-.93-2.59-.93c-.67,0-1.33.12-1.98.37-.65.25-1.32.61-2.03,1.09l-.62-1.15c.82-.56,1.62-.98,2.4-1.26.78-.28,1.58-.42,2.4-.42,1.54,0,2.75.44,3.65,1.31s1.34,2.08,1.34,3.63v5.75c0,.22.05.39.14.49.1.1.25.16.46.18v1.3c-.18.02-.33.03-.46.05-.13.02-.22.02-.29,0-.4-.02-.7-.14-.91-.38-.21-.24-.32-.5-.34-.77l-.02-.91c-.56.72-1.29,1.28-2.18,1.67-.9.39-1.81.59-2.74.59-.8,0-1.52-.17-2.17-.51-.65-.34-1.15-.8-1.51-1.38-.36-.58-.54-1.22-.54-1.92ZM94.24,171.96c.18-.22.31-.44.41-.64.1-.21.14-.39.14-.55v-1.81c-.54-.21-1.11-.36-1.69-.48-.58-.11-1.17-.17-1.76-.17-1.17,0-2.11.23-2.83.69-.72.46-1.08,1.09-1.08,1.88,0,.46.12.89.36,1.3.24.4.59.74,1.06,1,.46.26,1.01.39,1.63.39.78,0,1.52-.15,2.2-.45.68-.3,1.2-.69,1.57-1.17Z"/><path class="cls-3" d="M104.06,174.83c-1.02,0-1.98-.17-2.86-.5s-1.64-.85-2.28-1.54l.67-1.15c.7.66,1.41,1.13,2.12,1.43.71.3,1.47.44,2.27.44.98,0,1.77-.19,2.38-.58.61-.39.91-.95.91-1.68,0-.49-.15-.87-.44-1.13-.3-.26-.72-.48-1.27-.64-.55-.17-1.21-.35-1.98-.54-.86-.24-1.59-.49-2.17-.75-.58-.26-1.02-.6-1.32-1-.3-.41-.44-.93-.44-1.59,0-.81.2-1.48.61-2.02.41-.53.97-.94,1.68-1.22.71-.28,1.51-.42,2.39-.42.96,0,1.81.15,2.54.46.74.3,1.34.73,1.8,1.27l-.79,1.1c-.45-.51-.98-.89-1.6-1.14-.62-.25-1.3-.37-2.05-.37-.51,0-1,.07-1.46.2-.46.13-.84.36-1.14.67-.3.31-.44.74-.44,1.28,0,.45.11.79.34,1.04.22.25.56.45,1.01.62.45.17,1,.35,1.66.54.94.25,1.77.51,2.47.78.7.26,1.25.6,1.63,1.01.38.41.58.99.58,1.74,0,1.16-.44,2.07-1.32,2.72s-2.04.98-3.48.98Z"/><path class="cls-3" d="M115.65,174.83c-1.02,0-1.98-.17-2.86-.5s-1.64-.85-2.28-1.54l.67-1.15c.7.66,1.41,1.13,2.12,1.43.71.3,1.47.44,2.27.44.98,0,1.77-.19,2.38-.58.61-.39.91-.95.91-1.68,0-.49-.15-.87-.44-1.13-.3-.26-.72-.48-1.27-.64-.55-.17-1.21-.35-1.98-.54-.86-.24-1.59-.49-2.17-.75-.58-.26-1.02-.6-1.32-1-.3-.41-.44-.93-.44-1.59,0-.81.2-1.48.61-2.02.41-.53.97-.94,1.68-1.22.71-.28,1.51-.42,2.39-.42.96,0,1.81.15,2.54.46.74.3,1.34.73,1.8,1.27l-.79,1.1c-.45-.51-.98-.89-1.6-1.14-.62-.25-1.3-.37-2.05-.37-.51,0-1,.07-1.46.2-.46.13-.84.36-1.14.67-.3.31-.44.74-.44,1.28,0,.45.11.79.34,1.04.22.25.56.45,1.01.62.45.17,1,.35,1.66.54.94.25,1.77.51,2.47.78.7.26,1.25.6,1.63,1.01.38.41.58.99.58,1.74,0,1.16-.44,2.07-1.32,2.72s-2.04.98-3.48.98Z"/><path class="cls-3" d="M128.54,174.83c-.9,0-1.73-.17-2.5-.51s-1.43-.81-1.99-1.41c-.56-.6-1-1.29-1.31-2.07s-.47-1.62-.47-2.51c0-1.16.27-2.22.8-3.19.54-.97,1.28-1.74,2.22-2.32.94-.58,2.02-.87,3.22-.87s2.31.29,3.23.88,1.64,1.36,2.17,2.32c.53.96.79,2.01.79,3.16v.37c0,.12,0,.21-.02.27h-10.7c.08.89.33,1.68.76,2.38.42.69.98,1.24,1.66,1.65s1.42.61,2.22.61,1.59-.21,2.32-.62,1.24-.96,1.52-1.63l1.42.38c-.26.59-.65,1.13-1.18,1.61s-1.15.85-1.86,1.12c-.71.26-1.48.4-2.29.4ZM123.93,167.77h9.24c-.06-.9-.31-1.69-.73-2.38-.42-.68-.98-1.22-1.66-1.6s-1.43-.58-2.24-.58-1.56.19-2.23.58c-.67.39-1.22.93-1.64,1.61-.42.69-.67,1.48-.73,2.36Z"/><path class="cls-3" d="M145.36,160.65v13.94h-1.68v-17.04h1.39l11.18,14.21v-14.18h1.68v17.02h-1.56l-11.02-13.94Z"/><path class="cls-3" d="M162.21,174.59v-17.04h1.68v9.9l9.38-9.93h1.85l-6.96,7.5,7.32,9.57h-1.9l-6.5-8.56-3.19,3.32v5.24h-1.68Z"/><path class="cls-3" d="M189.26,174.83c-.98,0-1.88-.25-2.71-.76-.83-.5-1.48-1.14-1.94-1.91v2.42h-1.46v-17.52h1.63v7.7c.56-.85,1.23-1.53,2.02-2.05.78-.52,1.7-.78,2.74-.78.88,0,1.67.18,2.36.55.7.37,1.29.86,1.79,1.47.5.61.87,1.3,1.13,2.08.26.77.38,1.56.38,2.37,0,.88-.15,1.69-.44,2.46s-.72,1.44-1.26,2.04-1.17,1.07-1.88,1.41c-.71.34-1.49.51-2.34.51ZM188.87,173.39c.67,0,1.3-.13,1.87-.4.58-.27,1.07-.64,1.49-1.12s.74-1.01.96-1.61.34-1.21.34-1.85c0-.87-.19-1.7-.56-2.47-.38-.77-.9-1.39-1.56-1.86s-1.44-.7-2.34-.7c-.64,0-1.24.14-1.79.43-.55.29-1.04.66-1.46,1.13-.42.47-.77.98-1.04,1.54v3.86c.06.43.23.83.5,1.2.27.37.61.69,1.02.96.41.27.84.48,1.28.64.45.16.88.24,1.3.24Z"/><path class="cls-3" d="M203.35,174.83c-.9,0-1.73-.17-2.5-.51s-1.43-.81-1.99-1.41c-.56-.6-1-1.29-1.31-2.07s-.47-1.62-.47-2.51c0-1.16.27-2.22.8-3.19.54-.97,1.28-1.74,2.22-2.32.94-.58,2.02-.87,3.22-.87s2.31.29,3.23.88,1.64,1.36,2.17,2.32c.53.96.79,2.01.79,3.16v.37c0,.12,0,.21-.02.27h-10.7c.08.89.33,1.68.76,2.38.42.69.98,1.24,1.66,1.65s1.42.61,2.22.61,1.59-.21,2.32-.62,1.24-.96,1.52-1.63l1.42.38c-.26.59-.65,1.13-1.18,1.61s-1.15.85-1.86,1.12c-.71.26-1.48.4-2.29.4ZM198.74,167.77h9.24c-.06-.9-.31-1.69-.73-2.38-.42-.68-.98-1.22-1.66-1.6s-1.43-.58-2.24-.58-1.56.19-2.23.58c-.67.39-1.22.93-1.64,1.61-.42.69-.67,1.48-.73,2.36Z"/><path class="cls-3" d="M216.14,174.83c-1.02,0-1.98-.17-2.86-.5s-1.64-.85-2.28-1.54l.67-1.15c.7.66,1.41,1.13,2.12,1.43.71.3,1.47.44,2.27.44.98,0,1.77-.19,2.38-.58.61-.39.91-.95.91-1.68,0-.49-.15-.87-.44-1.13-.3-.26-.72-.48-1.27-.64-.55-.17-1.21-.35-1.98-.54-.86-.24-1.59-.49-2.17-.75-.58-.26-1.02-.6-1.32-1-.3-.41-.44-.93-.44-1.59,0-.81.2-1.48.61-2.02.41-.53.97-.94,1.68-1.22.71-.28,1.51-.42,2.39-.42.96,0,1.81.15,2.54.46.74.3,1.34.73,1.8,1.27l-.79,1.1c-.45-.51-.98-.89-1.6-1.14-.62-.25-1.3-.37-2.05-.37-.51,0-1,.07-1.46.2-.46.13-.84.36-1.14.67-.3.31-.44.74-.44,1.28,0,.45.11.79.34,1.04.22.25.56.45,1.01.62.45.17,1,.35,1.66.54.94.25,1.77.51,2.47.78.7.26,1.25.6,1.63,1.01.38.41.58.99.58,1.74,0,1.16-.44,2.07-1.32,2.72s-2.04.98-3.48.98Z"/><path class="cls-3" d="M228.95,174.83c-.9,0-1.72-.17-2.48-.51-.76-.34-1.42-.81-1.97-1.41-.55-.6-.98-1.28-1.28-2.05-.3-.77-.46-1.59-.46-2.45s.15-1.7.46-2.48c.3-.78.74-1.47,1.3-2.06s1.22-1.07,1.98-1.41c.76-.34,1.58-.51,2.46-.51s1.74.17,2.5.51c.75.34,1.41.81,1.97,1.41s.99,1.28,1.3,2.06c.3.78.46,1.61.46,2.48s-.15,1.67-.46,2.45c-.3.77-.73,1.46-1.28,2.05-.55.6-1.21,1.07-1.97,1.41-.76.34-1.6.51-2.51.51ZM223.79,174.61l1.54-1.96.98.6-1.08,1.36h-1.44ZM228.95,173.39c.83,0,1.59-.22,2.28-.67.69-.44,1.24-1.05,1.66-1.82s.62-1.61.62-2.51-.21-1.76-.62-2.53-.97-1.37-1.66-1.81c-.69-.44-1.45-.67-2.28-.67s-1.59.23-2.27.68c-.68.45-1.23,1.06-1.64,1.82-.42.76-.62,1.61-.62,2.55s.2,1.76.61,2.51c.41.75.96,1.35,1.64,1.79.69.44,1.45.65,2.28.65ZM226.46,173.13l-.96-.55,6-9.02,1.06.48-6.1,9.09ZM232.72,163.95l-1.06-.48.98-1.36h1.49l-1.42,1.84Z"/><path class="cls-3" d="M242.92,174.83c-.85,0-1.63-.18-2.35-.53-.72-.35-1.34-.83-1.86-1.43-.52-.6-.92-1.28-1.21-2.05s-.43-1.56-.43-2.38c0-.88.14-1.71.42-2.48.28-.78.68-1.47,1.2-2.08.52-.61,1.13-1.08,1.84-1.43s1.49-.52,2.35-.52c1.07,0,2,.27,2.8.8.79.54,1.46,1.2,2,2v-2.62h1.46v12.52c0,1.15-.28,2.12-.83,2.91-.55.79-1.3,1.38-2.23,1.78-.94.4-1.96.6-3.06.6-1.42,0-2.58-.26-3.46-.77-.88-.51-1.6-1.2-2.16-2.06l1.01-.79c.5.78,1.16,1.37,1.98,1.75.82.38,1.7.58,2.63.58.82,0,1.56-.15,2.24-.44s1.22-.73,1.63-1.31c.41-.58.61-1.31.61-2.19v-2.47c-.48.78-1.14,1.41-1.97,1.88-.83.47-1.7.71-2.62.71ZM243.38,173.46c.5,0,.97-.09,1.43-.26.46-.18.88-.41,1.26-.71.38-.3.7-.63.96-1,.26-.37.42-.74.48-1.13v-3.86c-.24-.61-.58-1.15-1.03-1.62-.45-.47-.96-.84-1.52-1.1-.57-.26-1.16-.4-1.76-.4-.7,0-1.33.15-1.88.44-.55.3-1.02.69-1.39,1.18-.38.49-.67,1.04-.88,1.64-.21.61-.31,1.22-.31,1.82,0,.67.12,1.31.36,1.91.24.6.57,1.14,1,1.61.42.47.92.84,1.49,1.09.57.26,1.17.38,1.81.38Z"/><path class="cls-3" d="M258.14,174.83c-.9,0-1.73-.17-2.5-.51s-1.43-.81-1.99-1.41c-.56-.6-1-1.29-1.31-2.07s-.47-1.62-.47-2.51c0-1.16.27-2.22.8-3.19.54-.97,1.28-1.74,2.22-2.32.94-.58,2.02-.87,3.22-.87s2.31.29,3.23.88,1.64,1.36,2.17,2.32c.53.96.79,2.01.79,3.16v.37c0,.12,0,.21-.02.27h-10.7c.08.89.33,1.68.76,2.38.42.69.98,1.24,1.66,1.65s1.42.61,2.22.61,1.59-.21,2.32-.62,1.24-.96,1.52-1.63l1.42.38c-.26.59-.65,1.13-1.18,1.61s-1.15.85-1.86,1.12c-.71.26-1.48.4-2.29.4ZM253.53,167.77h9.24c-.06-.9-.31-1.69-.73-2.38-.42-.68-.98-1.22-1.66-1.6s-1.43-.58-2.24-.58-1.56.19-2.23.58c-.67.39-1.22.93-1.64,1.61-.42.69-.67,1.48-.73,2.36Z"/><path class="cls-3" d="M273.06,163.53c-1.09.03-2.04.34-2.87.91-.82.58-1.4,1.37-1.74,2.38v7.78h-1.63v-12.46h1.54v2.95c.43-.88,1-1.59,1.72-2.14.71-.54,1.47-.85,2.27-.91.16-.02.3-.02.42-.02s.22,0,.3.02v1.49Z"/><path class="cls-3" d="M90.76,194.73c0-1.04.18-2.06.54-3.06.36-1,.88-1.91,1.57-2.74.69-.82,1.54-1.48,2.54-1.97,1.01-.49,2.15-.73,3.43-.73,1.52,0,2.82.35,3.9,1.04,1.08.7,1.88,1.59,2.39,2.68l-1.32.82c-.37-.75-.83-1.35-1.39-1.79-.56-.44-1.16-.76-1.79-.95-.63-.19-1.26-.29-1.88-.29-1.02,0-1.93.2-2.71.61-.78.41-1.44.95-1.98,1.63-.54.68-.94,1.44-1.21,2.28-.27.84-.41,1.69-.41,2.56,0,.94.16,1.85.48,2.71.32.86.77,1.63,1.34,2.29.58.66,1.25,1.19,2.03,1.58.78.39,1.62.59,2.53.59.64,0,1.3-.11,1.97-.34.67-.22,1.3-.57,1.88-1.03s1.05-1.06,1.4-1.8l1.39.72c-.35.85-.9,1.57-1.63,2.16-.74.59-1.56,1.04-2.46,1.34-.9.3-1.79.46-2.65.46-1.17,0-2.24-.25-3.22-.76-.98-.5-1.82-1.18-2.53-2.02-.71-.84-1.26-1.78-1.64-2.83s-.58-2.11-.58-3.18Z"/><path class="cls-3" d="M108.09,185.87h1.63v14.77c0,.63.11,1.04.34,1.23.22.19.5.29.82.29.29,0,.58-.03.86-.1s.54-.13.74-.19l.29,1.32c-.3.13-.68.23-1.12.31-.44.08-.82.12-1.14.12-.74,0-1.32-.22-1.76-.65-.44-.43-.66-1.03-.66-1.79v-15.32Z"/><path class="cls-3" d="M113.54,199.81c0-.78.22-1.45.67-2.02.45-.56,1.07-1,1.86-1.31s1.71-.47,2.75-.47c.61,0,1.24.05,1.9.14.66.1,1.24.24,1.75.43v-1.05c0-1.05-.31-1.88-.94-2.5s-1.49-.93-2.59-.93c-.67,0-1.33.12-1.98.37-.65.25-1.32.61-2.03,1.09l-.62-1.15c.82-.56,1.62-.98,2.4-1.26.78-.28,1.58-.42,2.4-.42,1.54,0,2.75.44,3.65,1.31s1.34,2.08,1.34,3.63v5.75c0,.22.05.39.14.49.1.1.25.16.46.18v1.3c-.18.02-.33.03-.46.05-.13.02-.22.02-.29,0-.4-.02-.7-.14-.91-.38-.21-.24-.32-.5-.34-.77l-.02-.91c-.56.72-1.29,1.28-2.18,1.67-.9.39-1.81.59-2.74.59-.8,0-1.52-.17-2.17-.51-.65-.34-1.15-.8-1.51-1.38-.36-.58-.54-1.22-.54-1.92ZM121.92,200.76c.18-.22.31-.44.41-.64.1-.21.14-.39.14-.55v-1.81c-.54-.21-1.11-.36-1.69-.48-.58-.11-1.17-.17-1.76-.17-1.17,0-2.11.23-2.83.69-.72.46-1.08,1.09-1.08,1.88,0,.46.12.89.36,1.3.24.4.59.74,1.06,1,.46.26,1.01.39,1.63.39.78,0,1.52-.15,2.2-.45.68-.3,1.2-.69,1.57-1.17Z"/><path class="cls-3" d="M133.87,192.33c-1.09.03-2.04.34-2.87.91-.82.58-1.4,1.37-1.74,2.38v7.78h-1.63v-12.46h1.54v2.95c.43-.88,1-1.59,1.72-2.14.71-.54,1.47-.85,2.27-.91.16-.02.3-.02.42-.02s.22,0,.3.02v1.49Z"/><path class="cls-3" d="M135.04,199.81c0-.78.22-1.45.67-2.02.45-.56,1.07-1,1.86-1.31s1.71-.47,2.75-.47c.61,0,1.24.05,1.9.14.66.1,1.24.24,1.75.43v-1.05c0-1.05-.31-1.88-.94-2.5s-1.49-.93-2.59-.93c-.67,0-1.33.12-1.98.37-.65.25-1.32.61-2.03,1.09l-.62-1.15c.82-.56,1.62-.98,2.4-1.26.78-.28,1.58-.42,2.4-.42,1.54,0,2.75.44,3.65,1.31s1.34,2.08,1.34,3.63v5.75c0,.22.05.39.14.49.1.1.25.16.46.18v1.3c-.18.02-.33.03-.46.05-.13.02-.22.02-.29,0-.4-.02-.7-.14-.91-.38-.21-.24-.32-.5-.34-.77l-.02-.91c-.56.72-1.29,1.28-2.18,1.67-.9.39-1.81.59-2.74.59-.8,0-1.52-.17-2.17-.51-.65-.34-1.15-.8-1.51-1.38-.36-.58-.54-1.22-.54-1.92ZM143.42,200.76c.18-.22.31-.44.41-.64.1-.21.14-.39.14-.55v-1.81c-.54-.21-1.11-.36-1.69-.48-.58-.11-1.17-.17-1.76-.17-1.17,0-2.11.23-2.83.69-.72.46-1.08,1.09-1.08,1.88,0,.46.12.89.36,1.3.24.4.59.74,1.06,1,.46.26,1.01.39,1.63.39.78,0,1.52-.15,2.2-.45.68-.3,1.2-.69,1.57-1.17Z"/><path class="cls-3" d="M160.6,203.63c-.91,0-1.75-.17-2.51-.51-.76-.34-1.42-.81-1.97-1.41-.55-.6-.98-1.28-1.28-2.05-.3-.77-.46-1.59-.46-2.45s.15-1.72.46-2.49c.3-.77.74-1.46,1.3-2.05s1.22-1.07,1.98-1.41c.76-.34,1.59-.51,2.48-.51s1.72.17,2.47.51c.75.34,1.41.81,1.97,1.41s.99,1.28,1.3,2.05c.3.77.46,1.6.46,2.49s-.15,1.67-.46,2.45c-.3.77-.73,1.46-1.28,2.05-.55.6-1.21,1.07-1.97,1.41-.76.34-1.59.51-2.48.51ZM156.04,197.23c0,.92.2,1.76.61,2.51.41.75.96,1.35,1.64,1.79.69.44,1.45.65,2.28.65s1.59-.22,2.28-.67c.69-.44,1.24-1.05,1.66-1.82s.62-1.62.62-2.54-.21-1.74-.62-2.5-.97-1.37-1.66-1.81c-.69-.44-1.45-.67-2.28-.67s-1.59.23-2.28.69c-.69.46-1.24,1.07-1.64,1.82-.41.75-.61,1.6-.61,2.54Z"/><path class="cls-3" d="M174.55,203.63c-.85,0-1.63-.18-2.35-.53-.72-.35-1.34-.83-1.86-1.43-.52-.6-.92-1.28-1.21-2.05s-.43-1.56-.43-2.38c0-.88.14-1.71.42-2.48.28-.78.68-1.47,1.2-2.08.52-.61,1.13-1.08,1.84-1.43s1.49-.52,2.35-.52c1.07,0,2,.27,2.8.8.79.54,1.46,1.2,2,2v-2.62h1.46v12.52c0,1.15-.28,2.12-.83,2.91-.55.79-1.3,1.38-2.23,1.78-.94.4-1.96.6-3.06.6-1.42,0-2.58-.26-3.46-.77-.88-.51-1.6-1.2-2.16-2.06l1.01-.79c.5.78,1.16,1.37,1.98,1.75.82.38,1.7.58,2.63.58.82,0,1.56-.15,2.24-.44s1.22-.73,1.63-1.31c.41-.58.61-1.31.61-2.19v-2.47c-.48.78-1.14,1.41-1.97,1.88-.83.47-1.7.71-2.62.71ZM175,202.26c.5,0,.97-.09,1.43-.26.46-.18.88-.41,1.26-.71.38-.3.7-.63.96-1,.26-.37.42-.74.48-1.13v-3.86c-.24-.61-.58-1.15-1.03-1.62-.45-.47-.96-.84-1.52-1.1-.57-.26-1.16-.4-1.76-.4-.7,0-1.33.15-1.88.44-.55.3-1.02.69-1.39,1.18-.38.49-.67,1.04-.88,1.64-.21.61-.31,1.22-.31,1.82,0,.67.12,1.31.36,1.91.24.6.57,1.14,1,1.61.42.47.92.84,1.49,1.09.57.26,1.17.38,1.81.38Z"/><path class="cls-3" d="M200.78,189.54c-.24-.27-.52-.52-.84-.73-.32-.22-.68-.4-1.08-.56-.4-.16-.83-.29-1.28-.38-.46-.1-.94-.14-1.45-.14-1.49,0-2.58.28-3.28.85-.7.57-1.04,1.34-1.04,2.31,0,.67.16,1.2.49,1.58s.84.69,1.55.93c.7.24,1.6.49,2.69.74,1.22.26,2.26.56,3.14.91.88.35,1.56.83,2.04,1.43.48.6.72,1.41.72,2.43,0,.78-.15,1.46-.46,2.04-.3.58-.73,1.05-1.27,1.44-.54.38-1.19.67-1.94.85-.75.18-1.58.28-2.47.28s-1.72-.09-2.53-.28c-.81-.18-1.57-.46-2.29-.82-.72-.36-1.39-.82-2.02-1.38l.84-1.37c.3.32.67.62,1.09.9.42.28.9.53,1.42.76.52.22,1.08.4,1.68.52.6.12,1.22.18,1.86.18,1.36,0,2.42-.25,3.18-.74.76-.5,1.14-1.23,1.14-2.2,0-.7-.19-1.27-.58-1.69-.38-.42-.96-.77-1.73-1.04s-1.71-.54-2.83-.79c-1.18-.27-2.18-.58-3-.91s-1.43-.78-1.84-1.33c-.41-.55-.61-1.28-.61-2.19,0-1.05.26-1.95.78-2.67s1.24-1.28,2.15-1.65c.91-.38,1.96-.56,3.14-.56.75,0,1.45.08,2.1.23.65.15,1.25.37,1.8.66.55.29,1.07.65,1.55,1.08l-.82,1.34Z"/><path class="cls-3" d="M210.4,203.63c-.91,0-1.75-.17-2.51-.51-.76-.34-1.42-.81-1.97-1.41-.55-.6-.98-1.28-1.28-2.05-.3-.77-.46-1.59-.46-2.45s.15-1.72.46-2.49c.3-.77.74-1.46,1.3-2.05s1.22-1.07,1.98-1.41c.76-.34,1.59-.51,2.48-.51s1.72.17,2.47.51c.75.34,1.41.81,1.97,1.41s.99,1.28,1.3,2.05c.3.77.46,1.6.46,2.49s-.15,1.67-.46,2.45c-.3.77-.73,1.46-1.28,2.05-.55.6-1.21,1.07-1.97,1.41-.76.34-1.59.51-2.48.51ZM205.84,197.23c0,.92.2,1.76.61,2.51.41.75.96,1.35,1.64,1.79.69.44,1.45.65,2.28.65s1.59-.22,2.28-.67c.69-.44,1.24-1.05,1.66-1.82s.62-1.62.62-2.54-.21-1.74-.62-2.5-.97-1.37-1.66-1.81c-.69-.44-1.45-.67-2.28-.67s-1.59.23-2.28.69c-.69.46-1.24,1.07-1.64,1.82-.41.75-.61,1.6-.61,2.54Z"/><path class="cls-3" d="M219.93,192.18h-1.73v-1.3h1.73v-.34c0-.59.09-1.18.26-1.75.18-.58.44-1.1.8-1.58.36-.48.82-.86,1.37-1.15.55-.29,1.21-.43,1.98-.43.59,0,1.12.06,1.6.19.47.13.88.28,1.24.46.35.18.62.34.79.48l-.74,1.18c-.26-.24-.64-.44-1.14-.61-.5-.17-1.05-.25-1.64-.25-.67,0-1.22.17-1.64.52-.42.34-.74.78-.94,1.31-.2.53-.3,1.06-.3,1.61v.38h6.26v12.5h-1.63v-11.21h-4.63v11.21h-1.63v-11.21Z"/><path class="cls-3" d="M230.42,199.81c0-.78.22-1.45.67-2.02.45-.56,1.07-1,1.86-1.31s1.71-.47,2.75-.47c.61,0,1.24.05,1.9.14.66.1,1.24.24,1.75.43v-1.05c0-1.05-.31-1.88-.94-2.5s-1.49-.93-2.59-.93c-.67,0-1.33.12-1.98.37-.65.25-1.32.61-2.03,1.09l-.62-1.15c.82-.56,1.62-.98,2.4-1.26.78-.28,1.58-.42,2.4-.42,1.54,0,2.75.44,3.65,1.31s1.34,2.08,1.34,3.63v5.75c0,.22.05.39.14.49.1.1.25.16.46.18v1.3c-.18.02-.33.03-.46.05-.13.02-.22.02-.29,0-.4-.02-.7-.14-.91-.38-.21-.24-.32-.5-.34-.77l-.02-.91c-.56.72-1.29,1.28-2.18,1.67-.9.39-1.81.59-2.74.59-.8,0-1.52-.17-2.17-.51-.65-.34-1.15-.8-1.51-1.38-.36-.58-.54-1.22-.54-1.92ZM238.79,200.76c.18-.22.31-.44.41-.64.1-.21.14-.39.14-.55v-1.81c-.54-.21-1.11-.36-1.69-.48-.58-.11-1.17-.17-1.76-.17-1.17,0-2.11.23-2.83.69-.72.46-1.08,1.09-1.08,1.88,0,.46.12.89.36,1.3.24.4.59.74,1.06,1,.46.26,1.01.39,1.63.39.78,0,1.52-.15,2.2-.45.68-.3,1.2-.69,1.57-1.17Z"/><path class="cls-3" d="M244.77,205.33l.41-2.02h-.55v-2.28h1.58v2.28l-.6,2.02h-.84Z"/><path class="cls-3" d="M130.26,235.24v-4.27h-7.99v-1.44l8.52-11.04h1.1v10.99h2.11v1.49h-2.11v4.27h-1.63ZM123.99,229.48h6.43v-8.42l-6.43,8.42Z"/><path class="cls-3" d="M148.09,232.43c-.91,0-1.75-.17-2.51-.51-.76-.34-1.42-.81-1.97-1.41-.55-.6-.98-1.28-1.28-2.05-.3-.77-.46-1.59-.46-2.45s.15-1.72.46-2.49c.3-.77.74-1.46,1.3-2.05s1.22-1.07,1.98-1.41c.76-.34,1.59-.51,2.48-.51s1.72.17,2.47.51c.75.34,1.41.81,1.97,1.41s.99,1.28,1.3,2.05c.3.77.46,1.6.46,2.49s-.15,1.67-.46,2.45c-.3.77-.73,1.46-1.28,2.05-.55.6-1.21,1.07-1.97,1.41-.76.34-1.59.51-2.48.51ZM143.53,226.03c0,.92.2,1.76.61,2.51.41.75.96,1.35,1.64,1.79.69.44,1.45.65,2.28.65s1.59-.22,2.28-.67c.69-.44,1.24-1.05,1.66-1.82s.62-1.62.62-2.54-.21-1.74-.62-2.5-.97-1.37-1.66-1.81c-.69-.44-1.45-.67-2.28-.67s-1.59.23-2.28.69c-.69.46-1.24,1.07-1.64,1.82-.41.75-.61,1.6-.61,2.54Z"/><path class="cls-3" d="M162.03,232.43c-.85,0-1.63-.18-2.35-.53-.72-.35-1.34-.83-1.86-1.43-.52-.6-.92-1.28-1.21-2.05s-.43-1.56-.43-2.38c0-.88.14-1.71.42-2.48.28-.78.68-1.47,1.2-2.08.52-.61,1.13-1.08,1.84-1.43s1.49-.52,2.35-.52c1.07,0,2,.27,2.8.8.79.54,1.46,1.2,2,2v-2.62h1.46v12.52c0,1.15-.28,2.12-.83,2.91-.55.79-1.3,1.38-2.23,1.78-.94.4-1.96.6-3.06.6-1.42,0-2.58-.26-3.46-.77-.88-.51-1.6-1.2-2.16-2.06l1.01-.79c.5.78,1.16,1.37,1.98,1.75.82.38,1.7.58,2.63.58.82,0,1.56-.15,2.24-.44s1.22-.73,1.63-1.31c.41-.58.61-1.31.61-2.19v-2.47c-.48.78-1.14,1.41-1.97,1.88-.83.47-1.7.71-2.62.71ZM162.49,231.06c.5,0,.97-.09,1.43-.26.46-.18.88-.41,1.26-.71.38-.3.7-.63.96-1,.26-.37.42-.74.48-1.13v-3.86c-.24-.61-.58-1.15-1.03-1.62-.45-.47-.96-.84-1.52-1.1-.57-.26-1.16-.4-1.76-.4-.7,0-1.33.15-1.88.44-.55.3-1.02.69-1.39,1.18-.38.49-.67,1.04-.88,1.64-.21.61-.31,1.22-.31,1.82,0,.67.12,1.31.36,1.91.24.6.57,1.14,1,1.61.42.47.92.84,1.49,1.09.57.26,1.17.38,1.81.38Z"/><path class="cls-3" d="M182.45,235.77c-1.2,0-2.29-.3-3.26-.9-.98-.6-1.7-1.39-2.18-2.36l1.08-.82c.45.78,1.06,1.42,1.84,1.9s1.63.72,2.56.72c.8,0,1.52-.18,2.15-.53.63-.35,1.14-.84,1.51-1.46.38-.62.56-1.34.56-2.16s-.18-1.48-.54-2.08c-.36-.6-.85-1.07-1.46-1.4-.62-.34-1.31-.5-2.08-.5s-1.44.16-2.11.49c-.67.33-1.22.8-1.63,1.43h-1.51l1.9-9.6h8.23v1.51h-7.01l-1.18,6.12c.42-.45.93-.8,1.54-1.04.61-.25,1.26-.37,1.97-.37,1.04,0,1.98.23,2.82.7.84.46,1.51,1.1,2,1.92.5.82.74,1.75.74,2.81,0,1.12-.27,2.1-.8,2.95-.54.85-1.25,1.51-2.15,1.98-.9.47-1.89.71-2.98.71Z"/><path class="cls-3" d="M196.16,228.61c0-.78.22-1.45.67-2.02.45-.56,1.07-1,1.86-1.31s1.71-.47,2.75-.47c.61,0,1.24.05,1.9.14.66.1,1.24.24,1.75.43v-1.05c0-1.05-.31-1.88-.94-2.5s-1.49-.93-2.59-.93c-.67,0-1.33.12-1.98.37-.65.25-1.32.61-2.03,1.09l-.62-1.15c.82-.56,1.62-.98,2.4-1.26.78-.28,1.58-.42,2.4-.42,1.54,0,2.75.44,3.65,1.31s1.34,2.08,1.34,3.63v5.75c0,.22.05.39.14.49.1.1.25.16.46.18v1.3c-.18.02-.33.03-.46.05-.13.02-.22.02-.29,0-.4-.02-.7-.14-.91-.38-.21-.24-.32-.5-.34-.77l-.02-.91c-.56.72-1.29,1.28-2.18,1.67-.9.39-1.81.59-2.74.59-.8,0-1.52-.17-2.17-.51-.65-.34-1.15-.8-1.51-1.38-.36-.58-.54-1.22-.54-1.92ZM204.53,229.56c.18-.22.31-.44.41-.64.1-.21.14-.39.14-.55v-1.81c-.54-.21-1.11-.36-1.69-.48-.58-.11-1.17-.17-1.76-.17-1.17,0-2.11.23-2.83.69-.72.46-1.08,1.09-1.08,1.88,0,.46.12.89.36,1.3.24.4.59.74,1.06,1,.46.26,1.01.39,1.63.39.78,0,1.52-.15,2.2-.45.68-.3,1.2-.69,1.57-1.17ZM199.54,216.13c0-.61.2-1.1.61-1.48.41-.38.92-.56,1.52-.56s1.14.19,1.54.56c.4.38.6.87.6,1.48,0,.58-.2,1.05-.6,1.42-.4.37-.91.55-1.54.55s-1.12-.18-1.52-.55c-.41-.37-.61-.84-.61-1.42ZM201.68,214.93c-.32,0-.6.1-.83.31s-.35.5-.35.86c0,.34.11.62.34.84.22.22.5.34.84.34.3,0,.58-.11.83-.32.25-.22.37-.5.37-.85s-.12-.66-.35-.86c-.23-.21-.52-.31-.85-.31Z"/><path class="cls-3" d="M216.49,221.13c-1.09.03-2.04.34-2.87.91-.82.58-1.4,1.37-1.74,2.38v7.78h-1.63v-12.46h1.54v2.95c.43-.88,1-1.59,1.72-2.14.71-.54,1.47-.85,2.27-.91.16-.02.3-.02.42-.02s.22,0,.3.02v1.49Z"/><path class="cls-3" d="M218.93,234.13l.41-2.02h-.55v-2.28h1.58v2.28l-.6,2.02h-.84Z"/><path class="cls-3" d="M72.56,261.23c-1.04,0-1.97-.27-2.8-.81-.82-.54-1.48-1.21-1.96-2v7.69h-1.63v-17.57h1.46v2.43c.5-.78,1.16-1.41,1.99-1.9.83-.49,1.72-.73,2.66-.73.86,0,1.66.18,2.38.54.72.36,1.34.84,1.87,1.44s.94,1.29,1.24,2.06c.3.77.44,1.57.44,2.4,0,1.16-.24,2.23-.71,3.21-.47.98-1.13,1.76-1.98,2.35-.85.59-1.84.88-2.98.88ZM72.1,259.79c.69,0,1.3-.14,1.85-.42.54-.28,1.01-.65,1.4-1.13.39-.48.69-1.01.9-1.61.21-.6.31-1.21.31-1.85,0-.67-.12-1.3-.35-1.91-.23-.6-.56-1.14-1-1.6-.43-.46-.93-.83-1.49-1.1s-1.17-.4-1.82-.4c-.42,0-.85.08-1.3.24-.45.16-.88.38-1.28.68-.41.29-.75.62-1.02.99-.27.37-.44.75-.5,1.17v3.82c.26.59.6,1.12,1.03,1.58.43.47.93.84,1.5,1.12.57.28,1.16.42,1.76.42Z"/><path class="cls-3" d="M79.98,257.41c0-.78.22-1.45.67-2.02.45-.56,1.07-1,1.86-1.31s1.71-.47,2.75-.47c.61,0,1.24.05,1.9.14.66.1,1.24.24,1.75.43v-1.05c0-1.05-.31-1.88-.94-2.5s-1.49-.93-2.59-.93c-.67,0-1.33.12-1.98.37-.65.25-1.32.61-2.03,1.09l-.62-1.15c.82-.56,1.62-.98,2.4-1.26.78-.28,1.58-.42,2.4-.42,1.54,0,2.75.44,3.65,1.31s1.34,2.08,1.34,3.63v5.75c0,.22.05.39.14.49.1.1.25.16.46.18v1.3c-.18.02-.33.03-.46.05-.13.02-.22.02-.29,0-.4-.02-.7-.14-.91-.38-.21-.24-.32-.5-.34-.77l-.02-.91c-.56.72-1.29,1.28-2.18,1.67-.9.39-1.81.59-2.74.59-.8,0-1.52-.17-2.17-.51-.65-.34-1.15-.8-1.51-1.38-.36-.58-.54-1.22-.54-1.92ZM88.35,258.36c.18-.22.31-.44.41-.64.1-.21.14-.39.14-.55v-1.81c-.54-.21-1.11-.36-1.69-.48-.58-.11-1.17-.17-1.76-.17-1.17,0-2.11.23-2.83.69-.72.46-1.08,1.09-1.08,1.88,0,.46.12.89.36,1.3.24.4.59.74,1.06,1,.46.26,1.01.39,1.63.39.78,0,1.52-.15,2.2-.45.68-.3,1.2-.69,1.57-1.17ZM83.36,244.93c0-.61.2-1.1.61-1.48.41-.38.92-.56,1.52-.56s1.14.19,1.54.56c.4.38.6.87.6,1.48,0,.58-.2,1.05-.6,1.42-.4.37-.91.55-1.54.55s-1.12-.18-1.52-.55c-.41-.37-.61-.84-.61-1.42ZM85.5,243.73c-.32,0-.6.1-.83.31s-.35.5-.35.86c0,.34.11.62.34.84.22.22.5.34.84.34.3,0,.58-.11.83-.32.25-.22.37-.5.37-.85s-.12-.66-.35-.86c-.23-.21-.52-.31-.85-.31Z"/><path class="cls-3" d="M113.96,243.95v17.04h-1.66v-7.97h-10.1v7.97h-1.68v-17.04h1.68v7.58h10.1v-7.58h1.66Z"/><path class="cls-3" d="M123.3,261.23c-.9,0-1.73-.17-2.5-.51s-1.43-.81-1.99-1.41c-.56-.6-1-1.29-1.31-2.07s-.47-1.62-.47-2.51c0-1.16.27-2.22.8-3.19.54-.97,1.28-1.74,2.22-2.32.94-.58,2.02-.87,3.22-.87s2.31.29,3.23.88,1.64,1.36,2.17,2.32c.53.96.79,2.01.79,3.16v.37c0,.12,0,.21-.02.27h-10.7c.08.89.33,1.68.76,2.38.42.69.98,1.24,1.66,1.65s1.42.61,2.22.61,1.59-.21,2.32-.62,1.24-.96,1.52-1.63l1.42.38c-.26.59-.65,1.13-1.18,1.61s-1.15.85-1.86,1.12c-.71.26-1.48.4-2.29.4ZM118.69,254.17h9.24c-.06-.9-.31-1.69-.73-2.38-.42-.68-.98-1.22-1.66-1.6s-1.43-.58-2.24-.58-1.56.19-2.23.58c-.67.39-1.22.93-1.64,1.61-.42.69-.67,1.48-.73,2.36Z"/><path class="cls-3" d="M138.22,249.93c-1.09.03-2.04.34-2.87.91-.82.58-1.4,1.37-1.74,2.38v7.78h-1.63v-12.46h1.54v2.95c.43-.88,1-1.59,1.72-2.14.71-.54,1.47-.85,2.27-.91.16-.02.3-.02.42-.02s.22,0,.3.02v1.49Z"/><path class="cls-3" d="M150.92,260.99h-1.63v-6.94c0-1.46-.22-2.53-.65-3.21-.43-.68-1.11-1.01-2.04-1.01-.64,0-1.27.16-1.9.46-.62.31-1.17.73-1.64,1.26-.47.53-.81,1.14-1.02,1.82v7.61h-1.63v-12.46h1.49v2.84c.34-.6.78-1.13,1.32-1.59s1.16-.81,1.85-1.06c.69-.25,1.4-.38,2.14-.38.69,0,1.27.13,1.75.38.48.25.86.62,1.15,1.09.29.47.5,1.03.62,1.69.13.66.19,1.4.19,2.21v7.28Z"/><path class="cls-3" d="M154.4,245.87v-2.4h1.63v2.4h-1.63ZM154.4,260.99v-12.5h1.63v12.5h-1.63Z"/><path class="cls-3" d="M170.14,260.99h-1.63v-6.94c0-1.46-.22-2.53-.65-3.21-.43-.68-1.11-1.01-2.04-1.01-.64,0-1.27.16-1.9.46-.62.31-1.17.73-1.64,1.26-.47.53-.81,1.14-1.02,1.82v7.61h-1.63v-12.46h1.49v2.84c.34-.6.78-1.13,1.32-1.59s1.16-.81,1.85-1.06c.69-.25,1.4-.38,2.14-.38.69,0,1.27.13,1.75.38.48.25.86.62,1.15,1.09.29.47.5,1.03.62,1.69.13.66.19,1.4.19,2.21v7.28Z"/><path class="cls-3" d="M178.64,261.23c-.85,0-1.63-.18-2.35-.53-.72-.35-1.34-.83-1.86-1.43-.52-.6-.92-1.28-1.21-2.05s-.43-1.56-.43-2.38c0-.88.14-1.71.42-2.48.28-.78.68-1.47,1.2-2.08.52-.61,1.13-1.08,1.84-1.43s1.49-.52,2.35-.52c1.07,0,2,.27,2.8.8.79.54,1.46,1.2,2,2v-2.62h1.46v12.52c0,1.15-.28,2.12-.83,2.91-.55.79-1.3,1.38-2.23,1.78-.94.4-1.96.6-3.06.6-1.42,0-2.58-.26-3.46-.77-.88-.51-1.6-1.2-2.16-2.06l1.01-.79c.5.78,1.16,1.37,1.98,1.75.82.38,1.7.58,2.63.58.82,0,1.56-.15,2.24-.44s1.22-.73,1.63-1.31c.41-.58.61-1.31.61-2.19v-2.47c-.48.78-1.14,1.41-1.97,1.88-.83.47-1.7.71-2.62.71ZM179.09,259.86c.5,0,.97-.09,1.43-.26.46-.18.88-.41,1.26-.71.38-.3.7-.63.96-1,.26-.37.42-.74.48-1.13v-3.86c-.24-.61-.58-1.15-1.03-1.62-.45-.47-.96-.84-1.52-1.1-.57-.26-1.16-.4-1.76-.4-.7,0-1.33.15-1.88.44-.55.3-1.02.69-1.39,1.18-.38.49-.67,1.04-.88,1.64-.21.61-.31,1.22-.31,1.82,0,.67.12,1.31.36,1.91.24.6.57,1.14,1,1.61.42.47.92.84,1.49,1.09.57.26,1.17.38,1.81.38Z"/><path class="cls-3" d="M205.09,260.99h-1.63v-6.94c0-1.4-.25-2.45-.74-3.16-.5-.71-1.21-1.06-2.14-1.06-.61,0-1.21.16-1.81.46-.6.31-1.13.73-1.58,1.26-.46.53-.78,1.14-.97,1.82v7.61h-1.63v-17.52h1.63v7.9c.5-.92,1.19-1.66,2.08-2.21.89-.55,1.84-.82,2.84-.82.72,0,1.33.13,1.84.38s.91.62,1.22,1.11.54,1.05.68,1.69c.14.64.22,1.37.22,2.18v7.28Z"/><path class="cls-3" d="M213.92,261.23c-.91,0-1.75-.17-2.51-.51-.76-.34-1.42-.81-1.97-1.41-.55-.6-.98-1.28-1.28-2.05-.3-.77-.46-1.59-.46-2.45s.15-1.72.46-2.49c.3-.77.74-1.46,1.3-2.05s1.22-1.07,1.98-1.41c.76-.34,1.59-.51,2.48-.51s1.72.17,2.47.51c.75.34,1.41.81,1.97,1.41s.99,1.28,1.3,2.05c.3.77.46,1.6.46,2.49s-.15,1.67-.46,2.45c-.3.77-.73,1.46-1.28,2.05-.55.6-1.21,1.07-1.97,1.41-.76.34-1.59.51-2.48.51ZM209.36,254.83c0,.92.2,1.76.61,2.51.41.75.96,1.35,1.64,1.79.69.44,1.45.65,2.28.65s1.59-.22,2.28-.67c.69-.44,1.24-1.05,1.66-1.82s.62-1.62.62-2.54-.21-1.74-.62-2.5-.97-1.37-1.66-1.81c-.69-.44-1.45-.67-2.28-.67s-1.59.23-2.28.69c-.69.46-1.24,1.07-1.64,1.82-.41.75-.61,1.6-.61,2.54Z"/><path class="cls-3" d="M226.95,261.23c-1.02,0-1.98-.17-2.86-.5s-1.64-.85-2.28-1.54l.67-1.15c.7.66,1.41,1.13,2.12,1.43.71.3,1.47.44,2.27.44.98,0,1.77-.19,2.38-.58.61-.39.91-.95.91-1.68,0-.49-.15-.87-.44-1.13-.3-.26-.72-.48-1.27-.64-.55-.17-1.21-.35-1.98-.54-.86-.24-1.59-.49-2.17-.75-.58-.26-1.02-.6-1.32-1-.3-.41-.44-.93-.44-1.59,0-.81.2-1.48.61-2.02.41-.53.97-.94,1.68-1.22.71-.28,1.51-.42,2.39-.42.96,0,1.81.15,2.54.46.74.3,1.34.73,1.8,1.27l-.79,1.1c-.45-.51-.98-.89-1.6-1.14-.62-.25-1.3-.37-2.05-.37-.51,0-1,.07-1.46.2-.46.13-.84.36-1.14.67-.3.31-.44.74-.44,1.28,0,.45.11.79.34,1.04.22.25.56.45,1.01.62.45.17,1,.35,1.66.54.94.25,1.77.51,2.47.78.7.26,1.25.6,1.63,1.01.38.41.58.99.58,1.74,0,1.16-.44,2.07-1.32,2.72s-2.04.98-3.48.98Z"/><path class="cls-3" d="M240.82,261.23c-1.04,0-1.97-.27-2.8-.81-.82-.54-1.48-1.21-1.96-2v7.69h-1.63v-17.57h1.46v2.43c.5-.78,1.16-1.41,1.99-1.9.83-.49,1.72-.73,2.66-.73.86,0,1.66.18,2.38.54.72.36,1.34.84,1.87,1.44s.94,1.29,1.24,2.06c.3.77.44,1.57.44,2.4,0,1.16-.24,2.23-.71,3.21-.47.98-1.13,1.76-1.98,2.35-.85.59-1.84.88-2.98.88ZM240.37,259.79c.69,0,1.3-.14,1.85-.42.54-.28,1.01-.65,1.4-1.13.39-.48.69-1.01.9-1.61.21-.6.31-1.21.31-1.85,0-.67-.12-1.3-.35-1.91-.23-.6-.56-1.14-1-1.6-.43-.46-.93-.83-1.49-1.1s-1.17-.4-1.82-.4c-.42,0-.85.08-1.3.24-.45.16-.88.38-1.28.68-.41.29-.75.62-1.02.99-.27.37-.44.75-.5,1.17v3.82c.26.59.6,1.12,1.03,1.58.43.47.93.84,1.5,1.12.57.28,1.16.42,1.76.42Z"/><path class="cls-3" d="M249.24,245.87v-2.4h1.63v2.4h-1.63ZM249.24,260.99v-12.5h1.63v12.5h-1.63Z"/><path class="cls-3" d="M260.48,260.49c-.13.05-.33.14-.6.26-.27.13-.6.24-.98.34-.38.1-.8.14-1.25.14s-.9-.09-1.31-.27c-.41-.18-.73-.45-.97-.81-.24-.36-.36-.81-.36-1.34v-8.99h-1.73v-1.3h1.73v-4.22h1.63v4.22h2.88v1.3h-2.88v8.54c.03.45.2.79.49,1.01.3.23.64.34,1.02.34.45,0,.86-.08,1.22-.23.37-.15.59-.26.67-.32l.43,1.32Z"/><path class="cls-3" d="M261.51,257.41c0-.78.22-1.45.67-2.02.45-.56,1.07-1,1.86-1.31s1.71-.47,2.75-.47c.61,0,1.24.05,1.9.14.66.1,1.24.24,1.75.43v-1.05c0-1.05-.31-1.88-.94-2.5s-1.49-.93-2.59-.93c-.67,0-1.33.12-1.98.37-.65.25-1.32.61-2.03,1.09l-.62-1.15c.82-.56,1.62-.98,2.4-1.26.78-.28,1.58-.42,2.4-.42,1.54,0,2.75.44,3.65,1.31s1.34,2.08,1.34,3.63v5.75c0,.22.05.39.14.49.1.1.25.16.46.18v1.3c-.18.02-.33.03-.46.05-.13.02-.22.02-.29,0-.4-.02-.7-.14-.91-.38-.21-.24-.32-.5-.34-.77l-.02-.91c-.56.72-1.29,1.28-2.18,1.67-.9.39-1.81.59-2.74.59-.8,0-1.52-.17-2.17-.51-.65-.34-1.15-.8-1.51-1.38-.36-.58-.54-1.22-.54-1.92ZM269.88,258.36c.18-.22.31-.44.41-.64.1-.21.14-.39.14-.55v-1.81c-.54-.21-1.11-.36-1.69-.48-.58-.11-1.17-.17-1.76-.17-1.17,0-2.11.23-2.83.69-.72.46-1.08,1.09-1.08,1.88,0,.46.12.89.36,1.3.24.4.59.74,1.06,1,.46.26,1.01.39,1.63.39.78,0,1.52-.15,2.2-.45.68-.3,1.2-.69,1.57-1.17Z"/><path class="cls-3" d="M275.67,243.47h1.63v14.77c0,.63.11,1.04.34,1.23.22.19.5.29.82.29.29,0,.58-.03.86-.1s.54-.13.74-.19l.29,1.32c-.3.13-.68.23-1.12.31-.44.08-.82.12-1.14.12-.74,0-1.32-.22-1.76-.65-.44-.43-.66-1.03-.66-1.79v-15.32Z"/><g class="cls-1"><image class="cls-10" width="183" height="75" transform="translate(91.48 36.62)" xlink:href="galleri3_text-1.png"/><g class="cls-7"><path class="cls-4" d="M268.57,109.38c.17.02.33-.14.35-.36.38-5.17,4.26-58.17,4.32-59.14l.3-4.34c.01-.21-.11-.39-.28-.41-2.31-.21-17.17-1.59-18.39-1.62-1.32-.04-21.96-1.45-25.87-1.77-3.91-.32-20.99-1.81-25.74-1.75s-17.68-.23-26.58-.08c-8.9.15-23.03.54-27.37.83-4.34.3-11,.28-13.26.72-2.25.44-16.54,2.44-21.34,3.3-4.8.86-12.86,2.36-15.32,2.79-2.07.36-5.44,1.01-6.45,1.21-.17.03-.29.23-.27.44.23,2.83,1.71,20.79,2.46,28.28.81,8.15,2.28,23.58,2.49,26.23.17,2.27.66,7.18.8,8.58.02.21.17.35.34.32,2.64-.47,21.83-3.9,24.97-4.54,3.38-.69,12.02-2.64,13.53-2.86,1.51-.22,3.75-.45,4.46-.78.71-.33.42-.51,1.21-.83.79-.32,1.83.12,2.68.24.85.11,6.33,0,10.15-.23,3.82-.23,8.18-.2,11.4-.46,3.22-.27,9-.36,10.26-.65,1.26-.29,2.56-.58,3.27-.91.71-.33.47-.62,1.66-.59,1.19.03,3.25.6,4.51.9s10.47,1.31,15.53,1.76c5.06.45,15.56,1.82,22.04,2.09,6.48.28,16.09,1.64,22.82,1.99,6.73.35,12.6.75,15.36.99,2.26.2,5.03.54,5.96.66Z"/><g class="cls-8"><g class="cls-6"><image width="82" height="43" transform="translate(165.48 64.62)" xlink:href="galleri3_text-2.png"/><image width="64" height="64" transform="translate(138.48 45.62)" xlink:href="galleri3_text-3.png"/><image width="59" height="33" transform="translate(156.48 64.62)" xlink:href="galleri3_text-4.png"/><image width="51" height="23" transform="translate(123.48 48.62)" xlink:href="galleri3_text-5.png"/></g></g></g></g></g></g></svg>