<?xml version="1.0" encoding="UTF-8"?><svg xmlns="http://www.w3.org/2000/svg" width="314.57" height="320.54" xmlns:xlink="http://www.w3.org/1999/xlink" viewBox="0 0 314.57 320.54"><defs><style>.cls-1{clip-path:url(#clippath);}.cls-2{fill:none;}.cls-2,.cls-3,.cls-4,.cls-5{stroke-width:0px;}.cls-3{fill:#283885;}.cls-6{clip-path:url(#clippath-1);}.cls-7{opacity:.8;}.cls-8{opacity:.75;}.cls-4{fill:#daba7b;opacity:.9;}.cls-9{isolation:isolate;}.cls-10{mix-blend-mode:multiply;opacity:.45;}.cls-5{fill:#fffbef;}</style><clipPath id="clippath"><path class="cls-2" d="M200.48,93.5c4.17-3.61,7.12-8.6,8.29-13.99-2.09-.59-4.18-1.19-6.27-1.78,1.27-4.2,4.35-7.83,8.3-9.75-.68-.56-1.74-.57-2.44-.03,2.61-3.82,5.91-7.16,9.71-9.79-3.76-3-8.3-4.99-13.05-5.73.94-1.33-.12-3.11-1.02-4.48s-1.47-3.54-.05-4.35c-1.25.29-2.63-.02-3.64-.82,2.4-.24,2.34-3.66,2.76-6.04.26-1.46.97-2.83,2.02-3.87.45-.45.99-.88,1.11-1.51.22-1.14-1.08-2-2.23-2.17-1.15-.17-2.43-.05-3.36-.76-1.24-.94-1.18-2.83-.67-4.3.51-1.47,1.35-2.89,1.28-4.44-2.93.16-4.84-2.96-7.41-4.37-1.77-.98-3.87-1.12-5.9-1.22-35.53-1.8-71.39,3.07-105.17,14.26,1.92,2.46,5.21,3.77,8.29,3.31-.09,1.74-2.06,2.62-3.61,3.42-1.55.8-3.08,2.77-1.95,4.09-1.81.21-3.52,1.18-4.63,2.63,4.86,1.64,10.1,2.16,15.19,1.51-3.63,1.04-7.21,2.27-10.71,3.7-1.32.54-2.69,1.16-3.5,2.33s-.75,3.05.48,3.77c-2.73.12-4.24,3.75-3.05,6.21,1.19,2.46,4.09,3.66,6.82,3.81-1.38,3.02-5.26,4.18-6.84,7.1-1.32,2.44-.69,5.44-.03,8.14.5,2.02.99,4.04,1.49,6.06,1.24,5.03,2.77,10.51,7.02,13.47,2.67,1.86,6.02,2.41,9.26,2.82,30.18,3.81,60.75-.36,90.74-5.44l12.77-1.78Z"/></clipPath><clipPath id="clippath-1"><path class="cls-2" d="M252.51,76.22l-4.8-63.37c-.02-.22-.21-.39-.43-.38-3.68.21-31.72,1.81-34.16,2.3-2.62.52-2.72.08-4.8.42-2.08.34-3.87.62-6.09.67-2.22.06-11.61,1.04-14.39,1.15-2.78.11-12.29,1.04-14.61,1.18-2.33.14-12.12,1.12-15.06,1.29-2.95.17-19.33,1.09-23.84,1.77-4.52.67-18.68,1.85-22.19,1.99-3.51.14-26,2.33-28.56,2.52-2.55.2-3.25-.03-6,.7-2.75.73-14,2.22-16.97,3.06-2.97.84-21.01,4.6-25.11,5.41-3.55.7-9.79,2.08-11.4,2.44-.22.05-.35.26-.31.47.53,2.75,3.72,19.14,4.08,19.78.39.7,3,14.36,3.51,15.79.5,1.43,3.48,15.96,3.81,17.53.29,1.37,1.75,7.87,2.13,9.54.05.22.26.35.48.31,3.05-.64,22.92-4.83,27.01-5.89,4.43-1.15,20.2-4.32,24.57-5.27,4.38-.95,14.5-3.48,16.77-3.93,2.27-.45,2.95-.53,3.45-.79.5-.25.7-.56,1.26-.48.56.08,1.88.56,2.78.65.9.08,2.72.14,5.41.22,2.69.08,8.33,0,11.61.08,3.28.08,6.76-.06,8.72-.03,1.96.03,6.96.03,10.32-.36,3.37-.39,6.31-.28,11.28-.9,4.96-.62,8.39-.73,11.28-1.04,2.89-.31,11.92-.7,15.74-1.15,3.81-.45,8.95-.73,11.98-1.01,3.03-.28,4.15-.25,5.41-.45,1.26-.2,1.49-.5,3.67-.73,2.19-.22,7.18-.45,13.63-1.04s10.86-.76,13.04-.95c2.19-.2,4.6-.08,8.36-.45,3.09-.3,6.8-.56,8.02-.64.23-.02.39-.21.38-.44Z"/></clipPath></defs><g class="cls-9"><g id="Lag_1"><rect class="cls-5" x="19.87" y="47.96" width="268.99" height="235.38" rx="29.83" ry="29.83"/><path class="cls-3" d="M55.59,136.93v-17.04h1.68v15.55h9.84v1.49h-11.52Z"/><path class="cls-3" d="M68.24,133.36c0-.78.22-1.45.67-2.02.45-.56,1.07-1,1.86-1.31s1.71-.47,2.75-.47c.61,0,1.24.05,1.9.14.66.1,1.24.24,1.75.43v-1.05c0-1.05-.31-1.88-.94-2.5s-1.49-.93-2.59-.93c-.67,0-1.33.12-1.98.37-.65.25-1.32.61-2.03,1.09l-.62-1.15c.82-.56,1.62-.98,2.4-1.26.78-.28,1.58-.42,2.4-.42,1.54,0,2.75.44,3.65,1.31s1.34,2.08,1.34,3.63v5.75c0,.22.05.39.14.49.1.1.25.16.46.18v1.3c-.18.02-.33.03-.46.05-.13.02-.22.02-.29,0-.4-.02-.7-.14-.91-.38-.21-.24-.32-.5-.34-.77l-.02-.91c-.56.72-1.29,1.28-2.18,1.67-.9.39-1.81.59-2.74.59-.8,0-1.52-.17-2.17-.51-.65-.34-1.15-.8-1.51-1.38-.36-.58-.54-1.22-.54-1.92ZM76.61,134.31c.18-.22.31-.44.41-.64.1-.21.14-.39.14-.55v-1.81c-.54-.21-1.11-.36-1.69-.48-.58-.11-1.17-.17-1.76-.17-1.17,0-2.11.23-2.83.69-.72.46-1.08,1.09-1.08,1.88,0,.46.12.89.36,1.3.24.4.59.74,1.06,1,.46.26,1.01.39,1.63.39.78,0,1.52-.15,2.2-.45.68-.3,1.2-.69,1.57-1.17Z"/><path class="cls-3" d="M86.43,137.17c-1.02,0-1.98-.17-2.86-.5s-1.64-.85-2.28-1.54l.67-1.15c.7.66,1.41,1.13,2.12,1.43.71.3,1.47.44,2.27.44.98,0,1.77-.19,2.38-.58.61-.39.91-.95.91-1.68,0-.49-.15-.87-.44-1.13-.3-.26-.72-.48-1.27-.64-.55-.17-1.21-.35-1.98-.54-.86-.24-1.59-.49-2.17-.75-.58-.26-1.02-.6-1.32-1-.3-.41-.44-.93-.44-1.59,0-.81.2-1.48.61-2.02.41-.53.97-.94,1.68-1.22.71-.28,1.51-.42,2.39-.42.96,0,1.81.15,2.54.46.74.3,1.34.73,1.8,1.27l-.79,1.1c-.45-.51-.98-.89-1.6-1.14-.62-.25-1.3-.37-2.05-.37-.51,0-1,.07-1.46.2-.46.13-.84.36-1.14.67-.3.31-.44.74-.44,1.28,0,.45.11.79.34,1.04.22.25.56.45,1.01.62.45.17,1,.35,1.66.54.94.25,1.77.51,2.47.78.7.26,1.25.6,1.63,1.01.38.41.58.99.58,1.74,0,1.16-.44,2.07-1.32,2.72s-2.04.98-3.48.98Z"/><path class="cls-3" d="M98.02,137.17c-1.02,0-1.98-.17-2.86-.5s-1.64-.85-2.28-1.54l.67-1.15c.7.66,1.41,1.13,2.12,1.43.71.3,1.47.44,2.27.44.98,0,1.77-.19,2.38-.58.61-.39.91-.95.91-1.68,0-.49-.15-.87-.44-1.13-.3-.26-.72-.48-1.27-.64-.55-.17-1.21-.35-1.98-.54-.86-.24-1.59-.49-2.17-.75-.58-.26-1.02-.6-1.32-1-.3-.41-.44-.93-.44-1.59,0-.81.2-1.48.61-2.02.41-.53.97-.94,1.68-1.22.71-.28,1.51-.42,2.39-.42.96,0,1.81.15,2.54.46.74.3,1.34.73,1.8,1.27l-.79,1.1c-.45-.51-.98-.89-1.6-1.14-.62-.25-1.3-.37-2.05-.37-.51,0-1,.07-1.46.2-.46.13-.84.36-1.14.67-.3.31-.44.74-.44,1.28,0,.45.11.79.34,1.04.22.25.56.45,1.01.62.45.17,1,.35,1.66.54.94.25,1.77.51,2.47.78.7.26,1.25.6,1.63,1.01.38.41.58.99.58,1.74,0,1.16-.44,2.07-1.32,2.72s-2.04.98-3.48.98Z"/><path class="cls-3" d="M110.91,137.17c-.9,0-1.73-.17-2.5-.51s-1.43-.81-1.99-1.41c-.56-.6-1-1.29-1.31-2.07s-.47-1.62-.47-2.51c0-1.16.27-2.22.8-3.19.54-.97,1.28-1.74,2.22-2.32.94-.58,2.02-.87,3.22-.87s2.31.29,3.23.88,1.64,1.36,2.17,2.32c.53.96.79,2.01.79,3.16v.37c0,.12,0,.21-.02.27h-10.7c.08.89.33,1.68.76,2.38.42.69.98,1.24,1.66,1.65s1.42.61,2.22.61,1.59-.21,2.32-.62,1.24-.96,1.52-1.63l1.42.38c-.26.59-.65,1.13-1.18,1.61s-1.15.85-1.86,1.12c-.71.26-1.48.4-2.29.4ZM106.3,130.12h9.24c-.06-.9-.31-1.69-.73-2.38-.42-.68-.98-1.22-1.66-1.6s-1.43-.58-2.24-.58-1.56.19-2.23.58c-.67.39-1.22.93-1.64,1.61-.42.69-.67,1.48-.73,2.36Z"/><path class="cls-3" d="M127.73,122.99v13.94h-1.68v-17.04h1.39l11.18,14.21v-14.18h1.68v17.02h-1.56l-11.02-13.94Z"/><path class="cls-3" d="M144.58,136.93v-17.04h1.68v9.9l9.38-9.93h1.85l-6.96,7.5,7.32,9.57h-1.9l-6.5-8.56-3.19,3.32v5.24h-1.68Z"/><path class="cls-3" d="M171.63,137.17c-.98,0-1.88-.25-2.71-.76-.83-.5-1.48-1.14-1.94-1.91v2.42h-1.46v-17.52h1.63v7.7c.56-.85,1.23-1.53,2.02-2.05.78-.52,1.7-.78,2.74-.78.88,0,1.67.18,2.36.55.7.37,1.29.86,1.79,1.47.5.61.87,1.3,1.13,2.08.26.77.38,1.56.38,2.37,0,.88-.15,1.69-.44,2.46s-.72,1.44-1.26,2.04-1.17,1.07-1.88,1.41c-.71.34-1.49.51-2.34.51ZM171.24,135.73c.67,0,1.3-.13,1.87-.4.58-.27,1.07-.64,1.49-1.12s.74-1.01.96-1.61.34-1.21.34-1.85c0-.87-.19-1.7-.56-2.47-.38-.77-.9-1.39-1.56-1.86s-1.44-.7-2.34-.7c-.64,0-1.24.14-1.79.43-.55.29-1.04.66-1.46,1.13-.42.47-.77.98-1.04,1.54v3.86c.06.43.23.83.5,1.2.27.37.61.69,1.02.96.41.27.84.48,1.28.64.45.16.88.24,1.3.24Z"/><path class="cls-3" d="M185.71,137.17c-.9,0-1.73-.17-2.5-.51s-1.43-.81-1.99-1.41c-.56-.6-1-1.29-1.31-2.07s-.47-1.62-.47-2.51c0-1.16.27-2.22.8-3.19.54-.97,1.28-1.74,2.22-2.32.94-.58,2.02-.87,3.22-.87s2.31.29,3.23.88,1.64,1.36,2.17,2.32c.53.96.79,2.01.79,3.16v.37c0,.12,0,.21-.02.27h-10.7c.08.89.33,1.68.76,2.38.42.69.98,1.24,1.66,1.65s1.42.61,2.22.61,1.59-.21,2.32-.62,1.24-.96,1.52-1.63l1.42.38c-.26.59-.65,1.13-1.18,1.61s-1.15.85-1.86,1.12c-.71.26-1.48.4-2.29.4ZM181.11,130.12h9.24c-.06-.9-.31-1.69-.73-2.38-.42-.68-.98-1.22-1.66-1.6s-1.43-.58-2.24-.58-1.56.19-2.23.58c-.67.39-1.22.93-1.64,1.61-.42.69-.67,1.48-.73,2.36Z"/><path class="cls-3" d="M198.51,137.17c-1.02,0-1.98-.17-2.86-.5s-1.64-.85-2.28-1.54l.67-1.15c.7.66,1.41,1.13,2.12,1.43.71.3,1.47.44,2.27.44.98,0,1.77-.19,2.38-.58.61-.39.91-.95.91-1.68,0-.49-.15-.87-.44-1.13-.3-.26-.72-.48-1.27-.64-.55-.17-1.21-.35-1.98-.54-.86-.24-1.59-.49-2.17-.75-.58-.26-1.02-.6-1.32-1-.3-.41-.44-.93-.44-1.59,0-.81.2-1.48.61-2.02.41-.53.97-.94,1.68-1.22.71-.28,1.51-.42,2.39-.42.96,0,1.81.15,2.54.46.74.3,1.34.73,1.8,1.27l-.79,1.1c-.45-.51-.98-.89-1.6-1.14-.62-.25-1.3-.37-2.05-.37-.51,0-1,.07-1.46.2-.46.13-.84.36-1.14.67-.3.31-.44.74-.44,1.28,0,.45.11.79.34,1.04.22.25.56.45,1.01.62.45.17,1,.35,1.66.54.94.25,1.77.51,2.47.78.7.26,1.25.6,1.63,1.01.38.41.58.99.58,1.74,0,1.16-.44,2.07-1.32,2.72s-2.04.98-3.48.98Z"/><path class="cls-3" d="M211.32,137.17c-.9,0-1.72-.17-2.48-.51-.76-.34-1.42-.81-1.97-1.41-.55-.6-.98-1.28-1.28-2.05-.3-.77-.46-1.59-.46-2.45s.15-1.7.46-2.48c.3-.78.74-1.47,1.3-2.06s1.22-1.07,1.98-1.41c.76-.34,1.58-.51,2.46-.51s1.74.17,2.5.51c.75.34,1.41.81,1.97,1.41s.99,1.28,1.3,2.06c.3.78.46,1.61.46,2.48s-.15,1.67-.46,2.45c-.3.77-.73,1.46-1.28,2.05-.55.6-1.21,1.07-1.97,1.41-.76.34-1.6.51-2.51.51ZM206.16,136.96l1.54-1.96.98.6-1.08,1.36h-1.44ZM211.32,135.73c.83,0,1.59-.22,2.28-.67.69-.44,1.24-1.05,1.66-1.82s.62-1.61.62-2.51-.21-1.76-.62-2.53-.97-1.37-1.66-1.81c-.69-.44-1.45-.67-2.28-.67s-1.59.23-2.27.68c-.68.45-1.23,1.06-1.64,1.82-.42.76-.62,1.61-.62,2.55s.2,1.76.61,2.51c.41.75.96,1.35,1.64,1.79.69.44,1.45.65,2.28.65ZM208.83,135.48l-.96-.55,6-9.02,1.06.48-6.1,9.09ZM215.09,126.29l-1.06-.48.98-1.36h1.49l-1.42,1.84Z"/><path class="cls-3" d="M225.29,137.17c-.85,0-1.63-.18-2.35-.53-.72-.35-1.34-.83-1.86-1.43-.52-.6-.92-1.28-1.21-2.05s-.43-1.56-.43-2.38c0-.88.14-1.71.42-2.48.28-.78.68-1.47,1.2-2.08.52-.61,1.13-1.08,1.84-1.43s1.49-.52,2.35-.52c1.07,0,2,.27,2.8.8.79.54,1.46,1.2,2,2v-2.62h1.46v12.52c0,1.15-.28,2.12-.83,2.91-.55.79-1.3,1.38-2.23,1.78-.94.4-1.96.6-3.06.6-1.42,0-2.58-.26-3.46-.77-.88-.51-1.6-1.2-2.16-2.06l1.01-.79c.5.78,1.16,1.37,1.98,1.75.82.38,1.7.58,2.63.58.82,0,1.56-.15,2.24-.44s1.22-.73,1.63-1.31c.41-.58.61-1.31.61-2.19v-2.47c-.48.78-1.14,1.41-1.97,1.88-.83.47-1.7.71-2.62.71ZM225.75,135.8c.5,0,.97-.09,1.43-.26.46-.18.88-.41,1.26-.71.38-.3.7-.63.96-1,.26-.37.42-.74.48-1.13v-3.86c-.24-.61-.58-1.15-1.03-1.62-.45-.47-.96-.84-1.52-1.1-.57-.26-1.16-.4-1.76-.4-.7,0-1.33.15-1.88.44-.55.3-1.02.69-1.39,1.18-.38.49-.67,1.04-.88,1.64-.21.61-.31,1.22-.31,1.82,0,.67.12,1.31.36,1.91.24.6.57,1.14,1,1.61.42.47.92.84,1.49,1.09.57.26,1.17.38,1.81.38Z"/><path class="cls-3" d="M240.51,137.17c-.9,0-1.73-.17-2.5-.51s-1.43-.81-1.99-1.41c-.56-.6-1-1.29-1.31-2.07s-.47-1.62-.47-2.51c0-1.16.27-2.22.8-3.19.54-.97,1.28-1.74,2.22-2.32.94-.58,2.02-.87,3.22-.87s2.31.29,3.23.88,1.64,1.36,2.17,2.32c.53.96.79,2.01.79,3.16v.37c0,.12,0,.21-.02.27h-10.7c.08.89.33,1.68.76,2.38.42.69.98,1.24,1.66,1.65s1.42.61,2.22.61,1.59-.21,2.32-.62,1.24-.96,1.52-1.63l1.42.38c-.26.59-.65,1.13-1.18,1.61s-1.15.85-1.86,1.12c-.71.26-1.48.4-2.29.4ZM235.9,130.12h9.24c-.06-.9-.31-1.69-.73-2.38-.42-.68-.98-1.22-1.66-1.6s-1.43-.58-2.24-.58-1.56.19-2.23.58c-.67.39-1.22.93-1.64,1.61-.42.69-.67,1.48-.73,2.36Z"/><path class="cls-3" d="M255.43,125.87c-1.09.03-2.04.34-2.87.91-.82.58-1.4,1.37-1.74,2.38v7.78h-1.63v-12.46h1.54v2.95c.43-.88,1-1.59,1.72-2.14.71-.54,1.47-.85,2.27-.91.16-.02.3-.02.42-.02s.22,0,.3.02v1.49Z"/><path class="cls-3" d="M116.31,164.24v1.49h-11.45v-17.04h11.23v1.49h-9.55v6.14h8.33v1.42h-8.33v6.5h9.77Z"/><path class="cls-3" d="M119.21,148.21h1.63v14.77c0,.63.11,1.04.34,1.23.22.19.5.29.82.29.29,0,.58-.03.86-.1s.54-.13.74-.19l.29,1.32c-.3.13-.68.23-1.12.31-.44.08-.82.12-1.14.12-.74,0-1.32-.22-1.76-.65-.44-.43-.66-1.03-.66-1.79v-15.32Z"/><path class="cls-3" d="M125.67,150.61v-2.4h1.63v2.4h-1.63ZM125.67,165.73v-12.5h1.63v12.5h-1.63Z"/><path class="cls-3" d="M129.89,162.16c0-.78.22-1.45.67-2.02.45-.56,1.07-1,1.86-1.31s1.71-.47,2.75-.47c.61,0,1.24.05,1.9.14.66.1,1.24.24,1.75.43v-1.05c0-1.05-.31-1.88-.94-2.5s-1.49-.93-2.59-.93c-.67,0-1.33.12-1.98.37-.65.25-1.32.61-2.03,1.09l-.62-1.15c.82-.56,1.62-.98,2.4-1.26.78-.28,1.58-.42,2.4-.42,1.54,0,2.75.44,3.65,1.31s1.34,2.08,1.34,3.63v5.75c0,.22.05.39.14.49.1.1.25.16.46.18v1.3c-.18.02-.33.03-.46.05-.13.02-.22.02-.29,0-.4-.02-.7-.14-.91-.38-.21-.24-.32-.5-.34-.77l-.02-.91c-.56.72-1.29,1.28-2.18,1.67-.9.39-1.81.59-2.74.59-.8,0-1.52-.17-2.17-.51-.65-.34-1.15-.8-1.51-1.38-.36-.58-.54-1.22-.54-1.92ZM138.27,163.11c.18-.22.31-.44.41-.64.1-.21.14-.39.14-.55v-1.81c-.54-.21-1.11-.36-1.69-.48-.58-.11-1.17-.17-1.76-.17-1.17,0-2.11.23-2.83.69-.72.46-1.08,1.09-1.08,1.88,0,.46.12.89.36,1.3.24.4.59.74,1.06,1,.46.26,1.01.39,1.63.39.78,0,1.52-.15,2.2-.45.68-.3,1.2-.69,1.57-1.17Z"/><path class="cls-3" d="M148.08,165.97c-1.02,0-1.98-.17-2.86-.5s-1.64-.85-2.28-1.54l.67-1.15c.7.66,1.41,1.13,2.12,1.43.71.3,1.47.44,2.27.44.98,0,1.77-.19,2.38-.58.61-.39.91-.95.91-1.68,0-.49-.15-.87-.44-1.13-.3-.26-.72-.48-1.27-.64-.55-.17-1.21-.35-1.98-.54-.86-.24-1.59-.49-2.17-.75-.58-.26-1.02-.6-1.32-1-.3-.41-.44-.93-.44-1.59,0-.81.2-1.48.61-2.02.41-.53.97-.94,1.68-1.22.71-.28,1.51-.42,2.39-.42.96,0,1.81.15,2.54.46.74.3,1.34.73,1.8,1.27l-.79,1.1c-.45-.51-.98-.89-1.6-1.14-.62-.25-1.3-.37-2.05-.37-.51,0-1,.07-1.46.2-.46.13-.84.36-1.14.67-.3.31-.44.74-.44,1.28,0,.45.11.79.34,1.04.22.25.56.45,1.01.62.45.17,1,.35,1.66.54.94.25,1.77.51,2.47.78.7.26,1.25.6,1.63,1.01.38.41.58.99.58,1.74,0,1.16-.44,2.07-1.32,2.72s-2.04.98-3.48.98Z"/><path class="cls-3" d="M166.18,169.31c-1.2,0-2.29-.3-3.26-.9-.98-.6-1.7-1.39-2.18-2.36l1.08-.82c.45.78,1.06,1.42,1.84,1.9s1.63.72,2.56.72c.8,0,1.52-.18,2.15-.53.63-.35,1.14-.84,1.51-1.46.38-.62.56-1.34.56-2.16s-.18-1.48-.54-2.08c-.36-.6-.85-1.07-1.46-1.4-.62-.34-1.31-.5-2.08-.5s-1.44.16-2.11.49c-.67.33-1.22.8-1.63,1.43h-1.51l1.9-9.6h8.23v1.51h-7.01l-1.18,6.12c.42-.45.93-.8,1.54-1.04.61-.25,1.26-.37,1.97-.37,1.04,0,1.98.23,2.82.7.84.46,1.51,1.1,2,1.92.5.82.74,1.75.74,2.81,0,1.12-.27,2.1-.8,2.95-.54.85-1.25,1.51-2.15,1.98-.9.47-1.89.71-2.98.71Z"/><path class="cls-3" d="M179.88,162.16c0-.78.22-1.45.67-2.02.45-.56,1.07-1,1.86-1.31s1.71-.47,2.75-.47c.61,0,1.24.05,1.9.14.66.1,1.24.24,1.75.43v-1.05c0-1.05-.31-1.88-.94-2.5s-1.49-.93-2.59-.93c-.67,0-1.33.12-1.98.37-.65.25-1.32.61-2.03,1.09l-.62-1.15c.82-.56,1.62-.98,2.4-1.26.78-.28,1.58-.42,2.4-.42,1.54,0,2.75.44,3.65,1.31s1.34,2.08,1.34,3.63v5.75c0,.22.05.39.14.49.1.1.25.16.46.18v1.3c-.18.02-.33.03-.46.05-.13.02-.22.02-.29,0-.4-.02-.7-.14-.91-.38-.21-.24-.32-.5-.34-.77l-.02-.91c-.56.72-1.29,1.28-2.18,1.67-.9.39-1.81.59-2.74.59-.8,0-1.52-.17-2.17-.51-.65-.34-1.15-.8-1.51-1.38-.36-.58-.54-1.22-.54-1.92ZM188.26,163.11c.18-.22.31-.44.41-.64.1-.21.14-.39.14-.55v-1.81c-.54-.21-1.11-.36-1.69-.48-.58-.11-1.17-.17-1.76-.17-1.17,0-2.11.23-2.83.69-.72.46-1.08,1.09-1.08,1.88,0,.46.12.89.36,1.3.24.4.59.74,1.06,1,.46.26,1.01.39,1.63.39.78,0,1.52-.15,2.2-.45.68-.3,1.2-.69,1.57-1.17ZM183.27,149.68c0-.61.2-1.1.61-1.48.41-.38.92-.56,1.52-.56s1.14.19,1.54.56c.4.38.6.87.6,1.48,0,.58-.2,1.05-.6,1.42-.4.37-.91.55-1.54.55s-1.12-.18-1.52-.55c-.41-.37-.61-.84-.61-1.42ZM185.4,148.48c-.32,0-.6.1-.83.31s-.35.5-.35.86c0,.34.11.62.34.84.22.22.5.34.84.34.3,0,.58-.11.83-.32.25-.22.37-.5.37-.85s-.12-.66-.35-.86c-.23-.21-.52-.31-.85-.31Z"/><path class="cls-3" d="M200.21,154.67c-1.09.03-2.04.34-2.87.91-.82.58-1.4,1.37-1.74,2.38v7.78h-1.63v-12.46h1.54v2.95c.43-.88,1-1.59,1.72-2.14.71-.54,1.47-.85,2.27-.91.16-.02.3-.02.42-.02s.22,0,.3.02v1.49Z"/><path class="cls-3" d="M202.66,167.68l.41-2.02h-.55v-2.28h1.58v2.28l-.6,2.02h-.84Z"/><path class="cls-3" d="M62.74,194.77c-1.04,0-1.97-.27-2.8-.81-.82-.54-1.48-1.21-1.96-2v7.69h-1.63v-17.57h1.46v2.43c.5-.78,1.16-1.41,1.99-1.9.83-.49,1.72-.73,2.66-.73.86,0,1.66.18,2.38.54.72.36,1.34.84,1.87,1.44s.94,1.29,1.24,2.06c.3.77.44,1.57.44,2.4,0,1.16-.24,2.23-.71,3.21-.47.98-1.13,1.76-1.98,2.35-.85.59-1.84.88-2.98.88ZM62.28,193.33c.69,0,1.3-.14,1.85-.42.54-.28,1.01-.65,1.4-1.13.39-.48.69-1.01.9-1.61.21-.6.31-1.21.31-1.85,0-.67-.12-1.3-.35-1.91-.23-.6-.56-1.14-1-1.6-.43-.46-.93-.83-1.49-1.1s-1.17-.4-1.82-.4c-.42,0-.85.08-1.3.24-.45.16-.88.38-1.28.68-.41.29-.75.62-1.02.99-.27.37-.44.75-.5,1.17v3.82c.26.59.6,1.12,1.03,1.58.43.47.93.84,1.5,1.12.57.28,1.16.42,1.76.42Z"/><path class="cls-3" d="M70.16,190.96c0-.78.22-1.45.67-2.02.45-.56,1.07-1,1.86-1.31s1.71-.47,2.75-.47c.61,0,1.24.05,1.9.14.66.1,1.24.24,1.75.43v-1.05c0-1.05-.31-1.88-.94-2.5s-1.49-.93-2.59-.93c-.67,0-1.33.12-1.98.37-.65.25-1.32.61-2.03,1.09l-.62-1.15c.82-.56,1.62-.98,2.4-1.26.78-.28,1.58-.42,2.4-.42,1.54,0,2.75.44,3.65,1.31s1.34,2.08,1.34,3.63v5.75c0,.22.05.39.14.49.1.1.25.16.46.18v1.3c-.18.02-.33.03-.46.05-.13.02-.22.02-.29,0-.4-.02-.7-.14-.91-.38-.21-.24-.32-.5-.34-.77l-.02-.91c-.56.72-1.29,1.28-2.18,1.67-.9.39-1.81.59-2.74.59-.8,0-1.52-.17-2.17-.51-.65-.34-1.15-.8-1.51-1.38-.36-.58-.54-1.22-.54-1.92ZM78.53,191.91c.18-.22.31-.44.41-.64.1-.21.14-.39.14-.55v-1.81c-.54-.21-1.11-.36-1.69-.48-.58-.11-1.17-.17-1.76-.17-1.17,0-2.11.23-2.83.69-.72.46-1.08,1.09-1.08,1.88,0,.46.12.89.36,1.3.24.4.59.74,1.06,1,.46.26,1.01.39,1.63.39.78,0,1.52-.15,2.2-.45.68-.3,1.2-.69,1.57-1.17ZM73.54,178.48c0-.61.2-1.1.61-1.48.41-.38.92-.56,1.52-.56s1.14.19,1.54.56c.4.38.6.87.6,1.48,0,.58-.2,1.05-.6,1.42-.4.37-.91.55-1.54.55s-1.12-.18-1.52-.55c-.41-.37-.61-.84-.61-1.42ZM75.68,177.28c-.32,0-.6.1-.83.31s-.35.5-.35.86c0,.34.11.62.34.84.22.22.5.34.84.34.3,0,.58-.11.83-.32.25-.22.37-.5.37-.85s-.12-.66-.35-.86c-.23-.21-.52-.31-.85-.31Z"/><path class="cls-3" d="M104.14,177.49v17.04h-1.66v-7.97h-10.1v7.97h-1.68v-17.04h1.68v7.58h10.1v-7.58h1.66Z"/><path class="cls-3" d="M113.48,194.77c-.9,0-1.73-.17-2.5-.51s-1.43-.81-1.99-1.41c-.56-.6-1-1.29-1.31-2.07s-.47-1.62-.47-2.51c0-1.16.27-2.22.8-3.19.54-.97,1.28-1.74,2.22-2.32.94-.58,2.02-.87,3.22-.87s2.31.29,3.23.88,1.64,1.36,2.17,2.32c.53.96.79,2.01.79,3.16v.37c0,.12,0,.21-.02.27h-10.7c.08.89.33,1.68.76,2.38.42.69.98,1.24,1.66,1.65s1.42.61,2.22.61,1.59-.21,2.32-.62,1.24-.96,1.52-1.63l1.42.38c-.26.59-.65,1.13-1.18,1.61s-1.15.85-1.86,1.12c-.71.26-1.48.4-2.29.4ZM108.87,187.72h9.24c-.06-.9-.31-1.69-.73-2.38-.42-.68-.98-1.22-1.66-1.6s-1.43-.58-2.24-.58-1.56.19-2.23.58c-.67.39-1.22.93-1.64,1.61-.42.69-.67,1.48-.73,2.36Z"/><path class="cls-3" d="M128.4,183.47c-1.09.03-2.04.34-2.87.91-.82.58-1.4,1.37-1.74,2.38v7.78h-1.63v-12.46h1.54v2.95c.43-.88,1-1.59,1.72-2.14.71-.54,1.47-.85,2.27-.91.16-.02.3-.02.42-.02s.22,0,.3.02v1.49Z"/><path class="cls-3" d="M130.66,177.01h1.63v14.77c0,.63.11,1.04.34,1.23.22.19.5.29.82.29.29,0,.58-.03.86-.1s.54-.13.74-.19l.29,1.32c-.3.13-.68.23-1.12.31-.44.08-.82.12-1.14.12-.74,0-1.32-.22-1.76-.65-.44-.43-.66-1.03-.66-1.79v-15.32Z"/><path class="cls-3" d="M142.52,194.77c-.9,0-1.73-.17-2.5-.51s-1.43-.81-1.99-1.41c-.56-.6-1-1.29-1.31-2.07s-.47-1.62-.47-2.51c0-1.16.27-2.22.8-3.19.54-.97,1.28-1.74,2.22-2.32.94-.58,2.02-.87,3.22-.87s2.31.29,3.23.88,1.64,1.36,2.17,2.32c.53.96.79,2.01.79,3.16v.37c0,.12,0,.21-.02.27h-10.7c.08.89.33,1.68.76,2.38.42.69.98,1.24,1.66,1.65s1.42.61,2.22.61,1.59-.21,2.32-.62,1.24-.96,1.52-1.63l1.42.38c-.26.59-.65,1.13-1.18,1.61s-1.15.85-1.86,1.12c-.71.26-1.48.4-2.29.4ZM137.91,187.72h9.24c-.06-.9-.31-1.69-.73-2.38-.42-.68-.98-1.22-1.66-1.6s-1.43-.58-2.24-.58-1.56.19-2.23.58c-.67.39-1.22.93-1.64,1.61-.42.69-.67,1.48-.73,2.36Z"/><path class="cls-3" d="M154.59,194.53l-5.06-12.46h1.7l4.27,10.83,4.3-10.83h1.61l-5.06,12.46h-1.75Z"/><path class="cls-3" d="M179.64,194.53h-1.63v-6.94c0-1.4-.25-2.45-.74-3.16-.5-.71-1.21-1.06-2.14-1.06-.61,0-1.21.16-1.81.46-.6.31-1.13.73-1.58,1.26-.46.53-.78,1.14-.97,1.82v7.61h-1.63v-17.52h1.63v7.9c.5-.92,1.19-1.66,2.08-2.21.89-.55,1.84-.82,2.84-.82.72,0,1.33.13,1.84.38s.91.62,1.22,1.11.54,1.05.68,1.69c.14.64.22,1.37.22,2.18v7.28Z"/><path class="cls-3" d="M188.47,194.77c-.91,0-1.75-.17-2.51-.51-.76-.34-1.42-.81-1.97-1.41-.55-.6-.98-1.28-1.28-2.05-.3-.77-.46-1.59-.46-2.45s.15-1.72.46-2.49c.3-.77.74-1.46,1.3-2.05s1.22-1.07,1.98-1.41c.76-.34,1.59-.51,2.48-.51s1.72.17,2.47.51c.75.34,1.41.81,1.97,1.41s.99,1.28,1.3,2.05c.3.77.46,1.6.46,2.49s-.15,1.67-.46,2.45c-.3.77-.73,1.46-1.28,2.05-.55.6-1.21,1.07-1.97,1.41-.76.34-1.59.51-2.48.51ZM183.91,188.38c0,.92.2,1.76.61,2.51.41.75.96,1.35,1.64,1.79.69.44,1.45.65,2.28.65s1.59-.22,2.28-.67c.69-.44,1.24-1.05,1.66-1.82s.62-1.62.62-2.54-.21-1.74-.62-2.5-.97-1.37-1.66-1.81c-.69-.44-1.45-.67-2.28-.67s-1.59.23-2.28.69c-.69.46-1.24,1.07-1.64,1.82-.41.75-.61,1.6-.61,2.54Z"/><path class="cls-3" d="M201.51,194.77c-1.02,0-1.98-.17-2.86-.5s-1.64-.85-2.28-1.54l.67-1.15c.7.66,1.41,1.13,2.12,1.43.71.3,1.47.44,2.27.44.98,0,1.77-.19,2.38-.58.61-.39.91-.95.91-1.68,0-.49-.15-.87-.44-1.13-.3-.26-.72-.48-1.27-.64-.55-.17-1.21-.35-1.98-.54-.86-.24-1.59-.49-2.17-.75-.58-.26-1.02-.6-1.32-1-.3-.41-.44-.93-.44-1.59,0-.81.2-1.48.61-2.02.41-.53.97-.94,1.68-1.22.71-.28,1.51-.42,2.39-.42.96,0,1.81.15,2.54.46.74.3,1.34.73,1.8,1.27l-.79,1.1c-.45-.51-.98-.89-1.6-1.14-.62-.25-1.3-.37-2.05-.37-.51,0-1,.07-1.46.2-.46.13-.84.36-1.14.67-.3.31-.44.74-.44,1.28,0,.45.11.79.34,1.04.22.25.56.45,1.01.62.45.17,1,.35,1.66.54.94.25,1.77.51,2.47.78.7.26,1.25.6,1.63,1.01.38.41.58.99.58,1.74,0,1.16-.44,2.07-1.32,2.72s-2.04.98-3.48.98Z"/><path class="cls-3" d="M215.38,194.77c-1.04,0-1.97-.27-2.8-.81-.82-.54-1.48-1.21-1.96-2v7.69h-1.63v-17.57h1.46v2.43c.5-.78,1.16-1.41,1.99-1.9.83-.49,1.72-.73,2.66-.73.86,0,1.66.18,2.38.54.72.36,1.34.84,1.87,1.44s.94,1.29,1.24,2.06c.3.77.44,1.57.44,2.4,0,1.16-.24,2.23-.71,3.21-.47.98-1.13,1.76-1.98,2.35-.85.59-1.84.88-2.98.88ZM214.92,193.33c.69,0,1.3-.14,1.85-.42.54-.28,1.01-.65,1.4-1.13.39-.48.69-1.01.9-1.61.21-.6.31-1.21.31-1.85,0-.67-.12-1.3-.35-1.91-.23-.6-.56-1.14-1-1.6-.43-.46-.93-.83-1.49-1.1s-1.17-.4-1.82-.4c-.42,0-.85.08-1.3.24-.45.16-.88.38-1.28.68-.41.29-.75.62-1.02.99-.27.37-.44.75-.5,1.17v3.82c.26.59.6,1.12,1.03,1.58.43.47.93.84,1.5,1.12.57.28,1.16.42,1.76.42Z"/><path class="cls-3" d="M223.8,179.41v-2.4h1.63v2.4h-1.63ZM223.8,194.53v-12.5h1.63v12.5h-1.63Z"/><path class="cls-3" d="M235.03,194.03c-.13.05-.33.14-.6.26-.27.13-.6.24-.98.34-.38.1-.8.14-1.25.14s-.9-.09-1.31-.27c-.41-.18-.73-.45-.97-.81-.24-.36-.36-.81-.36-1.34v-8.99h-1.73v-1.3h1.73v-4.22h1.63v4.22h2.88v1.3h-2.88v8.54c.03.45.2.79.49,1.01.3.23.64.34,1.02.34.45,0,.86-.08,1.22-.23.37-.15.59-.26.67-.32l.43,1.32Z"/><path class="cls-3" d="M236.07,190.96c0-.78.22-1.45.67-2.02.45-.56,1.07-1,1.86-1.31s1.71-.47,2.75-.47c.61,0,1.24.05,1.9.14.66.1,1.24.24,1.75.43v-1.05c0-1.05-.31-1.88-.94-2.5s-1.49-.93-2.59-.93c-.67,0-1.33.12-1.98.37-.65.25-1.32.61-2.03,1.09l-.62-1.15c.82-.56,1.62-.98,2.4-1.26.78-.28,1.58-.42,2.4-.42,1.54,0,2.75.44,3.65,1.31s1.34,2.08,1.34,3.63v5.75c0,.22.05.39.14.49.1.1.25.16.46.18v1.3c-.18.02-.33.03-.46.05-.13.02-.22.02-.29,0-.4-.02-.7-.14-.91-.38-.21-.24-.32-.5-.34-.77l-.02-.91c-.56.72-1.29,1.28-2.18,1.67-.9.39-1.81.59-2.74.59-.8,0-1.52-.17-2.17-.51-.65-.34-1.15-.8-1.51-1.38-.36-.58-.54-1.22-.54-1.92ZM244.44,191.91c.18-.22.31-.44.41-.64.1-.21.14-.39.14-.55v-1.81c-.54-.21-1.11-.36-1.69-.48-.58-.11-1.17-.17-1.76-.17-1.17,0-2.11.23-2.83.69-.72.46-1.08,1.09-1.08,1.88,0,.46.12.89.36,1.3.24.4.59.74,1.06,1,.46.26,1.01.39,1.63.39.78,0,1.52-.15,2.2-.45.68-.3,1.2-.69,1.57-1.17Z"/><path class="cls-3" d="M250.23,177.01h1.63v14.77c0,.63.11,1.04.34,1.23.22.19.5.29.82.29.29,0,.58-.03.86-.1s.54-.13.74-.19l.29,1.32c-.3.13-.68.23-1.12.31-.44.08-.82.12-1.14.12-.74,0-1.32-.22-1.76-.65-.44-.43-.66-1.03-.66-1.79v-15.32Z"/><g class="cls-1"><image class="cls-10" width="230" height="90" transform="translate(23.61 11.93)" xlink:href="galleri1_text-1.png"/><g class="cls-7"><path class="cls-4" d="M252.51,76.22l-4.8-63.37c-.02-.22-.21-.39-.43-.38-3.68.21-31.72,1.81-34.16,2.3-2.62.52-2.72.08-4.8.42-2.08.34-3.87.62-6.09.67-2.22.06-11.61,1.04-14.39,1.15-2.78.11-12.29,1.04-14.61,1.18-2.33.14-12.12,1.12-15.06,1.29-2.95.17-19.33,1.09-23.84,1.77-4.52.67-18.68,1.85-22.19,1.99-3.51.14-26,2.33-28.56,2.52-2.55.2-3.25-.03-6,.7-2.75.73-14,2.22-16.97,3.06-2.97.84-21.01,4.6-25.11,5.41-3.55.7-9.79,2.08-11.4,2.44-.22.05-.35.26-.31.47.53,2.75,3.72,19.14,4.08,19.78.39.7,3,14.36,3.51,15.79.5,1.43,3.48,15.96,3.81,17.53.29,1.37,1.75,7.87,2.13,9.54.05.22.26.35.48.31,3.05-.64,22.92-4.83,27.01-5.89,4.43-1.15,20.2-4.32,24.57-5.27,4.38-.95,14.5-3.48,16.77-3.93,2.27-.45,2.95-.53,3.45-.79.5-.25.7-.56,1.26-.48.56.08,1.88.56,2.78.65.9.08,2.72.14,5.41.22,2.69.08,8.33,0,11.61.08,3.28.08,6.76-.06,8.72-.03,1.96.03,6.96.03,10.32-.36,3.37-.39,6.31-.28,11.28-.9,4.96-.62,8.39-.73,11.28-1.04,2.89-.31,11.92-.7,15.74-1.15,3.81-.45,8.95-.73,11.98-1.01,3.03-.28,4.15-.25,5.41-.45,1.26-.2,1.49-.5,3.67-.73,2.19-.22,7.18-.45,13.63-1.04s10.86-.76,13.04-.95c2.19-.2,4.6-.08,8.36-.45,3.09-.3,6.8-.56,8.02-.64.23-.02.39-.21.38-.44Z"/><g class="cls-8"><g class="cls-6"><image width="67" height="107" transform="translate(100.61 -7.07)" xlink:href="galleri1_text-2.png"/><image width="64" height="45" transform="translate(63.61 43.93)" xlink:href="galleri1_text-3.png"/><image width="82" height="20" transform="translate(143.61 46.93)" xlink:href="galleri1_text-4.png"/></g></g></g></g></g></g></svg>