<?xml version="1.0" encoding="UTF-8"?><svg xmlns="http://www.w3.org/2000/svg" width="330.64" height="321.8" xmlns:xlink="http://www.w3.org/1999/xlink" viewBox="0 0 330.64 321.8"><defs><style>.cls-1{clip-path:url(#clippath);}.cls-2{fill:none;}.cls-2,.cls-3,.cls-4,.cls-5{stroke-width:0px;}.cls-3{fill:#283885;}.cls-6{opacity:.8;}.cls-7{opacity:.75;}.cls-8{isolation:isolate;}.cls-9{mix-blend-mode:multiply;opacity:.45;}.cls-4{fill:#e7d16e;opacity:.9;}.cls-5{fill:#fffbef;}</style><clipPath id="clippath"><path class="cls-2" d="M259.04,80.2l-4.25-56.13c-.01-.2-.18-.34-.38-.33-3.26.18-28.09,1.6-30.26,2.03-2.32.46-2.41.07-4.25.37s-3.43.55-5.39.6-10.29.92-12.75,1.02c-2.46.1-10.88.92-12.94,1.04s-10.73.99-13.34,1.14c-2.61.15-17.12.97-21.12,1.57-4,.6-16.55,1.64-19.65,1.76-3.11.12-23.03,2.06-25.29,2.24-2.26.17-2.88-.02-5.32.62-2.43.65-12.4,1.96-15.03,2.71-2.63.75-18.61,4.07-22.24,4.8-3.14.62-8.67,1.84-10.09,2.16-.19.04-.31.23-.27.42.47,2.43,3.29,16.95,3.61,17.52.35.62,2.66,12.72,3.11,13.99.45,1.27,3.08,14.14,3.38,15.53.26,1.21,1.55,6.97,1.89,8.45.04.19.23.31.42.27,2.7-.57,20.3-4.28,23.93-5.22,3.93-1.02,17.89-3.83,21.76-4.67,3.88-.84,12.85-3.08,14.86-3.48s2.61-.47,3.06-.7c.45-.22.62-.5,1.12-.42.5.07,1.66.5,2.46.57.79.07,2.41.12,4.79.2,2.39.07,7.38,0,10.29.07,2.91.07,5.99-.05,7.73-.02s6.16.02,9.14-.32,5.59-.25,9.99-.79c4.4-.55,7.43-.65,9.99-.92,2.56-.27,10.56-.62,13.94-1.02s7.93-.65,10.61-.89c2.68-.25,3.68-.22,4.8-.4s1.32-.45,3.25-.65,6.36-.4,12.08-.92c5.71-.52,9.62-.67,11.55-.84,1.94-.17,4.07-.07,7.4-.4,2.74-.27,6.02-.49,7.1-.56.2-.01.35-.19.33-.39Z"/></clipPath></defs><g class="cls-8"><g id="Lag_1"><rect class="cls-5" x="23.69" y="57.88" width="268.99" height="235.38" rx="29.83" ry="29.83"/><path class="cls-3" d="M57.86,138.47v-17.04h11.18v1.49h-9.5v6.26h8.02v1.39h-8.02v7.9h-1.68Z"/><path class="cls-3" d="M69.1,134.89c0-.78.22-1.45.67-2.02.45-.56,1.07-1,1.86-1.31s1.71-.47,2.75-.47c.61,0,1.24.05,1.9.14.66.1,1.24.24,1.75.43v-1.05c0-1.05-.31-1.88-.94-2.5s-1.49-.93-2.59-.93c-.67,0-1.33.12-1.98.37-.65.25-1.32.61-2.03,1.09l-.62-1.15c.82-.56,1.62-.98,2.4-1.26.78-.28,1.58-.42,2.4-.42,1.54,0,2.75.44,3.65,1.31.9.87,1.34,2.08,1.34,3.63v5.75c0,.22.05.39.14.49.1.1.25.16.46.18v1.3c-.18.02-.33.03-.46.05s-.22.02-.29,0c-.4-.02-.7-.14-.91-.38-.21-.24-.32-.5-.34-.77l-.02-.91c-.56.72-1.29,1.28-2.18,1.67-.9.39-1.81.59-2.74.59-.8,0-1.52-.17-2.17-.51-.65-.34-1.15-.8-1.51-1.38-.36-.58-.54-1.22-.54-1.92ZM77.47,135.84c.18-.22.31-.44.41-.64.1-.21.14-.39.14-.55v-1.81c-.54-.21-1.11-.36-1.69-.48-.58-.11-1.17-.17-1.76-.17-1.17,0-2.11.23-2.83.69-.72.46-1.08,1.09-1.08,1.88,0,.46.12.89.36,1.3.24.4.59.74,1.06,1,.46.26,1.01.39,1.63.39.78,0,1.52-.15,2.2-.45.68-.3,1.2-.69,1.57-1.17Z"/><path class="cls-3" d="M83.26,120.95h1.63v14.77c0,.63.11,1.04.34,1.23.22.19.5.29.82.29.29,0,.58-.03.86-.1s.54-.13.74-.19l.29,1.32c-.3.13-.68.23-1.12.31-.44.08-.82.12-1.14.12-.74,0-1.32-.22-1.76-.65-.44-.43-.66-1.03-.66-1.79v-15.32Z"/><path class="cls-3" d="M95.83,138.71c-.98,0-1.88-.25-2.71-.76s-1.48-1.14-1.94-1.91v2.42h-1.46v-17.52h1.63v7.7c.56-.85,1.23-1.53,2.02-2.05.78-.52,1.7-.78,2.74-.78.88,0,1.67.18,2.36.55.7.37,1.29.86,1.79,1.47.5.61.87,1.3,1.13,2.08.26.77.38,1.56.38,2.37,0,.88-.15,1.69-.44,2.46s-.72,1.44-1.26,2.04-1.17,1.07-1.88,1.41c-.71.34-1.49.51-2.34.51ZM95.45,137.27c.67,0,1.3-.13,1.87-.4s1.07-.64,1.49-1.12.74-1.01.96-1.61c.22-.6.34-1.21.34-1.85,0-.87-.19-1.7-.56-2.47-.38-.77-.9-1.39-1.56-1.86s-1.44-.7-2.34-.7c-.64,0-1.24.14-1.79.43s-1.04.66-1.46,1.13c-.42.47-.77.98-1.04,1.54v3.86c.06.43.23.83.5,1.2.27.37.61.69,1.02.96s.84.48,1.28.64c.45.16.88.24,1.3.24Z"/><path class="cls-3" d="M109.92,138.71c-.9,0-1.73-.17-2.5-.51-.77-.34-1.43-.81-1.99-1.41-.56-.6-1-1.29-1.31-2.07-.31-.78-.47-1.62-.47-2.51,0-1.16.27-2.22.8-3.19.54-.97,1.28-1.74,2.22-2.32.94-.58,2.02-.87,3.22-.87s2.31.29,3.23.88,1.64,1.36,2.17,2.32c.53.96.79,2.01.79,3.16v.37c0,.12,0,.21-.02.27h-10.7c.08.89.33,1.68.76,2.38.42.69.98,1.24,1.66,1.65.68.41,1.42.61,2.22.61s1.59-.21,2.32-.62c.73-.42,1.24-.96,1.52-1.63l1.42.38c-.26.59-.65,1.13-1.18,1.61-.53.48-1.15.85-1.86,1.12-.71.26-1.48.4-2.29.4ZM105.31,131.65h9.24c-.06-.9-.31-1.69-.73-2.38s-.98-1.22-1.66-1.6c-.68-.39-1.43-.58-2.24-.58s-1.56.19-2.23.58-1.22.93-1.64,1.61c-.42.69-.67,1.48-.73,2.36Z"/><path class="cls-3" d="M118.68,120.95h1.63v14.77c0,.63.11,1.04.34,1.23.22.19.5.29.82.29.29,0,.58-.03.86-.1s.54-.13.74-.19l.29,1.32c-.3.13-.68.23-1.12.31-.44.08-.82.12-1.14.12-.74,0-1.32-.22-1.76-.65-.44-.43-.66-1.03-.66-1.79v-15.32Z"/><path class="cls-3" d="M124.13,134.89c0-.78.22-1.45.67-2.02.45-.56,1.07-1,1.86-1.31s1.71-.47,2.75-.47c.61,0,1.24.05,1.9.14.66.1,1.24.24,1.75.43v-1.05c0-1.05-.31-1.88-.94-2.5s-1.49-.93-2.59-.93c-.67,0-1.33.12-1.98.37-.65.25-1.32.61-2.03,1.09l-.62-1.15c.82-.56,1.62-.98,2.4-1.26.78-.28,1.58-.42,2.4-.42,1.54,0,2.75.44,3.65,1.31.9.87,1.34,2.08,1.34,3.63v5.75c0,.22.05.39.14.49.1.1.25.16.46.18v1.3c-.18.02-.33.03-.46.05-.13.02-.22.02-.29,0-.4-.02-.7-.14-.91-.38-.21-.24-.32-.5-.34-.77l-.02-.91c-.56.72-1.29,1.28-2.18,1.67-.9.39-1.81.59-2.74.59-.8,0-1.52-.17-2.17-.51-.65-.34-1.15-.8-1.51-1.38-.36-.58-.54-1.22-.54-1.92ZM132.5,135.84c.18-.22.31-.44.41-.64.1-.21.14-.39.14-.55v-1.81c-.54-.21-1.11-.36-1.69-.48-.58-.11-1.17-.17-1.76-.17-1.17,0-2.11.23-2.83.69-.72.46-1.08,1.09-1.08,1.88,0,.46.12.89.36,1.3s.59.74,1.06,1,1.01.39,1.63.39c.78,0,1.52-.15,2.2-.45.68-.3,1.2-.69,1.57-1.17Z"/><path class="cls-3" d="M143.23,138.71c-.85,0-1.63-.18-2.35-.53-.72-.35-1.34-.83-1.86-1.43-.52-.6-.92-1.28-1.21-2.05s-.43-1.56-.43-2.38c0-.88.14-1.71.42-2.48.28-.78.68-1.47,1.2-2.08.52-.61,1.13-1.08,1.84-1.43s1.49-.52,2.35-.52c1.07,0,2,.27,2.8.8.79.54,1.46,1.2,2,2v-2.62h1.46v12.52c0,1.15-.28,2.12-.83,2.91-.55.79-1.3,1.38-2.23,1.78-.94.4-1.96.6-3.06.6-1.42,0-2.58-.26-3.46-.77-.88-.51-1.6-1.2-2.16-2.06l1.01-.79c.5.78,1.16,1.37,1.98,1.75.82.38,1.7.58,2.63.58.82,0,1.56-.15,2.24-.44.68-.29,1.22-.73,1.63-1.31.41-.58.61-1.31.61-2.19v-2.47c-.48.78-1.14,1.41-1.97,1.88-.83.47-1.7.71-2.62.71ZM143.69,137.34c.5,0,.97-.09,1.43-.26.46-.18.88-.41,1.26-.71.38-.3.7-.63.96-1,.26-.37.42-.74.48-1.13v-3.86c-.24-.61-.58-1.15-1.03-1.62-.45-.47-.96-.84-1.52-1.1-.57-.26-1.16-.4-1.76-.4-.7,0-1.33.15-1.88.44-.55.3-1.02.69-1.39,1.18-.38.49-.67,1.04-.88,1.64s-.31,1.22-.31,1.82c0,.67.12,1.31.36,1.91s.57,1.14,1,1.61c.42.47.92.84,1.49,1.09.57.26,1.17.38,1.81.38Z"/><path class="cls-3" d="M159.05,137.96c-.13.05-.33.14-.6.26-.27.13-.6.24-.98.34-.38.1-.8.14-1.25.14s-.9-.09-1.31-.27c-.41-.18-.73-.45-.97-.81-.24-.36-.36-.81-.36-1.34v-8.99h-1.73v-1.3h1.73v-4.22h1.63v4.22h2.88v1.3h-2.88v8.54c.03.45.2.79.49,1.01.3.23.64.34,1.02.34.45,0,.86-.08,1.22-.23.37-.15.59-.26.67-.32l.43,1.32Z"/><path class="cls-3" d="M161.09,123.35v-2.4h1.63v2.4h-1.63ZM161.09,138.47v-12.5h1.63v12.5h-1.63Z"/><path class="cls-3" d="M171.33,138.71c-.85,0-1.63-.18-2.35-.53-.72-.35-1.34-.83-1.86-1.43-.52-.6-.92-1.28-1.21-2.05s-.43-1.56-.43-2.38c0-.88.14-1.71.42-2.48.28-.78.68-1.47,1.2-2.08.52-.61,1.13-1.08,1.84-1.43s1.49-.52,2.35-.52c1.07,0,2,.27,2.8.8.79.54,1.46,1.2,2,2v-2.62h1.46v12.52c0,1.15-.28,2.12-.83,2.91-.55.79-1.3,1.38-2.23,1.78-.94.4-1.96.6-3.06.6-1.42,0-2.58-.26-3.46-.77-.88-.51-1.6-1.2-2.16-2.06l1.01-.79c.5.78,1.16,1.37,1.98,1.75.82.38,1.7.58,2.63.58.82,0,1.56-.15,2.24-.44.68-.29,1.22-.73,1.63-1.31.41-.58.61-1.31.61-2.19v-2.47c-.48.78-1.14,1.41-1.97,1.88-.83.47-1.7.71-2.62.71ZM171.79,137.34c.5,0,.97-.09,1.43-.26.46-.18.88-.41,1.26-.71.38-.3.7-.63.96-1,.26-.37.42-.74.48-1.13v-3.86c-.24-.61-.58-1.15-1.03-1.62-.45-.47-.96-.84-1.52-1.1-.57-.26-1.16-.4-1.76-.4-.7,0-1.33.15-1.88.44-.55.3-1.02.69-1.39,1.18-.38.49-.67,1.04-.88,1.64s-.31,1.22-.31,1.82c0,.67.12,1.31.36,1.91s.57,1.14,1,1.61c.42.47.92.84,1.49,1.09.57.26,1.17.38,1.81.38Z"/><path class="cls-3" d="M186.55,138.71c-.9,0-1.73-.17-2.5-.51-.77-.34-1.43-.81-1.99-1.41-.56-.6-1-1.29-1.31-2.07-.31-.78-.47-1.62-.47-2.51,0-1.16.27-2.22.8-3.19.54-.97,1.28-1.74,2.22-2.32s2.02-.87,3.22-.87,2.31.29,3.23.88,1.64,1.36,2.17,2.32.79,2.01.79,3.16v.37c0,.12,0,.21-.02.27h-10.7c.08.89.33,1.68.76,2.38.42.69.98,1.24,1.66,1.65.68.41,1.42.61,2.22.61s1.59-.21,2.32-.62c.73-.42,1.24-.96,1.52-1.63l1.42.38c-.26.59-.65,1.13-1.18,1.61-.53.48-1.15.85-1.86,1.12-.71.26-1.48.4-2.29.4ZM181.94,131.65h9.24c-.06-.9-.31-1.69-.73-2.38-.42-.68-.98-1.22-1.66-1.6-.68-.39-1.43-.58-2.24-.58s-1.56.19-2.23.58c-.67.39-1.22.93-1.64,1.61-.42.69-.67,1.48-.73,2.36Z"/><path class="cls-3" d="M201.69,138.47v-17.04h11.18v1.49h-9.5v6.26h8.02v1.39h-8.02v7.9h-1.68Z"/><path class="cls-3" d="M212.93,134.89c0-.78.22-1.45.67-2.02.45-.56,1.07-1,1.86-1.31s1.71-.47,2.75-.47c.61,0,1.24.05,1.9.14.66.1,1.24.24,1.75.43v-1.05c0-1.05-.31-1.88-.94-2.5s-1.49-.93-2.59-.93c-.67,0-1.33.12-1.98.37-.65.25-1.32.61-2.03,1.09l-.62-1.15c.82-.56,1.62-.98,2.4-1.26.78-.28,1.58-.42,2.4-.42,1.54,0,2.75.44,3.65,1.31.9.87,1.34,2.08,1.34,3.63v5.75c0,.22.05.39.14.49.1.1.25.16.46.18v1.3c-.18.02-.33.03-.46.05-.13.02-.22.02-.29,0-.4-.02-.7-.14-.91-.38-.21-.24-.32-.5-.34-.77l-.02-.91c-.56.72-1.29,1.28-2.18,1.67-.9.39-1.81.59-2.74.59-.8,0-1.52-.17-2.17-.51-.65-.34-1.15-.8-1.51-1.38-.36-.58-.54-1.22-.54-1.92ZM221.3,135.84c.18-.22.31-.44.41-.64.1-.21.14-.39.14-.55v-1.81c-.54-.21-1.11-.36-1.69-.48-.58-.11-1.17-.17-1.76-.17-1.17,0-2.11.23-2.83.69-.72.46-1.08,1.09-1.08,1.88,0,.46.12.89.36,1.3s.59.74,1.06,1,1.01.39,1.63.39c.78,0,1.52-.15,2.2-.45.68-.3,1.2-.69,1.57-1.17Z"/><path class="cls-3" d="M233.13,138.71c-.98,0-1.88-.25-2.71-.76-.83-.5-1.48-1.14-1.94-1.91v2.42h-1.46v-17.52h1.63v7.7c.56-.85,1.23-1.53,2.02-2.05.78-.52,1.7-.78,2.74-.78.88,0,1.67.18,2.36.55.7.37,1.29.86,1.79,1.47.5.61.87,1.3,1.13,2.08.26.77.38,1.56.38,2.37,0,.88-.15,1.69-.44,2.46s-.72,1.44-1.26,2.04-1.17,1.07-1.88,1.41c-.71.34-1.49.51-2.34.51ZM232.75,137.27c.67,0,1.3-.13,1.87-.4.58-.27,1.07-.64,1.49-1.12s.74-1.01.96-1.61c.22-.6.34-1.21.34-1.85,0-.87-.19-1.7-.56-2.47-.38-.77-.9-1.39-1.56-1.86s-1.44-.7-2.34-.7c-.64,0-1.24.14-1.79.43-.55.29-1.04.66-1.46,1.13s-.77.98-1.04,1.54v3.86c.06.43.23.83.5,1.2s.61.69,1.02.96c.41.27.84.48,1.28.64.45.16.88.24,1.3.24Z"/><path class="cls-3" d="M241.89,120.95h1.63v14.77c0,.63.11,1.04.34,1.23.22.19.5.29.82.29.29,0,.58-.03.86-.1s.54-.13.74-.19l.29,1.32c-.3.13-.68.23-1.12.31-.44.08-.82.12-1.14.12-.74,0-1.32-.22-1.76-.65-.44-.43-.66-1.03-.66-1.79v-15.32Z"/><path class="cls-3" d="M253.75,138.71c-.9,0-1.73-.17-2.5-.51-.77-.34-1.43-.81-1.99-1.41-.56-.6-1-1.29-1.31-2.07-.31-.78-.47-1.62-.47-2.51,0-1.16.27-2.22.8-3.19.54-.97,1.28-1.74,2.22-2.32s2.02-.87,3.22-.87,2.31.29,3.23.88,1.64,1.36,2.17,2.32.79,2.01.79,3.16v.37c0,.12,0,.21-.02.27h-10.7c.08.89.33,1.68.76,2.38.42.69.98,1.24,1.66,1.65.68.41,1.42.61,2.22.61s1.59-.21,2.32-.62c.73-.42,1.24-.96,1.52-1.63l1.42.38c-.26.59-.65,1.13-1.18,1.61-.53.48-1.15.85-1.86,1.12-.71.26-1.48.4-2.29.4ZM249.14,131.65h9.24c-.06-.9-.31-1.69-.73-2.38-.42-.68-.98-1.22-1.66-1.6-.68-.39-1.43-.58-2.24-.58s-1.56.19-2.23.58c-.67.39-1.22.93-1.64,1.61-.42.69-.67,1.48-.73,2.36Z"/><path class="cls-3" d="M78.1,167.51c-.98,0-1.88-.25-2.71-.76s-1.48-1.14-1.94-1.91v2.42h-1.46v-17.52h1.63v7.7c.56-.85,1.23-1.53,2.02-2.05.78-.52,1.7-.78,2.74-.78.88,0,1.67.18,2.36.55.7.37,1.29.86,1.79,1.47.5.61.87,1.3,1.13,2.08.26.77.38,1.56.38,2.37,0,.88-.15,1.69-.44,2.46s-.72,1.44-1.26,2.04-1.17,1.07-1.88,1.41c-.71.34-1.49.51-2.34.51ZM77.71,166.07c.67,0,1.3-.13,1.87-.4s1.07-.64,1.49-1.12.74-1.01.96-1.61c.22-.6.34-1.21.34-1.85,0-.87-.19-1.7-.56-2.47-.38-.77-.9-1.39-1.56-1.86s-1.44-.7-2.34-.7c-.64,0-1.24.14-1.79.43s-1.04.66-1.46,1.13c-.42.47-.77.98-1.04,1.54v3.86c.06.43.23.83.5,1.2.27.37.61.69,1.02.96s.84.48,1.28.64c.45.16.88.24,1.3.24Z"/><path class="cls-3" d="M92.19,167.51c-.9,0-1.73-.17-2.5-.51-.77-.34-1.43-.81-1.99-1.41-.56-.6-1-1.29-1.31-2.07-.31-.78-.47-1.62-.47-2.51,0-1.16.27-2.22.8-3.19.54-.97,1.28-1.74,2.22-2.32.94-.58,2.02-.87,3.22-.87s2.31.29,3.23.88,1.64,1.36,2.17,2.32c.53.96.79,2.01.79,3.16v.37c0,.12,0,.21-.02.27h-10.7c.08.89.33,1.68.76,2.38.42.69.98,1.24,1.66,1.65.68.41,1.42.61,2.22.61s1.59-.21,2.32-.62c.73-.42,1.24-.96,1.52-1.63l1.42.38c-.26.59-.65,1.13-1.18,1.61-.53.48-1.15.85-1.86,1.12-.71.26-1.48.4-2.29.4ZM87.58,160.45h9.24c-.06-.9-.31-1.69-.73-2.38s-.98-1.22-1.66-1.6c-.68-.39-1.43-.58-2.24-.58s-1.56.19-2.23.58-1.22.93-1.64,1.61c-.42.69-.67,1.48-.73,2.36Z"/><path class="cls-3" d="M104.98,167.51c-1.02,0-1.98-.17-2.86-.5s-1.64-.85-2.28-1.54l.67-1.15c.7.66,1.41,1.13,2.12,1.43.71.3,1.47.44,2.27.44.98,0,1.77-.19,2.38-.58.61-.39.91-.95.91-1.68,0-.49-.15-.87-.44-1.13-.3-.26-.72-.48-1.27-.64-.55-.17-1.21-.35-1.98-.54-.86-.24-1.59-.49-2.17-.75-.58-.26-1.02-.6-1.32-1-.3-.41-.44-.93-.44-1.59,0-.81.2-1.48.61-2.02.41-.53.97-.94,1.68-1.22.71-.28,1.51-.42,2.39-.42.96,0,1.81.15,2.54.46.74.3,1.34.73,1.8,1.27l-.79,1.1c-.45-.51-.98-.89-1.6-1.14-.62-.25-1.3-.37-2.05-.37-.51,0-1,.07-1.46.2-.46.13-.84.36-1.14.67-.3.31-.44.74-.44,1.28,0,.45.11.79.34,1.04.22.25.56.45,1.01.62s1,.35,1.66.54c.94.25,1.77.51,2.47.78.7.26,1.25.6,1.63,1.01.38.41.58.99.58,1.74,0,1.16-.44,2.07-1.32,2.72s-2.04.98-3.48.98Z"/><path class="cls-3" d="M117.79,167.51c-.9,0-1.72-.17-2.48-.51-.76-.34-1.42-.81-1.97-1.41-.55-.6-.98-1.28-1.28-2.05-.3-.77-.46-1.59-.46-2.45s.15-1.7.46-2.48c.3-.78.74-1.47,1.3-2.06.56-.6,1.22-1.07,1.98-1.41.76-.34,1.58-.51,2.46-.51s1.74.17,2.5.51c.75.34,1.41.81,1.97,1.41.56.6.99,1.28,1.3,2.06.3.78.46,1.61.46,2.48s-.15,1.67-.46,2.45c-.3.77-.73,1.46-1.28,2.05-.55.6-1.21,1.07-1.97,1.41-.76.34-1.6.51-2.51.51ZM112.63,167.29l1.54-1.96.98.6-1.08,1.36h-1.44ZM117.79,166.07c.83,0,1.59-.22,2.28-.67.69-.44,1.24-1.05,1.66-1.82s.62-1.61.62-2.51-.21-1.76-.62-2.53-.97-1.37-1.66-1.81c-.69-.44-1.45-.67-2.28-.67s-1.59.23-2.27.68c-.68.45-1.23,1.06-1.64,1.82-.42.76-.62,1.61-.62,2.55s.2,1.76.61,2.51c.41.75.96,1.35,1.64,1.79.69.44,1.45.65,2.28.65ZM115.3,165.81l-.96-.55,6-9.02,1.06.48-6.1,9.09ZM121.56,156.62l-1.06-.48.98-1.36h1.49l-1.42,1.84Z"/><path class="cls-3" d="M131.76,167.51c-.85,0-1.63-.18-2.35-.53-.72-.35-1.34-.83-1.86-1.43-.52-.6-.92-1.28-1.21-2.05s-.43-1.56-.43-2.38c0-.88.14-1.71.42-2.48.28-.78.68-1.47,1.2-2.08.52-.61,1.13-1.08,1.84-1.43s1.49-.52,2.35-.52c1.07,0,2,.27,2.8.8.79.54,1.46,1.2,2,2v-2.62h1.46v12.52c0,1.15-.28,2.12-.83,2.91-.55.79-1.3,1.38-2.23,1.78-.94.4-1.96.6-3.06.6-1.42,0-2.58-.26-3.46-.77-.88-.51-1.6-1.2-2.16-2.06l1.01-.79c.5.78,1.16,1.37,1.98,1.75.82.38,1.7.58,2.63.58.82,0,1.56-.15,2.24-.44.68-.29,1.22-.73,1.63-1.31.41-.58.61-1.31.61-2.19v-2.47c-.48.78-1.14,1.41-1.97,1.88-.83.47-1.7.71-2.62.71ZM132.22,166.14c.5,0,.97-.09,1.43-.26.46-.18.88-.41,1.26-.71.38-.3.7-.63.96-1,.26-.37.42-.74.48-1.13v-3.86c-.24-.61-.58-1.15-1.03-1.62-.45-.47-.96-.84-1.52-1.1-.57-.26-1.16-.4-1.76-.4-.7,0-1.33.15-1.88.44-.55.3-1.02.69-1.39,1.18-.38.49-.67,1.04-.88,1.64s-.31,1.22-.31,1.82c0,.67.12,1.31.36,1.91s.57,1.14,1,1.61c.42.47.92.84,1.49,1.09.57.26,1.17.38,1.81.38Z"/><path class="cls-3" d="M146.98,167.51c-.9,0-1.73-.17-2.5-.51-.77-.34-1.43-.81-1.99-1.41-.56-.6-1-1.29-1.31-2.07-.31-.78-.47-1.62-.47-2.51,0-1.16.27-2.22.8-3.19.54-.97,1.28-1.74,2.22-2.32.94-.58,2.02-.87,3.22-.87s2.31.29,3.23.88,1.64,1.36,2.17,2.32c.53.96.79,2.01.79,3.16v.37c0,.12,0,.21-.02.27h-10.7c.08.89.33,1.68.76,2.38.42.69.98,1.24,1.66,1.65.68.41,1.42.61,2.22.61s1.59-.21,2.32-.62c.73-.42,1.24-.96,1.52-1.63l1.42.38c-.26.59-.65,1.13-1.18,1.61-.53.48-1.15.85-1.86,1.12-.71.26-1.48.4-2.29.4ZM142.37,160.45h9.24c-.06-.9-.31-1.69-.73-2.38s-.98-1.22-1.66-1.6c-.68-.39-1.43-.58-2.24-.58s-1.56.19-2.23.58-1.22.93-1.64,1.61c-.42.69-.67,1.48-.73,2.36Z"/><path class="cls-3" d="M161.9,156.2c-1.09.03-2.04.34-2.87.91-.82.58-1.4,1.37-1.74,2.38v7.78h-1.63v-12.46h1.54v2.95c.43-.88,1-1.59,1.72-2.14.71-.54,1.47-.85,2.27-.91.16-.02.3-.02.42-.02s.22,0,.3.02v1.49Z"/><path class="cls-3" d="M181.39,151.72h-6.07v15.55h-1.68v-15.55h-6.07v-1.49h13.82v1.49Z"/><path class="cls-3" d="M188.95,167.51c-.91,0-1.75-.17-2.51-.51-.76-.34-1.42-.81-1.97-1.41s-.98-1.28-1.28-2.05-.46-1.59-.46-2.45.15-1.72.46-2.49c.3-.77.74-1.46,1.3-2.05.56-.6,1.22-1.07,1.98-1.41.76-.34,1.59-.51,2.48-.51s1.72.17,2.47.51c.75.34,1.41.81,1.97,1.41.56.6.99,1.28,1.3,2.05.3.77.46,1.6.46,2.49s-.15,1.67-.46,2.45-.73,1.46-1.28,2.05-1.21,1.07-1.97,1.41c-.76.34-1.59.51-2.48.51ZM184.39,161.11c0,.92.2,1.76.61,2.51.41.75.96,1.35,1.64,1.79.69.44,1.45.65,2.28.65s1.59-.22,2.28-.67c.69-.44,1.24-1.05,1.66-1.82s.62-1.62.62-2.54-.21-1.74-.62-2.5-.97-1.37-1.66-1.81c-.69-.44-1.45-.67-2.28-.67s-1.59.23-2.28.69c-.69.46-1.24,1.07-1.64,1.82-.41.75-.61,1.6-.61,2.54Z"/><path class="cls-3" d="M204,167.51c-.98,0-1.88-.25-2.71-.76-.83-.5-1.48-1.14-1.94-1.91v2.42h-1.46v-17.52h1.63v7.7c.56-.85,1.23-1.53,2.02-2.05.78-.52,1.7-.78,2.74-.78.88,0,1.67.18,2.36.55.7.37,1.29.86,1.79,1.47.5.61.87,1.3,1.13,2.08.26.77.38,1.56.38,2.37,0,.88-.15,1.69-.44,2.46s-.72,1.44-1.26,2.04-1.17,1.07-1.88,1.41c-.71.34-1.49.51-2.34.51ZM203.61,166.07c.67,0,1.3-.13,1.87-.4.58-.27,1.07-.64,1.49-1.12s.74-1.01.96-1.61c.22-.6.34-1.21.34-1.85,0-.87-.19-1.7-.56-2.47-.38-.77-.9-1.39-1.56-1.86s-1.44-.7-2.34-.7c-.64,0-1.24.14-1.79.43-.55.29-1.04.66-1.46,1.13s-.77.98-1.04,1.54v3.86c.06.43.23.83.5,1.2s.61.69,1.02.96c.41.27.84.48,1.28.64.45.16.88.24,1.3.24Z"/><path class="cls-3" d="M212.69,152.15v-2.4h1.63v2.4h-1.63ZM212.69,167.27v-12.5h1.63v12.5h-1.63Z"/><path class="cls-3" d="M216.91,163.69c0-.78.22-1.45.67-2.02.45-.56,1.07-1,1.86-1.31s1.71-.47,2.75-.47c.61,0,1.24.05,1.9.14.66.1,1.24.24,1.75.43v-1.05c0-1.05-.31-1.88-.94-2.5s-1.49-.93-2.59-.93c-.67,0-1.33.12-1.98.37-.65.25-1.32.61-2.03,1.09l-.62-1.15c.82-.56,1.62-.98,2.4-1.26.78-.28,1.58-.42,2.4-.42,1.54,0,2.75.44,3.65,1.31.9.87,1.34,2.08,1.34,3.63v5.75c0,.22.05.39.14.49.1.1.25.16.46.18v1.3c-.18.02-.33.03-.46.05s-.22.02-.29,0c-.4-.02-.7-.14-.91-.38-.21-.24-.32-.5-.34-.77l-.02-.91c-.56.72-1.29,1.28-2.18,1.67-.9.39-1.81.59-2.74.59-.8,0-1.52-.17-2.17-.51-.65-.34-1.15-.8-1.51-1.38-.36-.58-.54-1.22-.54-1.92ZM225.29,164.64c.18-.22.31-.44.41-.64.1-.21.14-.39.14-.55v-1.81c-.54-.21-1.11-.36-1.69-.48-.58-.11-1.17-.17-1.76-.17-1.17,0-2.11.23-2.83.69-.72.46-1.08,1.09-1.08,1.88,0,.46.12.89.36,1.3.24.4.59.74,1.06,1,.46.26,1.01.39,1.63.39.78,0,1.52-.15,2.2-.45.68-.3,1.2-.69,1.57-1.17Z"/><path class="cls-3" d="M235.1,167.51c-1.02,0-1.98-.17-2.86-.5s-1.64-.85-2.28-1.54l.67-1.15c.7.66,1.41,1.13,2.12,1.43.71.3,1.47.44,2.27.44.98,0,1.77-.19,2.38-.58.61-.39.91-.95.91-1.68,0-.49-.15-.87-.44-1.13-.3-.26-.72-.48-1.27-.64-.55-.17-1.21-.35-1.98-.54-.86-.24-1.59-.49-2.17-.75-.58-.26-1.02-.6-1.32-1-.3-.41-.44-.93-.44-1.59,0-.81.2-1.48.61-2.02.41-.53.97-.94,1.68-1.22.71-.28,1.51-.42,2.39-.42.96,0,1.81.15,2.54.46.74.3,1.34.73,1.8,1.27l-.79,1.1c-.45-.51-.98-.89-1.6-1.14-.62-.25-1.3-.37-2.05-.37-.51,0-1,.07-1.46.2-.46.13-.84.36-1.14.67-.3.31-.44.74-.44,1.28,0,.45.11.79.34,1.04.22.25.56.45,1.01.62s1,.35,1.66.54c.94.25,1.77.51,2.47.78.7.26,1.25.6,1.63,1.01.38.41.58.99.58,1.74,0,1.16-.44,2.07-1.32,2.72s-2.04.98-3.48.98Z"/><path class="cls-3" d="M242.85,169.21l.41-2.02h-.55v-2.28h1.58v2.28l-.6,2.02h-.84Z"/><path class="cls-3" d="M145.26,183.88h-9.19v-1.51h11.78l-8.62,16.75h-1.87l7.9-15.24Z"/><path class="cls-3" d="M155,192.49c0-.78.22-1.45.67-2.01.45-.56,1.07-1,1.86-1.31.79-.31,1.71-.47,2.75-.47.61,0,1.24.05,1.9.14s1.24.24,1.75.43v-1.05c0-1.05-.31-1.88-.94-2.5s-1.49-.93-2.59-.93c-.67,0-1.33.12-1.98.37-.65.25-1.32.61-2.03,1.09l-.62-1.15c.82-.56,1.62-.98,2.4-1.26s1.58-.42,2.4-.42c1.54,0,2.75.44,3.65,1.31.9.87,1.34,2.08,1.34,3.62v5.75c0,.22.05.39.14.49s.25.16.46.18v1.3c-.18.02-.33.03-.46.05-.13.02-.22.02-.29,0-.4-.02-.7-.14-.91-.38s-.32-.5-.34-.77l-.02-.91c-.56.72-1.29,1.28-2.18,1.67-.9.39-1.81.59-2.74.59-.8,0-1.52-.17-2.17-.51-.65-.34-1.15-.8-1.51-1.38-.36-.58-.54-1.22-.54-1.92ZM163.38,193.44c.18-.22.31-.44.41-.64.1-.21.14-.39.14-.55v-1.81c-.54-.21-1.11-.36-1.69-.48-.58-.11-1.17-.17-1.76-.17-1.17,0-2.11.23-2.83.69-.72.46-1.08,1.09-1.08,1.88,0,.46.12.89.36,1.3.24.4.59.74,1.06,1,.46.26,1.01.39,1.63.39.78,0,1.52-.15,2.2-.45.68-.3,1.2-.69,1.57-1.17ZM158.39,180.01c0-.61.2-1.1.61-1.48.41-.38.92-.56,1.52-.56s1.14.19,1.54.56c.4.38.6.87.6,1.48,0,.58-.2,1.05-.6,1.42-.4.37-.91.55-1.54.55s-1.12-.18-1.52-.55-.61-.84-.61-1.42ZM160.52,178.81c-.32,0-.6.1-.83.31-.23.21-.35.5-.35.86,0,.34.11.62.34.84.22.22.5.34.84.34.3,0,.58-.11.83-.32.25-.22.37-.5.37-.85s-.12-.66-.35-.86c-.23-.21-.52-.31-.85-.31Z"/><path class="cls-3" d="M175.33,185c-1.09.03-2.04.34-2.87.91-.82.58-1.4,1.37-1.74,2.38v7.78h-1.63v-12.46h1.54v2.95c.43-.88,1-1.59,1.72-2.14s1.47-.85,2.27-.91c.16-.02.3-.02.42-.02s.22,0,.3.02v1.49Z"/><path class="cls-3" d="M177.78,198.01l.41-2.02h-.55v-2.28h1.58v2.28l-.6,2.02h-.84Z"/><path class="cls-3" d="M59.17,225.11c-1.04,0-1.97-.27-2.8-.81s-1.48-1.21-1.96-2v7.69h-1.63v-17.57h1.46v2.43c.5-.78,1.16-1.41,1.99-1.9s1.72-.73,2.66-.73c.86,0,1.66.18,2.38.54.72.36,1.34.84,1.87,1.44.53.6.94,1.29,1.24,2.06.3.77.44,1.57.44,2.4,0,1.16-.24,2.23-.71,3.21-.47.98-1.13,1.76-1.98,2.35-.85.59-1.84.88-2.98.88ZM58.72,223.67c.69,0,1.3-.14,1.85-.42.54-.28,1.01-.65,1.4-1.13.39-.48.69-1.01.9-1.61.21-.6.31-1.21.31-1.85,0-.67-.12-1.3-.35-1.91-.23-.6-.56-1.14-1-1.6-.43-.46-.93-.83-1.49-1.1-.56-.27-1.17-.41-1.82-.41-.42,0-.85.08-1.3.24-.45.16-.88.38-1.28.68-.41.29-.75.62-1.02.99s-.44.75-.5,1.17v3.82c.26.59.6,1.12,1.03,1.58.43.47.93.84,1.5,1.12.57.28,1.16.42,1.76.42Z"/><path class="cls-3" d="M66.59,221.29c0-.78.22-1.45.67-2.01.45-.56,1.07-1,1.86-1.31.79-.31,1.71-.47,2.75-.47.61,0,1.24.05,1.9.14s1.24.24,1.75.43v-1.05c0-1.05-.31-1.88-.94-2.5s-1.49-.93-2.59-.93c-.67,0-1.33.12-1.98.37-.65.25-1.32.61-2.03,1.09l-.62-1.15c.82-.56,1.62-.98,2.4-1.26.78-.28,1.58-.42,2.4-.42,1.54,0,2.75.44,3.65,1.31.9.87,1.34,2.08,1.34,3.62v5.75c0,.22.05.39.14.49.1.1.25.16.46.18v1.3c-.18.02-.33.03-.46.05-.13.02-.22.02-.29,0-.4-.02-.7-.14-.91-.38s-.32-.5-.34-.77l-.02-.91c-.56.72-1.29,1.28-2.18,1.67-.9.39-1.81.59-2.74.59-.8,0-1.52-.17-2.17-.51s-1.15-.8-1.51-1.38c-.36-.58-.54-1.22-.54-1.92ZM74.96,222.24c.18-.22.31-.44.41-.64.1-.21.14-.39.14-.55v-1.81c-.54-.21-1.11-.36-1.69-.48-.58-.11-1.17-.17-1.76-.17-1.17,0-2.11.23-2.83.69s-1.08,1.09-1.08,1.88c0,.46.12.89.36,1.3s.59.74,1.06,1,1.01.39,1.63.39c.78,0,1.52-.15,2.2-.45.68-.3,1.2-.69,1.57-1.17ZM69.97,208.81c0-.61.2-1.1.61-1.48.41-.38.92-.56,1.52-.56s1.14.19,1.54.56c.4.38.6.87.6,1.48,0,.58-.2,1.05-.6,1.42-.4.37-.91.55-1.54.55s-1.12-.18-1.52-.55c-.41-.37-.61-.84-.61-1.42ZM72.11,207.61c-.32,0-.6.1-.83.31-.23.21-.35.5-.35.86,0,.34.11.62.34.84.22.22.5.34.84.34.3,0,.58-.11.83-.32s.37-.5.37-.85-.12-.66-.35-.86c-.23-.21-.52-.31-.85-.31Z"/><path class="cls-3" d="M91.67,207.83h1.42l7.08,17.04h-1.78l-2.13-5.33h-7.79l-2.13,5.33h-1.8l7.13-17.04ZM95.73,218.22l-3.37-8.42-3.37,8.42h6.73Z"/><path class="cls-3" d="M101.27,221.29c0-.78.22-1.45.67-2.01.45-.56,1.07-1,1.86-1.31.79-.31,1.71-.47,2.75-.47.61,0,1.24.05,1.9.14s1.24.24,1.75.43v-1.05c0-1.05-.31-1.88-.94-2.5s-1.49-.93-2.59-.93c-.67,0-1.33.12-1.98.37-.65.25-1.32.61-2.03,1.09l-.62-1.15c.82-.56,1.62-.98,2.4-1.26.78-.28,1.58-.42,2.4-.42,1.54,0,2.75.44,3.65,1.31.9.87,1.34,2.08,1.34,3.62v5.75c0,.22.05.39.14.49.1.1.25.16.46.18v1.3c-.18.02-.33.03-.46.05-.13.02-.22.02-.29,0-.4-.02-.7-.14-.91-.38s-.32-.5-.34-.77l-.02-.91c-.56.72-1.29,1.28-2.18,1.67-.9.39-1.81.59-2.74.59-.8,0-1.52-.17-2.17-.51s-1.15-.8-1.51-1.38c-.36-.58-.54-1.22-.54-1.92ZM109.64,222.24c.18-.22.31-.44.41-.64.1-.21.14-.39.14-.55v-1.81c-.54-.21-1.11-.36-1.69-.48-.58-.11-1.17-.17-1.76-.17-1.17,0-2.11.23-2.83.69s-1.08,1.09-1.08,1.88c0,.46.12.89.36,1.3s.59.74,1.06,1,1.01.39,1.63.39c.78,0,1.52-.15,2.2-.45.68-.3,1.2-.69,1.57-1.17Z"/><path class="cls-3" d="M115.43,207.35h1.63v14.77c0,.63.11,1.04.34,1.23.22.19.5.29.82.29.29,0,.58-.03.86-.1.29-.06.54-.13.74-.19l.29,1.32c-.3.13-.68.23-1.12.31s-.82.12-1.14.12c-.74,0-1.32-.22-1.76-.65-.44-.43-.66-1.03-.66-1.79v-15.32Z"/><path class="cls-3" d="M128,225.11c-.98,0-1.88-.25-2.71-.76s-1.48-1.14-1.94-1.91v2.42h-1.46v-17.52h1.63v7.7c.56-.85,1.23-1.53,2.02-2.05.78-.52,1.7-.78,2.74-.78.88,0,1.67.18,2.36.55.7.37,1.29.86,1.79,1.47s.87,1.3,1.13,2.08.38,1.56.38,2.38c0,.88-.15,1.69-.44,2.46s-.72,1.44-1.26,2.04-1.17,1.07-1.88,1.41c-.71.34-1.49.51-2.34.51ZM127.62,223.67c.67,0,1.3-.13,1.87-.4.58-.27,1.07-.64,1.49-1.12s.74-1.01.96-1.61c.22-.6.34-1.21.34-1.85,0-.87-.19-1.7-.56-2.47-.38-.77-.9-1.39-1.56-1.86s-1.44-.7-2.34-.7c-.64,0-1.24.14-1.79.43s-1.04.66-1.46,1.13c-.42.47-.77.98-1.04,1.54v3.86c.06.43.23.83.5,1.2.27.37.61.69,1.02.96.41.27.84.48,1.28.64.45.16.88.24,1.3.24Z"/><path class="cls-3" d="M142.04,225.11c-.91,0-1.75-.17-2.51-.51-.76-.34-1.42-.81-1.97-1.41-.55-.6-.98-1.28-1.28-2.05-.3-.77-.46-1.59-.46-2.45s.15-1.72.46-2.49c.3-.77.74-1.46,1.3-2.05.56-.6,1.22-1.07,1.98-1.41.76-.34,1.59-.51,2.48-.51s1.72.17,2.47.51c.75.34,1.41.81,1.97,1.41.56.6.99,1.28,1.3,2.05.3.77.46,1.6.46,2.49s-.15,1.67-.46,2.45c-.3.77-.73,1.46-1.28,2.05-.55.6-1.21,1.07-1.97,1.41-.76.34-1.59.51-2.48.51ZM137.48,218.71c0,.92.2,1.76.61,2.51.41.75.96,1.35,1.64,1.79.69.44,1.45.65,2.28.65s1.59-.22,2.28-.67c.69-.44,1.24-1.05,1.66-1.82s.62-1.62.62-2.54-.21-1.74-.62-2.5-.97-1.37-1.66-1.81c-.69-.44-1.45-.67-2.28-.67s-1.59.23-2.28.69c-.69.46-1.24,1.07-1.64,1.82-.41.75-.61,1.6-.61,2.54Z"/><path class="cls-3" d="M157.21,213.8c-1.09.03-2.04.34-2.87.91-.82.58-1.4,1.37-1.74,2.38v7.78h-1.63v-12.46h1.54v2.95c.43-.88,1-1.59,1.72-2.14s1.47-.85,2.27-.91c.16-.02.3-.02.42-.02s.22,0,.3.02v1.49Z"/><path class="cls-3" d="M164.41,225.11c-.85,0-1.63-.18-2.35-.53-.72-.35-1.34-.83-1.86-1.43s-.92-1.28-1.21-2.05c-.29-.77-.43-1.56-.43-2.38,0-.88.14-1.71.42-2.48.28-.78.68-1.47,1.2-2.08.52-.61,1.13-1.08,1.84-1.43.7-.34,1.49-.52,2.35-.52,1.07,0,2,.27,2.8.8s1.46,1.2,2,2v-2.62h1.46v12.52c0,1.15-.28,2.12-.83,2.91-.55.79-1.3,1.38-2.23,1.78-.94.4-1.96.6-3.06.6-1.42,0-2.58-.26-3.46-.77-.88-.51-1.6-1.2-2.16-2.06l1.01-.79c.5.78,1.16,1.37,1.98,1.75.82.38,1.7.58,2.63.58.82,0,1.56-.15,2.24-.44.68-.29,1.22-.73,1.63-1.31.41-.58.61-1.31.61-2.19v-2.47c-.48.78-1.14,1.41-1.97,1.88s-1.7.71-2.62.71ZM164.87,223.74c.5,0,.97-.09,1.43-.26.46-.18.88-.41,1.26-.71s.7-.63.96-1,.42-.74.48-1.13v-3.86c-.24-.61-.58-1.15-1.03-1.62-.45-.47-.96-.84-1.52-1.1-.57-.26-1.16-.4-1.76-.4-.7,0-1.33.15-1.88.44-.55.3-1.02.69-1.39,1.18-.38.49-.67,1.04-.88,1.64-.21.61-.31,1.22-.31,1.82,0,.67.12,1.31.36,1.91.24.6.57,1.14,1,1.61s.92.84,1.49,1.09c.57.26,1.17.38,1.81.38Z"/><path class="cls-3" d="M190.86,224.87h-1.63v-6.94c0-1.4-.25-2.45-.74-3.16-.5-.71-1.21-1.06-2.14-1.06-.61,0-1.21.16-1.81.46s-1.13.73-1.58,1.26c-.46.53-.78,1.14-.97,1.82v7.61h-1.63v-17.52h1.63v7.9c.5-.92,1.19-1.66,2.08-2.21.89-.55,1.84-.82,2.84-.82.72,0,1.33.13,1.84.38.5.25.91.62,1.22,1.11.31.49.54,1.05.68,1.69.14.64.22,1.37.22,2.18v7.28Z"/><path class="cls-3" d="M199.69,225.11c-.91,0-1.75-.17-2.51-.51-.76-.34-1.42-.81-1.97-1.41s-.98-1.28-1.28-2.05c-.3-.77-.46-1.59-.46-2.45s.15-1.72.46-2.49.74-1.46,1.3-2.05c.56-.6,1.22-1.07,1.98-1.41.76-.34,1.59-.51,2.48-.51s1.72.17,2.47.51c.75.34,1.41.81,1.97,1.41.56.6.99,1.28,1.3,2.05s.46,1.6.46,2.49-.15,1.67-.46,2.45c-.3.77-.73,1.46-1.28,2.05s-1.21,1.07-1.97,1.41c-.76.34-1.59.51-2.48.51ZM195.13,218.71c0,.92.2,1.76.61,2.51.41.75.96,1.35,1.64,1.79.69.44,1.45.65,2.28.65s1.59-.22,2.28-.67c.69-.44,1.24-1.05,1.66-1.82s.62-1.62.62-2.54-.21-1.74-.62-2.5-.97-1.37-1.66-1.81c-.69-.44-1.45-.67-2.28-.67s-1.59.23-2.28.69c-.69.46-1.24,1.07-1.64,1.82-.41.75-.61,1.6-.61,2.54Z"/><path class="cls-3" d="M212.72,225.11c-1.02,0-1.98-.17-2.86-.5s-1.64-.85-2.28-1.54l.67-1.15c.7.66,1.41,1.13,2.12,1.43s1.47.44,2.27.44c.98,0,1.77-.19,2.38-.58.61-.39.91-.95.91-1.68,0-.49-.15-.87-.44-1.13s-.72-.48-1.27-.64c-.55-.17-1.21-.35-1.98-.54-.86-.24-1.59-.49-2.17-.75-.58-.26-1.02-.6-1.32-1-.3-.41-.44-.93-.44-1.59,0-.81.2-1.48.61-2.02.41-.53.97-.94,1.68-1.22.71-.28,1.51-.42,2.39-.42.96,0,1.81.15,2.54.46.74.3,1.34.73,1.8,1.27l-.79,1.1c-.45-.51-.98-.89-1.6-1.14-.62-.25-1.3-.37-2.05-.37-.51,0-1,.07-1.46.2-.46.13-.84.36-1.14.67s-.44.74-.44,1.28c0,.45.11.79.34,1.04.22.25.56.45,1.01.62s1,.35,1.66.54c.94.25,1.77.51,2.47.78.7.26,1.25.6,1.63,1.01.38.41.58.99.58,1.74,0,1.16-.44,2.07-1.32,2.72-.88.65-2.04.98-3.48.98Z"/><path class="cls-3" d="M226.59,225.11c-1.04,0-1.97-.27-2.8-.81-.82-.54-1.48-1.21-1.96-2v7.69h-1.63v-17.57h1.46v2.43c.5-.78,1.16-1.41,1.99-1.9s1.72-.73,2.66-.73c.86,0,1.66.18,2.38.54.72.36,1.34.84,1.87,1.44.53.6.94,1.29,1.24,2.06.3.77.44,1.57.44,2.4,0,1.16-.24,2.23-.71,3.21-.47.98-1.13,1.76-1.98,2.35-.85.59-1.84.88-2.98.88ZM226.14,223.67c.69,0,1.3-.14,1.85-.42.54-.28,1.01-.65,1.4-1.13.39-.48.69-1.01.9-1.61.21-.6.31-1.21.31-1.85,0-.67-.12-1.3-.35-1.91-.23-.6-.56-1.14-1-1.6-.43-.46-.93-.83-1.49-1.1-.56-.27-1.17-.41-1.82-.41-.42,0-.85.08-1.3.24-.45.16-.88.38-1.28.68-.41.29-.75.62-1.02.99-.27.37-.44.75-.5,1.17v3.82c.26.59.6,1.12,1.03,1.58.43.47.93.84,1.5,1.12.57.28,1.16.42,1.76.42Z"/><path class="cls-3" d="M235.02,209.75v-2.4h1.63v2.4h-1.63ZM235.02,224.87v-12.5h1.63v12.5h-1.63Z"/><path class="cls-3" d="M246.25,224.36c-.13.05-.33.14-.6.26-.27.13-.6.24-.98.34-.38.1-.8.14-1.25.14s-.9-.09-1.31-.26c-.41-.18-.73-.45-.97-.81-.24-.36-.36-.81-.36-1.34v-8.99h-1.73v-1.3h1.73v-4.22h1.63v4.22h2.88v1.3h-2.88v8.54c.03.45.2.79.49,1.01.3.23.64.34,1.02.34.45,0,.86-.08,1.22-.23.37-.15.59-.26.67-.32l.43,1.32Z"/><path class="cls-3" d="M247.28,221.29c0-.78.22-1.45.67-2.01.45-.56,1.07-1,1.86-1.31.79-.31,1.71-.47,2.75-.47.61,0,1.24.05,1.9.14s1.24.24,1.75.43v-1.05c0-1.05-.31-1.88-.94-2.5s-1.49-.93-2.59-.93c-.67,0-1.33.12-1.98.37-.65.25-1.32.61-2.03,1.09l-.62-1.15c.82-.56,1.62-.98,2.4-1.26s1.58-.42,2.4-.42c1.54,0,2.75.44,3.65,1.31.9.87,1.34,2.08,1.34,3.62v5.75c0,.22.05.39.14.49s.25.16.46.18v1.3c-.18.02-.33.03-.46.05-.13.02-.22.02-.29,0-.4-.02-.7-.14-.91-.38s-.32-.5-.34-.77l-.02-.91c-.56.72-1.29,1.28-2.18,1.67-.9.39-1.81.59-2.74.59-.8,0-1.52-.17-2.17-.51-.65-.34-1.15-.8-1.51-1.38-.36-.58-.54-1.22-.54-1.92ZM255.66,222.24c.18-.22.31-.44.41-.64.1-.21.14-.39.14-.55v-1.81c-.54-.21-1.11-.36-1.69-.48-.58-.11-1.17-.17-1.76-.17-1.17,0-2.11.23-2.83.69-.72.46-1.08,1.09-1.08,1.88,0,.46.12.89.36,1.3.24.4.59.74,1.06,1,.46.26,1.01.39,1.63.39.78,0,1.52-.15,2.2-.45.68-.3,1.2-.69,1.57-1.17Z"/><path class="cls-3" d="M261.44,207.35h1.63v14.77c0,.63.11,1.04.34,1.23.22.19.5.29.82.29.29,0,.58-.03.86-.1.29-.06.54-.13.74-.19l.29,1.32c-.3.13-.68.23-1.12.31-.44.08-.82.12-1.14.12-.74,0-1.32-.22-1.76-.65-.44-.43-.66-1.03-.66-1.79v-15.32Z"/><image class="cls-9" width="204" height="81" transform="translate(56.4 22.85)" xlink:href="galleri2_text-1.png"/><g class="cls-6"><path class="cls-4" d="M259.04,80.2l-4.25-56.13c-.01-.2-.18-.34-.38-.33-3.26.18-28.09,1.6-30.26,2.03-2.32.46-2.41.07-4.25.37s-3.43.55-5.39.6-10.29.92-12.75,1.02c-2.46.1-10.88.92-12.94,1.04s-10.73.99-13.34,1.14c-2.61.15-17.12.97-21.12,1.57-4,.6-16.55,1.64-19.65,1.76-3.11.12-23.03,2.06-25.29,2.24-2.26.17-2.88-.02-5.32.62-2.43.65-12.4,1.96-15.03,2.71-2.63.75-18.61,4.07-22.24,4.8-3.14.62-8.67,1.84-10.09,2.16-.19.04-.31.23-.27.42.47,2.43,3.29,16.95,3.61,17.52.35.62,2.66,12.72,3.11,13.99.45,1.27,3.08,14.14,3.38,15.53.26,1.21,1.55,6.97,1.89,8.45.04.19.23.31.42.27,2.7-.57,20.3-4.28,23.93-5.22,3.93-1.02,17.89-3.83,21.76-4.67,3.88-.84,12.85-3.08,14.86-3.48s2.61-.47,3.06-.7c.45-.22.62-.5,1.12-.42.5.07,1.66.5,2.46.57.79.07,2.41.12,4.79.2,2.39.07,7.38,0,10.29.07,2.91.07,5.99-.05,7.73-.02s6.16.02,9.14-.32,5.59-.25,9.99-.79c4.4-.55,7.43-.65,9.99-.92,2.56-.27,10.56-.62,13.94-1.02s7.93-.65,10.61-.89c2.68-.25,3.68-.22,4.8-.4s1.32-.45,3.25-.65,6.36-.4,12.08-.92c5.71-.52,9.62-.67,11.55-.84,1.94-.17,4.07-.07,7.4-.4,2.74-.27,6.02-.49,7.1-.56.2-.01.35-.19.33-.39Z"/><g class="cls-7"><g class="cls-1"><image width="60" height="94" transform="translate(124.4 6.85)" xlink:href="galleri2_text-2.png"/><image width="57" height="41" transform="translate(91.4 50.85)" xlink:href="galleri2_text-3.png"/><image width="73" height="18" transform="translate(162.4 53.85)" xlink:href="galleri2_text-4.png"/></g></g></g></g></g></svg>