<svg width="650" height="112" viewBox="0 0 650 112" fill="none" xmlns="http://www.w3.org/2000/svg">
<path d="M274.397 44.4215C273.172 40.1241 270.824 36.0883 268.596 32.0533C268.252 31.4314 267.906 30.7853 267.912 30.1065C267.918 29.4278 268.381 28.7023 269.199 28.4956C270.323 28.2099 271.402 28.9684 272.196 29.6588C274.929 32.0393 277.661 34.4212 280.394 36.8017C281.276 37.5701 282.364 38.4052 283.67 38.3052C284.519 38.2399 285.226 37.7844 285.878 37.3493C288.241 35.7671 290.606 34.1862 292.969 32.6039C293.742 32.0879 295.026 31.6051 295.616 32.2556C296.057 32.7438 295.612 33.4079 295.174 33.8964C293.249 36.0446 291.326 38.1915 289.402 40.341C288.808 41.0025 288.188 41.7467 288.31 42.5524C288.472 43.6366 289.864 44.2921 291.096 44.785C294.35 46.0842 297.587 47.4126 300.805 48.7676C301.739 49.1612 302.833 49.8583 302.466 50.6446C302.107 51.4149 300.745 51.4053 299.725 51.2555C295.656 50.6541 291.588 50.054 287.519 49.4525C287.002 49.3762 286.397 49.317 286.009 49.5999C285.536 49.9442 285.695 50.5534 285.895 51.0373C287.227 54.262 288.78 57.5632 288.407 60.9439C288.391 61.0872 288.368 61.2357 288.273 61.3574C287.86 61.8826 286.853 61.3843 286.396 60.8824C284.126 58.3827 282.192 55.6918 280.636 52.8695C280.185 52.0485 279.675 51.1405 278.643 50.7746C277.337 50.3111 275.853 50.9191 274.632 51.509C271.731 52.9126 268.827 54.3161 265.926 55.7197C265.515 55.9176 265.021 56.1234 264.577 55.9786C263.725 55.7017 264.129 54.6774 264.71 54.1122C268.012 50.8967 274.623 48.1966 274.472 44.5409" fill="#F6E38B"/>
<path d="M37.7213 54.6538C37.2946 54.0565 36.8253 53.4165 36.3133 52.7338C35.8866 52.0511 35.3746 51.2831 34.7773 50.4298C33.5826 48.8085 32.516 47.2725 31.5773 45.8218C30.724 44.2858 30.084 43.3045 29.6573 42.8778L26.0733 38.7818C25.8173 38.4405 25.5186 37.9711 25.1773 37.3738C24.836 36.7765 24.58 36.3498 24.4093 36.0938C23.9826 35.4965 23.556 34.8991 23.1293 34.3018C22.788 33.6191 22.404 33.0218 21.9773 32.5098C21.4653 31.8271 20.8253 30.9738 20.0573 29.9498C19.3746 28.9258 18.9906 28.4138 18.9053 28.4138L19.0333 34.1738L18.1373 44.5418C18.1373 44.9685 18.0946 45.9071 18.0093 47.3578C18.0093 48.7231 17.9666 50.2165 17.8813 51.8378C17.796 53.4591 17.7106 54.9951 17.6253 56.4458C17.6253 57.8111 17.6253 58.7071 17.6253 59.1338C17.54 60.9258 17.412 62.5045 17.2413 63.8698C17.0706 65.2351 17.028 66.8138 17.1133 68.6058C17.1133 69.4591 17.028 70.2698 16.8573 71.0378C16.772 71.7205 16.772 72.4885 16.8573 73.3418C16.8573 73.7685 16.8573 74.1951 16.8573 74.6218C16.8573 74.9631 16.8146 75.3471 16.7293 75.7738C16.8146 76.9685 16.8146 78.2058 16.7293 79.4858C16.644 80.6805 16.6013 81.8751 16.6013 83.0698C15.5773 83.4965 14.6386 83.7525 13.7853 83.8378C13.0173 83.9231 12.036 83.9658 10.8413 83.9658C10.5 84.0511 10.0306 84.0938 9.43331 84.0938C8.92131 84.1791 8.40931 84.2218 7.89731 84.2218C7.38531 84.3071 6.95864 84.3498 6.6173 84.3498C6.27597 84.4351 6.14797 84.4778 6.2333 84.4778C5.80664 84.4778 5.29464 84.5205 4.6973 84.6058C4.1853 84.6911 3.58797 84.7338 2.9053 84.7338C2.56397 84.7338 2.22264 84.6911 1.8813 84.6058C1.53997 84.6058 1.19864 84.3925 0.857305 83.9658L1.36931 79.9978V79.2298C1.28397 77.9498 1.19864 76.7125 1.11331 75.5178C1.02797 74.2378 1.07064 73.1285 1.2413 72.1898C1.32664 71.6778 1.36931 70.9951 1.36931 70.1418C1.45464 69.2885 1.4973 68.3925 1.4973 67.4538C1.4973 66.5151 1.4973 65.6191 1.4973 64.7658C1.4973 63.8271 1.45464 63.0165 1.36931 62.3338C1.19864 60.9685 1.07064 59.8165 0.985305 58.8778C0.985305 57.8538 0.985305 56.2325 0.985305 54.0138C1.07064 52.2218 1.11331 50.8138 1.11331 49.7898C1.11331 48.7658 1.07064 47.3578 0.985305 45.5658V44.4138C0.985305 43.2191 0.899971 42.1525 0.729305 41.2138C0.643972 40.2751 0.643972 39.4645 0.729305 38.7818C1.07064 36.9898 1.15597 35.2405 0.985305 33.5338C0.899972 31.7418 0.942638 29.8645 1.11331 27.9018C1.19864 26.4511 1.19864 25.0431 1.11331 23.6778C1.11331 22.3125 1.11331 20.9045 1.11331 19.4538C1.11331 18.0031 1.15597 16.5525 1.2413 15.1018C1.41197 13.6511 1.4973 12.2005 1.4973 10.7498C1.4973 10.0671 1.53997 9.68313 1.62531 9.59779C1.79597 9.42712 2.22264 9.34179 2.9053 9.34179H16.0893C16.516 9.76846 17.028 10.4938 17.6253 11.5178C18.2226 12.4565 18.7346 13.2245 19.1613 13.8218C19.844 14.6751 20.484 15.6565 21.0813 16.7658C21.764 17.8751 22.3613 18.8565 22.8733 19.7098C23.556 21.1605 24.2813 22.2698 25.0493 23.0378C25.8173 23.8058 26.4573 24.8298 26.9693 26.1098C27.396 26.5365 27.7373 27.0485 27.9933 27.6458C28.3346 28.1578 28.676 28.5845 29.0173 28.9258C29.444 29.6085 29.9986 30.4618 30.6813 31.4858C31.364 32.5098 32.0466 33.3631 32.7293 34.0458C33.8386 35.4965 34.7773 36.8191 35.5453 38.0138C36.3986 39.2085 37.4226 40.4885 38.6173 41.8538C39.3 42.7925 39.8973 43.6458 40.4093 44.4138C40.9213 45.1818 41.476 46.0351 42.0733 46.9738C42.756 47.7418 43.4813 48.6378 44.2493 49.6618C45.1026 50.6005 46.0413 51.6671 47.0653 52.8618C47.236 52.7765 47.5346 52.4778 47.9613 51.9658C48.4733 51.3685 48.8573 50.8565 49.1133 50.4298C49.8813 49.6618 50.6493 48.6805 51.4173 47.4858C52.2706 46.2911 53.0813 45.2245 53.8493 44.2858L55.1293 41.7258C55.3 41.3845 55.5133 41.0858 55.7693 40.8298C56.0253 40.4885 56.2386 40.1898 56.4093 39.9338L59.8653 34.6858C60.2066 33.8325 60.8893 32.7658 61.9133 31.4858C63.0226 30.2058 64.0893 28.6698 65.1133 26.8778L65.7533 26.1098C66.6066 24.6591 67.3746 23.2938 68.0573 22.0138C68.74 20.6485 69.4226 19.2405 70.1053 17.7898C70.6173 16.6805 71.1293 15.8271 71.6413 15.2298C72.2386 14.5471 72.836 13.6511 73.4333 12.5418C73.7746 11.8591 73.9453 11.4325 73.9453 11.2618C74.0306 11.0058 74.2013 10.6218 74.4573 10.1098H86.1053C87.556 10.4511 88.58 10.6218 89.1773 10.6218C89.7746 10.6218 90.2013 10.6218 90.4573 10.6218C90.884 10.6218 91.268 10.6645 91.6093 10.7498C92.036 10.7498 92.5906 10.7498 93.2733 10.7498V15.9978C92.932 17.4485 92.7186 18.7285 92.6333 19.8378C92.6333 20.9471 92.6333 22.0565 92.6333 23.1658V36.0938C92.6333 37.6298 92.676 39.1231 92.7613 40.5738C92.8466 41.9391 92.8893 43.4325 92.8893 45.0538C92.9746 45.4805 93.0173 45.9498 93.0173 46.4618C93.0173 46.8885 93.0173 47.3578 93.0173 47.8698C93.1026 48.8085 93.1026 49.4911 93.0173 49.9178C93.0173 50.3445 93.06 51.0271 93.1453 51.9658V53.6298C93.06 54.1418 92.9746 55.0378 92.8893 56.3178C92.804 57.5125 92.7186 58.7925 92.6333 60.1578C92.548 61.4378 92.4626 62.7178 92.3773 63.9978C92.3773 65.1925 92.3773 66.0458 92.3773 66.5578C92.3773 67.2405 92.42 68.0938 92.5053 69.1178C92.5906 70.1418 92.6333 70.9951 92.6333 71.6778C92.6333 73.3845 92.5906 75.1765 92.5053 77.0538C92.5053 78.8458 92.292 80.6378 91.8653 82.4298V85.3738C91.524 85.8005 91.0546 86.0138 90.4573 86.0138C89.9453 86.0991 89.476 86.1418 89.0493 86.1418C88.2813 85.9711 87.4706 85.9285 86.6173 86.0138C85.8493 86.0991 85.2946 86.1418 84.9533 86.1418H75.0973C74.9266 84.9471 74.7986 83.7525 74.7133 82.5578C74.628 81.3631 74.5853 80.2111 74.5853 79.1018C74.5853 78.5898 74.5853 77.8645 74.5853 76.9258C74.6706 75.9871 74.7133 75.0058 74.7133 73.9818C74.7133 72.8725 74.7133 71.8485 74.7133 70.9098C74.7133 69.9711 74.6706 69.2458 74.5853 68.7338C74.5853 68.1365 74.628 67.2405 74.7133 66.0458C74.7986 64.7658 74.8413 63.8271 74.8413 63.2298L74.7133 58.8778C74.7133 58.0245 74.6706 57.3418 74.5853 56.8298C74.5853 56.2325 74.5853 55.7205 74.5853 55.2938L74.3293 52.8618C74.3293 52.6911 74.3293 52.4778 74.3293 52.2218C74.4146 51.8805 74.4573 51.6245 74.4573 51.4538C74.116 49.4911 74.0733 47.5711 74.3293 45.6938C74.6706 43.8165 74.756 41.9818 74.5853 40.1898C74.6706 39.5925 74.7133 39.0378 74.7133 38.5258C74.7133 38.0138 74.7133 37.5018 74.7133 36.9898L74.4573 30.3338V28.9258C74.116 28.7551 73.9453 28.6698 73.9453 28.6698C73.86 28.7551 73.8173 28.8405 73.8173 28.9258C72.708 29.9498 71.7266 31.0591 70.8733 32.2538C70.02 33.3631 69.1666 34.6431 68.3133 36.0938L64.3453 42.3658C63.9186 43.1338 63.4066 44.0298 62.8093 45.0538C62.212 45.9925 61.6146 46.9738 61.0173 47.9978C60.42 49.0218 59.8226 50.0031 59.2253 50.9418C58.7133 51.7951 58.2013 52.5205 57.6893 53.1178C57.4333 53.4591 57.0493 53.9711 56.5373 54.6538C56.1106 55.3365 55.5986 56.1045 55.0013 56.9578C54.4893 57.7258 53.9346 58.5365 53.3373 59.3898C52.8253 60.2431 52.3133 61.0111 51.8013 61.6938L51.2893 62.4618C50.8626 62.6325 50.2653 62.7178 49.4973 62.7178C48.8146 62.6325 48.26 62.5898 47.8333 62.5898C47.0653 62.5898 46.2973 62.6325 45.5293 62.7178C44.7613 62.7178 43.9933 62.7178 43.2253 62.7178C42.5426 62.0351 41.86 61.0965 41.1773 59.9018C40.4946 58.7071 39.8973 57.7685 39.3853 57.0858L37.7213 54.6538ZM149.434 84.8618L148.538 84.9898C148.112 85.0751 147.813 85.0751 147.642 84.9898C147.557 84.9898 147.173 84.9898 146.49 84.9898C146.405 84.9898 146.149 85.0325 145.722 85.1178C145.296 85.2031 144.826 85.2885 144.314 85.3738C143.802 85.4591 143.248 85.4591 142.65 85.3738C142.053 85.3738 141.584 85.2885 141.242 85.1178C140.816 85.1178 140.517 85.0751 140.346 84.9898C140.176 84.9045 139.877 84.8618 139.45 84.8618C139.024 84.5205 138.768 84.0085 138.682 83.3258C138.682 82.6431 138.682 82.0885 138.682 81.6618V78.4618L137.658 79.8698L135.354 82.0458C134.501 82.6431 133.776 83.1125 133.178 83.4538C132.666 83.8805 132.026 84.3071 131.258 84.7338C129.978 85.5018 128.57 86.0138 127.034 86.2698C125.584 86.5258 124.218 86.6538 122.938 86.6538C121.658 86.6538 120.293 86.3978 118.842 85.8858C117.477 85.3738 116.24 84.9045 115.13 84.4778C114.789 84.3925 114.448 84.2218 114.106 83.9658C113.85 83.7951 113.594 83.6245 113.338 83.4538C112.826 83.0271 112.229 82.6005 111.546 82.1738C110.949 81.7471 110.437 81.3205 110.01 80.8938C109.754 80.7231 109.498 80.5525 109.242 80.3818C109.072 80.1258 108.816 79.9125 108.474 79.7418C108.048 79.4858 107.664 79.0591 107.322 78.4618C106.896 77.5231 106.341 76.6271 105.658 75.7738C105.061 74.8351 104.549 73.7685 104.122 72.5738C103.866 71.6351 103.525 70.7391 103.098 69.8858C102.672 69.0325 102.458 68.2218 102.458 67.4538C102.458 67.0271 102.416 66.3018 102.33 65.2778C102.245 64.2538 102.202 63.5285 102.202 63.1018C102.202 62.3338 102.202 61.7365 102.202 61.3098C102.288 60.8831 102.33 60.2431 102.33 59.3898C102.33 58.9631 102.373 58.5365 102.458 58.1098C102.629 57.5978 102.8 56.9578 102.97 56.1898C103.141 55.2511 103.269 54.2698 103.354 53.2458C103.44 52.1365 103.568 51.2405 103.738 50.5578C104.336 49.4485 104.72 48.7658 104.89 48.5098C105.146 48.2538 105.36 47.7845 105.53 47.1018C105.701 46.5898 105.914 45.9498 106.17 45.1818C106.512 44.3285 106.981 43.6885 107.578 43.2618C107.834 43.0911 108.218 42.7925 108.73 42.3658C109.242 41.9391 109.754 41.4698 110.266 40.9578C110.864 40.4458 111.376 40.0191 111.802 39.6778C112.229 39.2511 112.528 39.0378 112.698 39.0378L115.002 38.0138C115.685 37.7578 116.453 37.5871 117.306 37.5018C118.16 37.3311 118.97 37.2458 119.738 37.2458L123.706 37.1178C124.133 37.1178 124.602 37.1178 125.114 37.1178C125.712 37.1178 126.096 37.1605 126.266 37.2458C126.693 37.2458 127.12 37.3738 127.546 37.6298C127.973 37.8858 128.4 38.0138 128.826 38.0138C129.253 38.0138 129.765 38.1845 130.362 38.5258C131.045 38.7818 131.6 39.1231 132.026 39.5498C132.88 39.8911 133.52 40.3178 133.946 40.8298C134.458 41.2565 134.928 41.6831 135.354 42.1098C135.781 42.5365 136.165 42.9631 136.506 43.3898C136.933 43.7311 137.36 44.1151 137.786 44.5418C137.786 44.7978 137.957 45.0111 138.298 45.1818C138.469 45.2671 138.597 45.3525 138.682 45.4378C138.853 45.2671 138.938 44.9258 138.938 44.4138C139.024 43.9018 139.194 43.4325 139.45 43.0058C139.536 41.8111 139.578 40.7445 139.578 39.8058C139.664 38.7818 139.749 38.0991 139.834 37.7578C139.749 37.4165 139.792 36.9471 139.962 36.3498C140.133 35.6671 140.432 35.4111 140.858 35.5818C141.029 35.4965 141.413 35.4965 142.01 35.5818C142.608 35.6671 143.29 35.7951 144.058 35.9658C144.826 36.0511 145.594 36.1365 146.362 36.2218C147.216 36.3071 147.941 36.3498 148.538 36.3498C148.624 36.3498 148.666 36.5631 148.666 36.9898C148.666 37.4165 148.624 37.7578 148.538 38.0138L149.306 50.3018V64.1258C149.306 64.3818 149.264 64.6378 149.178 64.8938C149.178 65.1498 149.178 65.4058 149.178 65.6618C149.264 66.4298 149.306 67.2405 149.306 68.0938C149.306 68.8618 149.306 69.6725 149.306 70.5258C149.392 71.1231 149.392 71.7631 149.306 72.4458C149.306 73.0431 149.306 73.6831 149.306 74.3658C149.306 74.8778 149.306 75.6031 149.306 76.5418C149.392 77.3951 149.434 78.2911 149.434 79.2298C149.434 80.1685 149.434 81.0645 149.434 81.9178C149.434 82.8565 149.434 83.6245 149.434 84.2218V84.8618ZM132.922 65.5338V65.1498C132.922 64.6378 133.008 63.5285 133.178 61.8218C133.349 60.0298 132.965 57.8538 132.026 55.2938C131.77 54.6111 131.386 53.8858 130.874 53.1178C130.362 52.3498 129.552 51.7525 128.442 51.3258C127.845 51.1551 127.29 50.9845 126.778 50.8138C126.266 50.5578 125.712 50.4725 125.114 50.5578C124.517 50.7285 123.749 51.1125 122.81 51.7098C121.957 52.3071 121.232 53.0325 120.634 53.8858C120.208 54.3125 119.952 54.7818 119.866 55.2938C119.781 55.8058 119.696 56.4031 119.61 57.0858C119.354 58.1951 119.141 59.0485 118.97 59.6458C118.885 60.2431 118.842 61.0111 118.842 61.9498C118.842 63.6565 119.312 65.1498 120.25 66.4298C121.274 67.7098 121.914 68.5631 122.17 68.9898C122.426 69.2458 122.64 69.4165 122.81 69.5018C123.066 69.5018 123.408 69.7151 123.834 70.1418C124.688 70.5685 125.498 70.6538 126.266 70.3978C127.034 70.0565 127.888 69.6725 128.826 69.2458H129.594C130.362 68.8191 131.002 68.3925 131.514 67.9658C132.026 67.5391 132.496 66.8991 132.922 66.0458V65.5338ZM160.098 47.1018C160.098 46.9311 160.226 46.3765 160.482 45.4378C160.824 44.4991 161.037 43.9871 161.122 43.9018C161.293 43.4751 161.421 43.1338 161.506 42.8778C161.592 42.5365 161.848 42.0671 162.274 41.4698C162.616 41.0431 163.042 40.5311 163.554 39.9338C164.152 39.3365 164.536 38.9098 164.706 38.6538C165.048 38.1418 165.432 37.6725 165.858 37.2458C166.2 36.8191 166.712 36.3925 167.394 35.9658C168.077 35.5391 168.632 35.1125 169.058 34.6858C170.253 34.3445 171.277 34.0031 172.13 33.6618C173.069 33.3205 173.965 33.1498 174.818 33.1498C176.525 33.1498 178.146 33.1925 179.682 33.2778C181.304 33.3631 182.712 33.6191 183.906 34.0458C185.186 34.0458 186.253 34.2165 187.106 34.5578C187.96 34.8138 188.813 35.1551 189.666 35.5818C190.093 36.4351 190.648 37.1178 191.33 37.6298C192.013 38.0565 192.568 38.4831 192.994 38.9098L193.762 39.6778C194.36 39.2511 194.616 38.7818 194.53 38.2698C194.53 37.7578 194.616 37.2885 194.786 36.8618C194.957 36.3498 195.042 35.9231 195.042 35.5818C195.042 35.1551 195.128 34.8565 195.298 34.6858C195.554 34.6005 195.853 34.6005 196.194 34.6858C196.536 34.6858 196.877 34.6858 197.218 34.6858C197.986 34.6858 198.968 34.6431 200.162 34.5578C201.357 34.4725 202.253 34.5151 202.85 34.6858C203.021 34.7711 203.192 34.9418 203.362 35.1978C203.533 35.3685 203.618 35.4965 203.618 35.5818V36.4778C203.618 36.9898 203.618 37.6725 203.618 38.5258C203.704 39.2938 203.746 40.1045 203.746 40.9578C203.746 41.7258 203.704 42.4938 203.618 43.2618C203.618 44.0298 203.618 44.6698 203.618 45.1818C203.618 45.6085 203.576 46.3338 203.49 47.3578C203.49 48.3818 203.49 49.4911 203.49 50.6858C203.49 51.7951 203.49 52.8191 203.49 53.7578C203.49 54.6965 203.533 55.2085 203.618 55.2938C203.618 56.1471 203.576 57.0858 203.49 58.1098C203.405 59.1338 203.405 59.8591 203.49 60.2858L203.618 64.3818C203.704 64.9791 203.661 65.9178 203.49 67.1978C203.405 68.4778 203.448 69.9285 203.618 71.5498C203.704 72.1471 203.704 73.0431 203.618 74.2378C203.618 75.3471 203.576 76.5418 203.49 77.8218C203.49 79.0165 203.448 80.1685 203.362 81.2778C203.362 82.3018 203.362 83.0271 203.362 83.4538C203.362 85.0751 203.064 86.6965 202.466 88.3178C201.954 90.0245 201.485 91.6885 201.058 93.3098C200.632 94.1631 200.205 94.9738 199.778 95.7418C199.352 96.5098 198.712 97.3631 197.858 98.3018C197.517 98.7285 197.133 99.2405 196.706 99.8378C196.28 100.52 195.853 101.075 195.426 101.502C195 102.099 194.232 102.739 193.122 103.422C192.098 104.19 191.373 104.915 190.946 105.598C190.52 106.11 189.794 106.536 188.77 106.878C187.746 107.219 187.021 107.432 186.594 107.518L182.114 109.054C181.346 109.48 180.536 109.822 179.682 110.078C178.914 110.419 177.933 110.632 176.738 110.718C176.568 110.718 176.397 110.675 176.226 110.59C176.056 110.59 175.885 110.632 175.714 110.718C174.861 110.718 174.136 110.803 173.538 110.974C173.026 111.23 172.344 111.358 171.49 111.358H170.722C169.528 111.358 168.717 111.315 168.29 111.23C167.949 111.23 167.053 111.272 165.602 111.358C165.517 111.358 165.261 111.4 164.834 111.486C164.408 111.571 164.194 111.528 164.194 111.358C164.194 109.736 164.109 108.243 163.938 106.878C163.853 105.512 163.81 104.19 163.81 102.91L164.706 102.142H169.058C170.253 101.715 171.32 101.459 172.258 101.374C173.282 101.288 174.434 101.032 175.714 100.606C176.909 99.8378 177.976 99.0698 178.914 98.3018C179.938 97.5338 181.048 96.9365 182.242 96.5098C183.096 95.7418 183.906 94.9311 184.674 94.0778C185.442 93.3098 186.04 92.4991 186.466 91.6458C187.234 90.8778 187.704 90.0671 187.874 89.2138C188.13 88.3605 188.472 87.5071 188.898 86.6538C188.898 85.8858 189.026 85.0751 189.282 84.2218C189.538 83.4538 189.666 82.6431 189.666 81.7898V78.4618C189.666 78.0351 189.538 77.9498 189.282 78.2058C189.112 78.2911 188.984 78.3765 188.898 78.4618C187.704 79.2298 186.296 79.6991 184.674 79.8698C183.053 79.9551 181.432 79.9978 179.81 79.9978H178.914C177.72 79.9125 176.568 79.6565 175.458 79.2298C174.349 78.9738 173.41 78.7178 172.642 78.4618C171.874 78.2058 171.021 77.8218 170.082 77.3098C169.826 77.1391 169.442 76.9685 168.93 76.7978C168.418 76.5418 167.565 76.0725 166.37 75.3898L164.834 73.5978L162.018 70.5258C161.762 70.0991 161.506 69.5445 161.25 68.8618C161.08 68.1791 160.824 67.3685 160.482 66.4298C160.312 65.9178 160.098 65.3631 159.842 64.7658C159.586 64.1685 159.373 63.5285 159.202 62.8458V52.0938C159.202 51.6671 159.288 51.1125 159.458 50.4298C159.714 49.6618 159.842 49.1071 159.842 48.7658C159.842 48.5951 159.885 48.4245 159.97 48.2538C159.97 48.0831 159.97 47.9125 159.97 47.7418C160.056 47.5711 160.098 47.3578 160.098 47.1018ZM179.81 61.1818C180.237 61.1818 180.621 61.1391 180.962 61.0538C181.389 60.9685 181.816 60.7125 182.242 60.2858C182.413 59.9445 182.456 59.6031 182.37 59.2618C182.37 58.8351 182.456 58.5365 182.626 58.3658C183.053 57.6831 183.224 57.2565 183.138 57.0858C183.053 56.9151 183.01 56.6165 183.01 56.1898C183.01 55.7631 182.84 55.2511 182.498 54.6538C182.242 53.9711 181.901 53.4165 181.474 52.9898C181.048 52.5631 180.749 52.3498 180.578 52.3498C180.408 52.3498 179.853 52.5631 178.914 52.9898C178.317 53.5871 178.018 54.8245 178.018 56.7018C178.018 56.8725 177.976 57.2565 177.89 57.8538C177.89 58.4511 177.976 59.0058 178.146 59.5178C178.146 59.6885 178.36 60.0298 178.786 60.5418C179.213 60.9685 179.554 61.1818 179.81 61.1818ZM227.023 70.6538C227.194 72.3605 227.237 73.8965 227.151 75.2618C227.066 76.6271 226.938 77.9071 226.767 79.1018C226.767 79.6138 226.639 79.9978 226.383 80.2538C225.53 80.4245 224.549 80.5951 223.439 80.7658C222.33 80.8511 221.306 80.8511 220.367 80.7658C219.599 80.6805 218.831 80.7231 218.063 80.8938C217.295 80.9791 216.741 81.0218 216.399 81.0218C216.399 80.5098 216.357 80.0405 216.271 79.6138C216.186 79.1871 216.186 78.5898 216.271 77.8218C216.357 77.1391 216.357 76.4138 216.271 75.6458C216.271 74.8778 216.271 74.1525 216.271 73.4698V67.1978C216.186 65.2351 216.143 63.2298 216.143 61.1818C216.143 59.1338 216.101 57.7685 216.015 57.0858C215.93 56.3178 215.93 55.5498 216.015 54.7818C216.186 54.0138 216.271 53.2458 216.271 52.4778C216.186 51.2831 216.143 50.0885 216.143 48.8938C216.229 47.6138 216.271 46.3765 216.271 45.1818C216.271 44.1578 216.229 42.8351 216.143 41.2138C216.058 39.5071 216.101 38.1418 216.271 37.1178C216.954 36.9471 217.807 36.8618 218.831 36.8618C219.855 36.8618 220.965 36.8191 222.159 36.7338C223.098 36.6485 224.037 36.6058 224.975 36.6058C225.914 36.6058 226.597 36.6058 227.023 36.6058C227.194 36.6058 227.237 36.8618 227.151 37.3738C227.151 37.8005 227.151 38.0991 227.151 38.2698C227.066 40.4031 227.066 42.2805 227.151 43.9018C227.237 45.4378 227.194 47.0591 227.023 48.7658C227.109 50.4725 227.109 51.9658 227.023 53.2458C227.023 54.4405 226.938 55.8911 226.767 57.5978C226.767 57.8538 226.767 58.5365 226.767 59.6458C226.767 60.7551 226.81 62.0351 226.895 63.4858C226.981 64.8511 227.023 66.2165 227.023 67.5818C227.023 68.8618 227.023 69.8858 227.023 70.6538ZM216.143 28.4138C216.058 27.9871 216.015 27.3471 216.015 26.4938C216.101 25.6405 216.143 24.7445 216.143 23.8058C216.143 23.3791 216.101 22.9951 216.015 22.6538C216.015 22.3125 216.015 21.9711 216.015 21.6298C216.015 21.4591 216.015 21.3311 216.015 21.2458C216.101 21.1605 216.143 21.0325 216.143 20.8618H225.359C225.786 20.8618 226.042 20.9045 226.127 20.9898C226.213 20.9898 226.255 21.2031 226.255 21.6298V29.9498C225.743 30.0351 224.933 30.0778 223.823 30.0778C222.799 30.0778 221.733 30.0778 220.623 30.0778C219.514 30.0778 218.49 30.0778 217.551 30.0778C216.698 29.9925 216.271 29.8645 216.271 29.6938C216.186 29.4378 216.143 29.0111 216.143 28.4138ZM339.671 65.1498C339.757 65.3205 339.885 65.6191 340.055 66.0458C340.226 66.3871 340.397 66.6005 340.567 66.6858C340.994 66.6858 341.25 66.5151 341.335 66.1738C341.506 65.7471 341.805 65.2778 342.231 64.7658C343.341 62.5471 344.279 60.6698 345.047 59.1338C345.901 57.5125 346.882 55.6778 347.991 53.6298L350.423 47.7418C350.765 47.1445 351.234 46.3338 351.831 45.3098C352.514 44.2005 352.941 43.3471 353.111 42.7498C353.282 42.2378 353.41 41.8538 353.495 41.5978C353.666 41.3418 353.837 40.9151 354.007 40.3178C354.007 40.2325 354.093 39.9765 354.263 39.5498C354.519 39.1231 354.775 38.6965 355.031 38.2698C355.287 37.8431 355.501 37.4591 355.671 37.1178C355.927 36.6911 356.098 36.3925 356.183 36.2218C357.89 36.6485 359.426 37.1178 360.791 37.6298C362.157 38.0565 363.65 38.6965 365.271 39.5498C364.845 40.3178 364.503 40.9578 364.247 41.4698C364.077 41.8965 363.906 42.3658 363.735 42.8778C363.223 43.9018 362.583 44.9685 361.815 46.0778C361.133 47.1018 360.706 47.7845 360.535 48.1258L358.231 53.6298C357.549 54.9098 356.781 56.1898 355.927 57.4698C355.842 57.6405 355.714 57.8965 355.543 58.2378C355.458 58.4938 355.33 58.7071 355.159 58.8778C354.733 59.5605 354.221 60.5418 353.623 61.8218C353.026 63.1018 352.343 64.4671 351.575 65.9178C350.893 67.2831 350.21 68.6058 349.527 69.8858C348.93 71.0805 348.418 71.9338 347.991 72.4458C347.309 73.7258 346.711 74.8351 346.199 75.7738C345.773 76.7125 345.261 77.8218 344.663 79.1018C344.578 79.5285 344.407 79.9551 344.151 80.3818C343.981 80.7231 343.81 81.1071 343.639 81.5338C343.469 81.9605 343.298 82.3871 343.127 82.8138C342.957 83.2405 342.658 83.6671 342.231 84.0938C342.061 84.1791 341.677 84.2645 341.079 84.3498C340.482 84.4351 339.842 84.5205 339.159 84.6058C338.477 84.6911 337.837 84.7338 337.239 84.7338C336.642 84.8191 336.215 84.8191 335.959 84.7338C335.789 84.6485 335.575 84.4351 335.319 84.0938C335.063 83.7525 334.807 83.3685 334.551 82.9418C334.381 82.6005 334.21 82.2165 334.039 81.7898C333.869 81.4485 333.741 81.2351 333.655 81.1498L331.479 78.2058C331.223 77.7791 330.711 76.8831 329.943 75.5178C329.261 74.0671 328.45 72.7445 327.511 71.5498L324.951 66.6858C324.695 66.0885 324.311 65.3205 323.799 64.3818C323.287 63.3578 322.818 62.5898 322.391 62.0778C322.05 61.6511 321.794 61.1818 321.623 60.6698C321.538 60.1578 321.282 59.4325 320.855 58.4938C320.429 58.0671 319.917 57.2138 319.319 55.9338C318.722 54.5685 317.997 53.4591 317.143 52.6058C316.973 52.3498 316.674 51.8805 316.247 51.1978C315.821 50.5151 315.394 49.9178 314.967 49.4058C314.541 48.4671 314.071 47.5711 313.559 46.7178C313.047 45.8645 312.45 44.8405 311.767 43.6458C311.853 43.5605 311.938 43.4325 312.023 43.2618C312.109 43.1765 312.365 42.9631 312.791 42.6218C313.303 42.1951 313.858 41.7258 314.455 41.2138C315.053 40.7018 315.949 40.1898 317.143 39.6778L321.623 36.2218C321.794 36.2218 321.965 36.2645 322.135 36.3498C322.391 36.4351 322.605 36.5205 322.775 36.6058L323.159 36.9898C324.269 38.0991 325.037 39.2511 325.463 40.4458C325.975 41.6405 326.701 42.8351 327.639 44.0298C327.895 44.4565 328.194 45.0538 328.535 45.8218C328.962 46.5898 329.346 47.4005 329.687 48.2538C330.114 49.1071 330.541 49.9178 330.967 50.6858C331.394 51.3685 331.735 51.9231 331.991 52.3498C333.357 54.1418 334.679 56.2751 335.959 58.7498C337.325 61.2245 338.562 63.3578 339.671 65.1498ZM409.876 57.2138C409.876 57.6405 409.663 58.0671 409.236 58.4938C408.98 58.7498 408.596 58.9205 408.084 59.0058C407.572 59.0911 407.103 59.1338 406.676 59.1338C406.079 59.3045 405.354 59.3898 404.5 59.3898C403.647 59.3898 402.922 59.3898 402.324 59.3898C401.13 59.3898 400.234 59.4325 399.636 59.5178C399.039 59.5178 398.058 59.6031 396.692 59.7738L389.012 60.4138V61.9498C389.012 62.8885 389.14 63.8271 389.396 64.7658C389.652 65.6191 390.122 66.5151 390.804 67.4538C391.231 68.1365 391.743 68.7765 392.34 69.3738C392.938 69.9711 393.535 70.3551 394.132 70.5258C394.644 70.6965 395.114 70.8671 395.54 71.0378C395.967 71.2085 396.351 71.3791 396.692 71.5498C397.119 71.6351 397.503 71.6351 397.844 71.5498C400.148 71.5498 401.812 71.2938 402.836 70.7818C403.946 70.2698 405.268 69.6298 406.804 68.8618C407.146 68.8618 407.487 68.6911 407.828 68.3498C408.255 68.0085 408.554 67.7951 408.724 67.7098C409.151 67.5391 409.748 67.1125 410.516 66.4298C411.37 65.7471 412.01 65.3205 412.436 65.1498C412.692 65.3205 412.778 65.9178 412.692 66.9418C412.607 67.8805 412.65 68.7765 412.82 69.6298V71.0378V73.5978C412.394 74.1098 412.052 74.4938 411.796 74.7498C411.626 74.9205 411.455 75.0911 411.284 75.2618C411.199 75.4325 411.028 75.6458 410.772 75.9018C410.516 76.1578 410.132 76.5418 409.62 77.0538C408.084 78.5898 406.463 79.6138 404.756 80.1258C403.818 80.6378 402.794 81.0218 401.684 81.2778C400.575 81.4485 399.679 81.6618 398.996 81.9178C398.57 82.0031 398.186 82.0458 397.844 82.0458C397.503 82.1311 397.162 82.1738 396.82 82.1738H395.796C394.175 82.1738 392.596 82.1311 391.06 82.0458C389.524 82.0458 387.903 81.6191 386.196 80.7658C385.599 80.8511 384.746 80.6805 383.636 80.2538C382.612 79.8271 381.93 79.4005 381.588 78.9738C380.65 78.4618 379.796 77.8218 379.028 77.0538C378.346 76.2858 377.578 75.6031 376.724 75.0058C375.53 74.1525 374.676 73.2565 374.164 72.3178C373.652 71.3791 373.183 70.3978 372.756 69.3738C372.33 68.6058 371.946 67.7525 371.604 66.8138C371.263 65.8751 370.922 64.9365 370.58 63.9978C370.58 63.0591 370.538 62.1631 370.452 61.3098C370.452 60.4565 370.452 59.6031 370.452 58.7498V54.0138C370.452 52.4778 370.751 50.6431 371.348 48.5098C372.031 46.3765 372.842 44.5418 373.78 43.0058C374.036 42.6645 374.335 42.3231 374.676 41.9818C374.932 41.6405 375.231 41.2991 375.572 40.9578C375.999 40.6165 376.426 40.2325 376.852 39.8058C377.108 39.7205 377.364 39.5925 377.62 39.4218C377.962 39.2511 378.431 38.9951 379.028 38.6538C379.284 38.4831 379.583 38.1845 379.924 37.7578C380.351 37.3311 380.906 37.0325 381.588 36.8618C382.527 36.5205 383.423 36.1791 384.276 35.8378C385.13 35.4111 385.77 35.1978 386.196 35.1978C386.794 35.1978 387.86 35.2405 389.396 35.3258C391.018 35.4111 392.554 35.4965 394.004 35.5818C394.772 35.6671 395.412 35.7951 395.924 35.9658C396.436 36.1365 396.82 36.2218 397.076 36.2218C397.759 36.3071 398.314 36.3925 398.74 36.4778C399.252 36.5631 399.764 36.6911 400.276 36.8618C401.812 37.3738 402.922 37.9285 403.604 38.5258C404.372 39.0378 405.012 39.5925 405.524 40.1898C405.866 40.6165 406.164 41.1285 406.42 41.7258C406.762 42.2378 407.103 42.7071 407.444 43.1338C407.871 43.6458 408.255 44.3711 408.596 45.3098C409.023 46.1631 409.322 47.0165 409.492 47.8698C409.663 48.5525 409.791 49.4485 409.876 50.5578C409.962 51.6671 410.004 52.6485 410.004 53.5018C410.004 54.3551 409.962 54.9951 409.876 55.4218C409.876 55.8485 409.876 56.4458 409.876 57.2138ZM398.868 49.7898C398.868 49.6191 398.868 49.3205 398.868 48.8938C398.868 48.3818 398.783 48.0405 398.612 47.8698C397.93 46.7605 396.948 46.1205 395.668 45.9498C394.474 45.6938 393.407 45.6511 392.468 45.8218C391.871 45.9925 391.487 46.2058 391.316 46.4618C391.146 46.7178 390.89 47.1018 390.548 47.6138C390.378 47.7845 390.25 47.9551 390.164 48.1258C390.079 48.2965 389.951 48.4671 389.78 48.6378C389.61 48.8085 389.482 49.0645 389.396 49.4058C389.396 49.6618 389.354 49.9178 389.268 50.1738C389.098 50.6005 389.012 50.8991 389.012 51.0698C389.012 51.2405 389.098 51.6671 389.268 52.3498C389.61 52.5205 390.25 52.6911 391.188 52.8618C392.212 52.9471 393.236 52.9898 394.26 52.9898C395.37 52.9898 396.394 52.9471 397.332 52.8618C398.356 52.6911 399.039 52.5205 399.38 52.3498C399.466 52.2645 399.38 52.0511 399.124 51.7098C398.954 51.2831 398.868 50.6431 398.868 49.7898ZM423.393 38.1418C423.393 37.8858 423.351 37.6298 423.265 37.3738C423.18 37.1178 423.18 36.8618 423.265 36.6058C423.351 36.6058 423.479 36.6058 423.649 36.6058C423.905 36.5205 424.119 36.4778 424.289 36.4778H425.057C425.484 36.3925 425.911 36.3925 426.337 36.4778C426.764 36.4778 427.191 36.4351 427.617 36.3498H431.457C431.628 36.3498 431.799 36.4351 431.969 36.6058C432.14 36.7765 432.268 36.9045 432.353 36.9898L432.609 38.1418C432.609 38.3978 432.652 38.6965 432.737 39.0378C432.908 39.7205 432.993 40.4458 432.993 41.2138C433.079 41.4698 433.121 41.7258 433.121 41.9818C433.121 42.4938 433.164 42.7498 433.249 42.7498C433.591 42.4085 433.847 42.0671 434.017 41.7258C434.188 41.2991 434.401 41.0005 434.657 40.8298C434.913 40.5738 435.084 40.4031 435.169 40.3178C435.34 40.2325 435.468 40.1471 435.553 40.0618C435.724 39.9765 435.937 39.8911 436.193 39.8058C436.449 39.6351 436.833 39.3791 437.345 39.0378C438.113 38.6111 438.796 38.2698 439.393 38.0138C440.076 37.7578 441.1 37.2885 442.465 36.6058C442.721 36.5205 443.148 36.3925 443.745 36.2218C444.428 36.0511 445.153 35.9231 445.921 35.8378C446.689 35.6671 447.457 35.5818 448.225 35.5818C449.079 35.4965 449.804 35.4538 450.401 35.4538C451.34 35.5391 452.108 35.6671 452.705 35.8378C453.303 35.9231 454.113 36.0511 455.137 36.2218C455.564 36.3071 456.247 36.3925 457.185 36.4778C458.209 36.5631 458.892 36.6911 459.233 36.8618C461.367 38.0565 463.073 39.0805 464.353 39.9338C465.633 40.7871 466.743 41.9391 467.681 43.3898C467.852 43.5605 468.108 43.7738 468.449 44.0298C468.791 44.2005 469.175 44.4991 469.601 44.9258C470.028 45.3525 470.412 45.9498 470.753 46.7178C471.18 47.4005 471.393 47.8271 471.393 47.9978C471.735 49.4485 472.119 50.6431 472.545 51.5818C472.972 52.4351 473.228 53.5871 473.313 55.0378C473.399 55.7205 473.612 56.4885 473.953 57.3418C474.295 58.1098 474.465 58.9205 474.465 59.7738C474.465 60.6271 474.508 61.6085 474.593 62.7178C474.679 63.7418 474.636 65.2351 474.465 67.1978C474.465 67.7951 474.465 68.3498 474.465 68.8618C474.551 69.3738 474.593 69.8858 474.593 70.3978V76.2858C474.593 76.8831 474.593 77.4378 474.593 77.9498C474.593 78.4618 474.551 78.9738 474.465 79.4858C474.465 80.1685 474.465 80.7658 474.465 81.2778C474.551 81.7898 474.593 82.3871 474.593 83.0698C474.593 83.2405 474.593 83.4111 474.593 83.5818C474.593 83.8378 474.508 84.0085 474.337 84.0938C474.167 84.1791 473.911 84.2218 473.569 84.2218C473.313 84.2218 473.1 84.2218 472.929 84.2218C472.161 84.2218 471.436 84.2218 470.753 84.2218C470.071 84.3071 469.345 84.3071 468.577 84.2218L464.737 83.8378C464.396 83.7525 463.927 83.7525 463.329 83.8378C462.732 83.9231 462.348 83.7951 462.177 83.4538C462.092 81.4911 462.049 80.1258 462.049 79.3578C462.135 78.5045 462.177 77.7365 462.177 77.0538C462.177 76.6271 462.135 76.1151 462.049 75.5178C461.964 74.8351 461.879 73.9391 461.793 72.8298L462.177 66.0458C462.177 65.1925 462.135 64.5525 462.049 64.1258C462.049 63.6138 462.007 63.2298 461.921 62.9738C461.921 62.6325 461.879 62.2485 461.793 61.8218C461.793 61.3951 461.793 60.7125 461.793 59.7738C461.793 58.2378 461.495 56.7018 460.897 55.1658C460.385 53.6298 459.745 52.0938 458.977 50.5578C458.551 49.7045 457.996 48.9365 457.313 48.2538C456.631 47.5711 455.735 46.9738 454.625 46.4618C454.455 46.3765 454.241 46.2911 453.985 46.2058C453.729 46.1205 453.516 46.0778 453.345 46.0778L450.401 45.8218C448.951 45.7365 447.457 45.9925 445.921 46.5898C444.385 47.1871 443.447 47.7845 443.105 48.3818C442.508 49.4058 442.039 50.1738 441.697 50.6858C441.356 51.1978 441.015 51.7098 440.673 52.2218C440.588 52.4778 440.46 52.9471 440.289 53.6298C440.119 54.2271 439.905 54.9951 439.649 55.9338C439.479 56.7871 439.308 57.7258 439.137 58.7498C438.967 59.6885 438.881 60.5418 438.881 61.3098C438.881 61.9071 438.881 62.5045 438.881 63.1018C438.881 63.6138 438.839 64.1258 438.753 64.6378L438.497 68.2218L437.729 73.0858C437.729 73.9391 437.729 74.8778 437.729 75.9018C437.729 76.8405 437.687 77.7365 437.601 78.5898V81.5338C437.089 81.8751 436.663 82.0458 436.321 82.0458C435.383 82.2165 434.7 82.3871 434.273 82.5578C433.932 82.7285 433.249 82.7711 432.225 82.6858C431.287 82.6005 430.049 82.6005 428.513 82.6858C426.977 82.8565 425.74 82.8565 424.801 82.6858C423.863 82.5151 423.393 82.3871 423.393 82.3018C423.393 82.3018 423.393 82.0885 423.393 81.6618C423.393 81.3205 423.393 80.8085 423.393 80.1258C423.479 79.3578 423.521 78.5898 423.521 77.8218C423.521 76.9685 423.521 76.1578 423.521 75.3898C423.607 74.6218 423.649 74.0245 423.649 73.5978C423.649 72.0618 423.607 70.7818 423.521 69.7578C423.436 68.7338 423.393 67.4538 423.393 65.9178C423.393 64.6378 423.351 63.6138 423.265 62.8458C423.265 61.9925 423.223 60.9258 423.137 59.6458C423.137 58.9631 423.18 58.1098 423.265 57.0858C423.351 55.9765 423.393 54.8245 423.393 53.6298C423.393 52.1791 423.351 50.7711 423.265 49.4058C423.265 48.0405 423.265 47.0165 423.265 46.3338C423.18 44.8831 423.137 43.5178 423.137 42.2378C423.137 40.8725 423.223 39.5071 423.393 38.1418ZM487.768 38.1418C487.768 37.8858 487.726 37.6298 487.64 37.3738C487.555 37.1178 487.555 36.8618 487.64 36.6058C487.726 36.6058 487.854 36.6058 488.024 36.6058C488.28 36.5205 488.494 36.4778 488.664 36.4778H489.432C489.859 36.3925 490.286 36.3925 490.712 36.4778C491.139 36.4778 491.566 36.4351 491.992 36.3498H495.832C496.003 36.3498 496.174 36.4351 496.344 36.6058C496.515 36.7765 496.643 36.9045 496.728 36.9898L496.984 38.1418C496.984 38.3978 497.027 38.6965 497.112 39.0378C497.283 39.7205 497.368 40.4458 497.368 41.2138C497.454 41.4698 497.496 41.7258 497.496 41.9818C497.496 42.4938 497.539 42.7498 497.624 42.7498C497.966 42.4085 498.222 42.0671 498.392 41.7258C498.563 41.2991 498.776 41.0005 499.032 40.8298C499.288 40.5738 499.459 40.4031 499.544 40.3178C499.715 40.2325 499.843 40.1471 499.928 40.0618C500.099 39.9765 500.312 39.8911 500.568 39.8058C500.824 39.6351 501.208 39.3791 501.72 39.0378C502.488 38.6111 503.171 38.2698 503.768 38.0138C504.451 37.7578 505.475 37.2885 506.84 36.6058C507.096 36.5205 507.523 36.3925 508.12 36.2218C508.803 36.0511 509.528 35.9231 510.296 35.8378C511.064 35.6671 511.832 35.5818 512.6 35.5818C513.454 35.4965 514.179 35.4538 514.776 35.4538C515.715 35.5391 516.483 35.6671 517.08 35.8378C517.678 35.9231 518.488 36.0511 519.512 36.2218C519.939 36.3071 520.622 36.3925 521.56 36.4778C522.584 36.5631 523.267 36.6911 523.608 36.8618C525.742 38.0565 527.448 39.0805 528.728 39.9338C530.008 40.7871 531.118 41.9391 532.056 43.3898C532.227 43.5605 532.483 43.7738 532.824 44.0298C533.166 44.2005 533.55 44.4991 533.976 44.9258C534.403 45.3525 534.787 45.9498 535.128 46.7178C535.555 47.4005 535.768 47.8271 535.768 47.9978C536.11 49.4485 536.494 50.6431 536.92 51.5818C537.347 52.4351 537.603 53.5871 537.688 55.0378C537.774 55.7205 537.987 56.4885 538.328 57.3418C538.67 58.1098 538.84 58.9205 538.84 59.7738C538.84 60.6271 538.883 61.6085 538.968 62.7178C539.054 63.7418 539.011 65.2351 538.84 67.1978C538.84 67.7951 538.84 68.3498 538.84 68.8618C538.926 69.3738 538.968 69.8858 538.968 70.3978V76.2858C538.968 76.8831 538.968 77.4378 538.968 77.9498C538.968 78.4618 538.926 78.9738 538.84 79.4858C538.84 80.1685 538.84 80.7658 538.84 81.2778C538.926 81.7898 538.968 82.3871 538.968 83.0698C538.968 83.2405 538.968 83.4111 538.968 83.5818C538.968 83.8378 538.883 84.0085 538.712 84.0938C538.542 84.1791 538.286 84.2218 537.944 84.2218C537.688 84.2218 537.475 84.2218 537.304 84.2218C536.536 84.2218 535.811 84.2218 535.128 84.2218C534.446 84.3071 533.72 84.3071 532.952 84.2218L529.112 83.8378C528.771 83.7525 528.302 83.7525 527.704 83.8378C527.107 83.9231 526.723 83.7951 526.552 83.4538C526.467 81.4911 526.424 80.1258 526.424 79.3578C526.51 78.5045 526.552 77.7365 526.552 77.0538C526.552 76.6271 526.51 76.1151 526.424 75.5178C526.339 74.8351 526.254 73.9391 526.168 72.8298L526.552 66.0458C526.552 65.1925 526.51 64.5525 526.424 64.1258C526.424 63.6138 526.382 63.2298 526.296 62.9738C526.296 62.6325 526.254 62.2485 526.168 61.8218C526.168 61.3951 526.168 60.7125 526.168 59.7738C526.168 58.2378 525.87 56.7018 525.272 55.1658C524.76 53.6298 524.12 52.0938 523.352 50.5578C522.926 49.7045 522.371 48.9365 521.688 48.2538C521.006 47.5711 520.11 46.9738 519 46.4618C518.83 46.3765 518.616 46.2911 518.36 46.2058C518.104 46.1205 517.891 46.0778 517.72 46.0778L514.776 45.8218C513.326 45.7365 511.832 45.9925 510.296 46.5898C508.76 47.1871 507.822 47.7845 507.48 48.3818C506.883 49.4058 506.414 50.1738 506.072 50.6858C505.731 51.1978 505.39 51.7098 505.048 52.2218C504.963 52.4778 504.835 52.9471 504.664 53.6298C504.494 54.2271 504.28 54.9951 504.024 55.9338C503.854 56.7871 503.683 57.7258 503.512 58.7498C503.342 59.6885 503.256 60.5418 503.256 61.3098C503.256 61.9071 503.256 62.5045 503.256 63.1018C503.256 63.6138 503.214 64.1258 503.128 64.6378L502.872 68.2218L502.104 73.0858C502.104 73.9391 502.104 74.8778 502.104 75.9018C502.104 76.8405 502.062 77.7365 501.976 78.5898V81.5338C501.464 81.8751 501.038 82.0458 500.696 82.0458C499.758 82.2165 499.075 82.3871 498.648 82.5578C498.307 82.7285 497.624 82.7711 496.6 82.6858C495.662 82.6005 494.424 82.6005 492.888 82.6858C491.352 82.8565 490.115 82.8565 489.176 82.6858C488.238 82.5151 487.768 82.3871 487.768 82.3018C487.768 82.3018 487.768 82.0885 487.768 81.6618C487.768 81.3205 487.768 80.8085 487.768 80.1258C487.854 79.3578 487.896 78.5898 487.896 77.8218C487.896 76.9685 487.896 76.1578 487.896 75.3898C487.982 74.6218 488.024 74.0245 488.024 73.5978C488.024 72.0618 487.982 70.7818 487.896 69.7578C487.811 68.7338 487.768 67.4538 487.768 65.9178C487.768 64.6378 487.726 63.6138 487.64 62.8458C487.64 61.9925 487.598 60.9258 487.512 59.6458C487.512 58.9631 487.555 58.1098 487.64 57.0858C487.726 55.9765 487.768 54.8245 487.768 53.6298C487.768 52.1791 487.726 50.7711 487.64 49.4058C487.64 48.0405 487.64 47.0165 487.64 46.3338C487.555 44.8831 487.512 43.5178 487.512 42.2378C487.512 40.8725 487.598 39.5071 487.768 38.1418ZM588.751 57.2138C588.751 57.6405 588.538 58.0671 588.111 58.4938C587.855 58.7498 587.471 58.9205 586.959 59.0058C586.447 59.0911 585.978 59.1338 585.551 59.1338C584.954 59.3045 584.229 59.3898 583.375 59.3898C582.522 59.3898 581.797 59.3898 581.199 59.3898C580.005 59.3898 579.109 59.4325 578.511 59.5178C577.914 59.5178 576.933 59.6031 575.567 59.7738L567.887 60.4138V61.9498C567.887 62.8885 568.015 63.8271 568.271 64.7658C568.527 65.6191 568.997 66.5151 569.679 67.4538C570.106 68.1365 570.618 68.7765 571.215 69.3738C571.813 69.9711 572.41 70.3551 573.007 70.5258C573.519 70.6965 573.989 70.8671 574.415 71.0378C574.842 71.2085 575.226 71.3791 575.567 71.5498C575.994 71.6351 576.378 71.6351 576.719 71.5498C579.023 71.5498 580.687 71.2938 581.711 70.7818C582.821 70.2698 584.143 69.6298 585.679 68.8618C586.021 68.8618 586.362 68.6911 586.703 68.3498C587.13 68.0085 587.429 67.7951 587.599 67.7098C588.026 67.5391 588.623 67.1125 589.391 66.4298C590.245 65.7471 590.885 65.3205 591.311 65.1498C591.567 65.3205 591.653 65.9178 591.567 66.9418C591.482 67.8805 591.525 68.7765 591.695 69.6298V71.0378V73.5978C591.269 74.1098 590.927 74.4938 590.671 74.7498C590.501 74.9205 590.33 75.0911 590.159 75.2618C590.074 75.4325 589.903 75.6458 589.647 75.9018C589.391 76.1578 589.007 76.5418 588.495 77.0538C586.959 78.5898 585.338 79.6138 583.631 80.1258C582.693 80.6378 581.669 81.0218 580.559 81.2778C579.45 81.4485 578.554 81.6618 577.871 81.9178C577.445 82.0031 577.061 82.0458 576.719 82.0458C576.378 82.1311 576.037 82.1738 575.695 82.1738H574.671C573.05 82.1738 571.471 82.1311 569.935 82.0458C568.399 82.0458 566.778 81.6191 565.071 80.7658C564.474 80.8511 563.621 80.6805 562.511 80.2538C561.487 79.8271 560.805 79.4005 560.463 78.9738C559.525 78.4618 558.671 77.8218 557.903 77.0538C557.221 76.2858 556.453 75.6031 555.599 75.0058C554.405 74.1525 553.551 73.2565 553.039 72.3178C552.527 71.3791 552.058 70.3978 551.631 69.3738C551.205 68.6058 550.821 67.7525 550.479 66.8138C550.138 65.8751 549.797 64.9365 549.455 63.9978C549.455 63.0591 549.413 62.1631 549.327 61.3098C549.327 60.4565 549.327 59.6031 549.327 58.7498V54.0138C549.327 52.4778 549.626 50.6431 550.223 48.5098C550.906 46.3765 551.717 44.5418 552.655 43.0058C552.911 42.6645 553.21 42.3231 553.551 41.9818C553.807 41.6405 554.106 41.2991 554.447 40.9578C554.874 40.6165 555.301 40.2325 555.727 39.8058C555.983 39.7205 556.239 39.5925 556.495 39.4218C556.837 39.2511 557.306 38.9951 557.903 38.6538C558.159 38.4831 558.458 38.1845 558.799 37.7578C559.226 37.3311 559.781 37.0325 560.463 36.8618C561.402 36.5205 562.298 36.1791 563.151 35.8378C564.005 35.4111 564.645 35.1978 565.071 35.1978C565.669 35.1978 566.735 35.2405 568.271 35.3258C569.893 35.4111 571.429 35.4965 572.879 35.5818C573.647 35.6671 574.287 35.7951 574.799 35.9658C575.311 36.1365 575.695 36.2218 575.951 36.2218C576.634 36.3071 577.189 36.3925 577.615 36.4778C578.127 36.5631 578.639 36.6911 579.151 36.8618C580.687 37.3738 581.797 37.9285 582.479 38.5258C583.247 39.0378 583.887 39.5925 584.399 40.1898C584.741 40.6165 585.039 41.1285 585.295 41.7258C585.637 42.2378 585.978 42.7071 586.319 43.1338C586.746 43.6458 587.13 44.3711 587.471 45.3098C587.898 46.1631 588.197 47.0165 588.367 47.8698C588.538 48.5525 588.666 49.4485 588.751 50.5578C588.837 51.6671 588.879 52.6485 588.879 53.5018C588.879 54.3551 588.837 54.9951 588.751 55.4218C588.751 55.8485 588.751 56.4458 588.751 57.2138ZM577.743 49.7898C577.743 49.6191 577.743 49.3205 577.743 48.8938C577.743 48.3818 577.658 48.0405 577.487 47.8698C576.805 46.7605 575.823 46.1205 574.543 45.9498C573.349 45.6938 572.282 45.6511 571.343 45.8218C570.746 45.9925 570.362 46.2058 570.191 46.4618C570.021 46.7178 569.765 47.1018 569.423 47.6138C569.253 47.7845 569.125 47.9551 569.039 48.1258C568.954 48.2965 568.826 48.4671 568.655 48.6378C568.485 48.8085 568.357 49.0645 568.271 49.4058C568.271 49.6618 568.229 49.9178 568.143 50.1738C567.973 50.6005 567.887 50.8991 567.887 51.0698C567.887 51.2405 567.973 51.6671 568.143 52.3498C568.485 52.5205 569.125 52.6911 570.063 52.8618C571.087 52.9471 572.111 52.9898 573.135 52.9898C574.245 52.9898 575.269 52.9471 576.207 52.8618C577.231 52.6911 577.914 52.5205 578.255 52.3498C578.341 52.2645 578.255 52.0511 577.999 51.7098C577.829 51.2831 577.743 50.6431 577.743 49.7898ZM600.348 65.4058C600.348 64.8085 600.348 63.9125 600.348 62.7178C600.434 61.5231 600.434 60.3711 600.348 59.2618C600.434 58.4938 600.476 57.7258 600.476 56.9578C600.476 56.1898 600.476 55.3791 600.476 54.5258L600.092 44.1578V38.3978C601.031 38.3978 602.012 38.3978 603.036 38.3978C604.06 38.3125 605.212 38.3551 606.492 38.5258C606.834 38.6111 607.175 38.6538 607.516 38.6538H609.308C609.906 38.8245 610.204 38.9098 610.204 38.9098C610.204 38.8245 610.332 38.8671 610.588 39.0378C610.588 39.4645 610.546 39.8058 610.46 40.0618C610.375 40.2325 610.332 40.5311 610.332 40.9578V45.0538C610.674 44.6271 610.887 44.2858 610.972 44.0298C611.143 43.6885 611.442 43.3045 611.868 42.8778L612.636 42.6218C613.746 41.5125 615.111 40.7871 616.732 40.4458C618.354 40.1045 619.975 40.0191 621.596 40.1898C621.938 40.1898 622.492 40.3605 623.26 40.7018C624.028 40.9578 624.796 41.2991 625.564 41.7258C626.162 41.8111 626.674 41.9818 627.1 42.2378L627.484 42.6218C628.338 43.3898 629.148 44.0725 629.916 44.6698C630.684 45.1818 631.239 45.8645 631.58 46.7178C632.434 47.9125 633.116 49.1925 633.628 50.5578C634.14 51.9231 634.61 53.4165 635.036 55.0378C635.036 55.4645 634.994 55.8485 634.908 56.1898C634.823 56.5311 634.567 56.7018 634.14 56.7018C632.86 57.1285 631.666 57.3418 630.556 57.3418C629.532 57.2565 628.124 57.2991 626.332 57.4698H624.924C624.754 57.3845 624.626 57.2565 624.54 57.0858C624.54 56.9151 624.54 56.7871 624.54 56.7018C624.455 56.1898 624.327 55.7631 624.156 55.4218C624.071 54.9951 624.028 54.6538 624.028 54.3978C624.028 54.2271 623.986 54.0138 623.9 53.7578C623.815 53.5018 623.73 53.2885 623.644 53.1178C623.474 52.8618 623.346 52.6485 623.26 52.4778C621.639 50.8565 620.06 50.0458 618.524 50.0458C618.354 50.0458 618.098 50.0458 617.756 50.0458C617.5 50.0458 617.244 50.1311 616.988 50.3018C616.562 50.4725 615.922 50.7711 615.068 51.1978C614.3 51.5391 613.788 51.8378 613.532 52.0938C613.106 52.5205 612.636 52.9898 612.124 53.5018C611.698 53.9285 611.356 54.4405 611.1 55.0378C611.015 55.3791 610.93 55.9765 610.844 56.8298C610.844 57.5978 610.844 58.0671 610.844 58.2378C610.674 59.0058 610.503 60.0298 610.332 61.3098C610.162 62.5898 610.076 63.6991 610.076 64.6378C610.076 65.2351 609.991 66.0031 609.82 66.9418C609.735 67.8805 609.692 68.7338 609.692 69.5018C609.692 70.0991 609.65 70.6538 609.564 71.1658C609.564 71.6778 609.564 72.1898 609.564 72.7018V77.5658C609.564 78.0778 609.522 78.6325 609.436 79.2298C609.436 79.8271 609.436 80.4245 609.436 81.0218V83.8378C605.17 84.7765 602.226 84.7765 600.604 83.8378C600.434 83.2405 600.306 82.5151 600.22 81.6618C600.135 80.7231 600.135 80.1685 600.22 79.9978C600.391 78.4618 600.434 76.9258 600.348 75.3898C600.263 73.8538 600.22 72.2751 600.22 70.6538C600.135 69.8005 600.135 68.9045 600.22 67.9658C600.306 67.0271 600.348 66.1738 600.348 65.4058Z" fill="#F4BA35"/>
</svg>
