<?xml version="1.0" encoding="UTF-8"?><svg id="Lag_1" xmlns="http://www.w3.org/2000/svg" width="90" height="95" viewBox="0 0 90 95"><defs><style>.cls-1{fill:#f3e296;stroke-width:0px;}</style></defs><path class="cls-1" d="M28.82,48.41c1.05-11.61-3.37-22.99-8.46-33.48-1.16-2.39-2.39-4.88-2.38-7.54s1.7-5.52,4.34-5.89c3.4-.47,5.84,3.1,7.4,6.16,5.37,10.46,12.57,21.99,24.2,23.73,10.01,1.5,19.32-4.96,29.17-7.31,1.87-.45,4.54-.23,4.8,1.67.13.96-.5,1.84-1.14,2.56-2.71,3.11-6.12,5.6-9.9,7.23-2.95,1.27-6.64,2.58-7.21,5.74-.21,1.17.08,2.37.46,3.5,3.56,10.74,14.2,18.61,15.56,29.84-4.39,2.62-10.07.56-14.36-2.22s-8.42-6.37-13.5-6.9c2.78,5.86,4.32,12.3,4.49,18.78.11,4.33-2.24,10.14-6.45,9.13-1.27-.3-2.3-1.22-3.17-2.19-6.62-7.32-8.27-19.22-17.07-23.67-2.98-1.51-6.38-1.89-9.7-2.25-6.06-.66-12.11-1.32-18.17-1.98-2.13-.23-4.67-.76-5.44-2.77-.86-2.26,1.21-4.52,3.23-5.84,6.94-4.53,16.4-4.76,23.12-5.83"/></svg>