<?xml version="1.0" encoding="UTF-8"?><svg id="Lag_1" xmlns="http://www.w3.org/2000/svg" width="185" height="185" viewBox="0 0 185 185"><defs><style>.cls-1{fill:#f3e296;stroke-width:0px;}</style></defs><path class="cls-1" d="M74.33,78.13c11.96-19.91,19.58-42.06,27.56-63.86,1.23-3.36,2.54-6.82,5.03-9.39s6.53-4,9.75-2.43c4.43,2.15,4.92,8.15,4.8,13.07-.43,16.95-.87,33.9-1.3,50.85-.14,5.47.1,11.79,4.4,15.17,2.8,2.2,6.59,2.5,10.14,2.72,12.89.78,25.78,1.57,38.67,2.35,4.21.26,9.84,2.12,9.25,6.3-.45,3.13-4.21,4.38-7.31,4.98-13.63,2.64-27.25,5.28-40.88,7.93-4.2.81-8.78,1.86-11.35,5.28-3.46,4.6-1.65,11.11.27,16.54,5.08,14.33,10,28.72,14.77,43.16,1.38,4.19,2.14,10-1.83,11.94-3.89,1.9-7.96-2.06-10.49-5.57-10.08-14.02-20.16-28.03-30.24-42.05-1.28-1.78-2.89-3.75-5.09-3.79-2.68-.05-4.42,2.73-5.58,5.15-7.73,16.13-15.07,33.19-28.51,45-.57.5-1.18,1-1.91,1.19-3.16.81-4.38-3.99-3.93-7.22,2.26-16.07,6.23-31.9,11.82-47.14,1.63-4.43,3.4-9.36,1.62-13.73-2.25-5.53-8.94-7.49-14.77-8.76-13.86-3.01-27.73-6.03-41.59-9.04-1.96-.43-4.2-1.07-5.01-2.9-1.56-3.51,3.39-6.25,7.2-6.73,21.67-2.74,51.44,6.02,64.3-8.35"/></svg>