<svg width="235" height="68" viewBox="0 0 235 68" fill="none" xmlns="http://www.w3.org/2000/svg">
<g clip-path="url(#clip0_140_29047)">
<path d="M233.091 64.801C233.056 65.5554 233.424 65.2846 233.481 65.4007C233.401 64.1337 232.999 64.8397 233.091 64.801Z" fill="#FFFBEF"/>
<path d="M232.276 52.3439L232.425 52.5664L232.058 50.7288L232.276 52.3439Z" fill="#FFFBEF"/>
<path d="M232.275 40.699C231.656 41.8016 232.379 44.9159 232.161 46.9953L232.023 47.3338L232.517 48.272C232.436 45.7477 232.115 42.4786 232.287 40.699H232.275Z" fill="#FFFBEF"/>
<path d="M233.608 34.48C233.367 34.8668 233.401 33.1356 233.527 35.9307C233.562 35.7953 233.573 35.747 233.585 35.6696C233.585 35.4181 233.585 35.0699 233.596 34.48H233.608Z" fill="#FFFBEF"/>
<path d="M233.596 35.6696C233.608 36.8979 233.805 34.8668 233.596 35.6696V35.6696Z" fill="#FFFBEF"/>
<path d="M233.458 30.002L233.677 31.6172C233.814 31.2787 233.849 29.8376 233.952 30.3792C233.837 28.7253 233.7 29.0638 233.458 30.002Z" fill="#FFFBEF"/>
<path d="M233.011 28.4739L233.102 29.3153C233.159 29.1702 233.182 28.9478 233.011 28.4739Z" fill="#FFFBEF"/>
<path d="M233.286 31.0853L233.091 29.3057C232.988 29.5378 232.792 29.5668 233.16 30.1181C232.976 29.973 233.16 30.3212 233.286 31.0756V31.0853Z" fill="#FFFBEF"/>
<path d="M233.194 32.0911C233.056 33.0002 232.976 34.1705 232.758 32.5456C232.838 35.6406 233.274 35.186 233.194 32.0911Z" fill="#FFFBEF"/>
<path d="M231.644 40.0994L231.46 41.3084L231.667 42.3529C231.564 41.8307 231.839 40.022 231.644 40.0897V40.0994Z" fill="#FFFBEF"/>
<path d="M233.78 19.9433C233.654 19.8466 233.435 20.4849 233.263 20.6106L233.412 21.8003C233.504 21.1909 233.585 20.0207 233.78 19.9433Z" fill="#FFFBEF"/>
<path d="M233.263 20.601L233.033 18.8118C233.011 20.4076 233.114 20.6978 233.263 20.601Z" fill="#FFFBEF"/>
<path d="M232.322 28.1838L232.804 31.1143L232.322 27.6228V28.1838Z" fill="#FFFBEF"/>
<path d="M233.791 13.115L234.09 14.1305L233.642 12.3315L233.791 13.115Z" fill="#FFFBEF"/>
<path d="M233.745 8.59841C233.998 9.34314 234.17 7.5732 234.319 8.36629C234.296 7.7473 234.228 7.18633 234.147 6.64471C234.044 6.09342 233.952 5.57114 233.86 5.07788C233.883 5.34869 233.895 5.62917 233.918 5.90966C233.918 6.17079 233.918 6.4416 233.918 6.72209C233.895 7.29272 233.837 7.90205 233.734 8.59841H233.745Z" fill="#FFFBEF"/>
<path d="M233.584 2.26318C233.642 3.12397 233.757 4.02345 233.872 5.07768C233.814 4.09115 233.734 3.13365 233.584 2.26318Z" fill="#FFFBEF"/>
<path d="M233.103 15.7747C233.183 15.6393 233.39 15.3685 233.481 14.3723L233.114 15.0784C233.114 15.2911 233.114 15.5329 233.114 15.7844L233.103 15.7747Z" fill="#FFFBEF"/>
<path d="M233.091 15.0978V15.0688C233.113 14.3047 233.124 13.7824 233.124 13.5503C233.124 13.7437 233.113 14.208 233.091 15.0881V15.0978Z" fill="#FFFBEF"/>
<path d="M233.102 15.949C233.102 15.8813 233.102 15.8329 233.102 15.7749C233.068 15.8426 233.057 15.8813 233.102 15.949Z" fill="#FFFBEF"/>
<path d="M232.655 23.5024C232.448 22.4579 232.23 20.2624 231.92 22.3805C232.173 23.1349 232.356 21.9259 232.655 23.5024Z" fill="#FFFBEF"/>
<path d="M232.643 16.829L232.562 18.7247C232.654 18.686 232.804 18.3475 232.907 18.8601L232.654 16.8193L232.643 16.829Z" fill="#FFFBEF"/>
<path d="M232.517 15.9006L232.642 16.8291L232.665 16.1231L232.517 15.9006Z" fill="#FFFBEF"/>
<path d="M233.24 6.79945C233.16 6.39324 233.114 5.95801 233.091 5.50343C233.091 5.19394 233.068 4.88444 233.056 4.5556C233.056 4.16873 233.045 3.77218 233.034 3.36597C233.011 4.13971 232.976 4.92313 232.953 5.70654C232.953 6.25783 232.93 6.79945 232.93 7.3314C233.045 7.48615 233.252 7.9504 233.24 6.78978V6.79945Z" fill="#FFFBEF"/>
<path d="M233.135 10.8324C233.135 10.7744 233.124 10.7067 233.113 10.6487C233.08 10.7647 233.068 10.8518 233.135 10.8324Z" fill="#FFFBEF"/>
<path d="M221.139 0.686768C221.208 0.706111 221.265 0.725455 221.334 0.744798C221.346 0.725455 221.357 0.706111 221.38 0.686768H221.151H221.139Z" fill="#FFFBEF"/>
<path d="M232.861 7.5247C232.793 8.33713 232.884 8.83039 232.998 9.29464C232.964 8.68532 232.941 8.03731 232.929 7.34094C232.872 7.27323 232.838 7.26356 232.861 7.5247Z" fill="#FFFBEF"/>
<path d="M230.048 0.3774C230.886 0.445103 231.816 0.493462 232.758 0.551493C232.069 0.454775 230.404 0.300026 230.048 0.3774Z" fill="#FFFBEF"/>
<path d="M233.217 10.3779C233.217 10.3779 233.217 10.4553 233.229 10.5036C233.307 10.2328 233.274 10.2715 233.217 10.3779Z" fill="#FFFBEF"/>
<path d="M233.217 10.3779C233.16 9.96203 233.068 9.62352 232.987 9.29468C233.022 9.78794 233.056 10.2522 233.114 10.6487C233.137 10.552 233.182 10.4456 233.217 10.3779Z" fill="#FFFBEF"/>
<path d="M217.545 2.67923C217.718 2.38908 220.266 2.12794 222.459 2.43744C224.618 2.22466 223.206 1.27682 221.323 0.744873C221.254 0.870606 221.254 0.986668 219.026 1.15109C219.807 1.30584 223.963 1.51862 222.092 1.77976C219.141 1.92483 219.681 1.67337 218.246 1.52829C219.463 1.88614 214.491 2.05057 215.134 2.57284L217.718 2.38908C217.764 2.46645 216.834 2.60186 217.545 2.67923Z" fill="#FFFBEF"/>
<path d="M225.559 0.773948L226.478 0.73526C225.433 0.686901 224.687 0.57084 223.309 0.348389C221.782 0.483794 221.472 0.599855 221.369 0.686901L225.881 0.725589L225.571 0.764276L225.559 0.773948Z" fill="#FFFBEF"/>
<path d="M232.333 0.735278C231.598 0.890027 230.404 1.00609 229.658 1.12215C228.9 1.23821 228.636 1.35427 229.451 1.52837C230.955 1.52837 231.679 1.47033 232.195 1.4123C232.298 1.86688 232.436 1.90557 232.528 2.99848C232.528 2.00228 232.517 1.43165 232.517 1.14149C232.034 1.14149 232.23 1.10281 232.597 1.07379C232.677 1.49935 232.804 2.46653 232.918 0.80298C232.781 0.80298 232.586 0.783637 232.356 0.773965C232.574 0.773965 232.804 0.754621 232.976 0.754621C233.022 1.69279 233.033 2.55358 233.045 3.37568C233.091 2.39883 233.148 1.46066 233.194 0.570857C233.033 0.570857 232.907 0.561185 232.769 0.551514C232.827 0.551514 232.861 0.561185 232.918 0.570857H232.953H232.941C233.056 0.590201 233.137 0.599873 233.148 0.609544C233.148 0.63856 233.148 0.63856 233.148 0.609544C233.148 0.609544 233.079 0.609544 232.964 0.609544C232.941 0.609544 232.85 0.609544 232.804 0.609544C232.712 0.657903 232.54 0.686919 232.356 0.725606C230.404 0.657903 232.103 0.648232 232.804 0.609544C232.85 0.590201 232.918 0.580529 232.941 0.561185H232.918L229.29 0.63856L227.591 0.677247L226.5 0.715934C226.73 0.715934 226.971 0.735278 227.247 0.735278C227.591 0.735278 227.97 0.735278 228.395 0.735278C229.451 0.735278 230.726 0.715934 232.356 0.706262L232.333 0.735278Z" fill="#FFFBEF"/>
<path d="M231.127 20.4367C231.162 20.3207 231.185 20.3303 231.22 20.3207C231.174 20.0885 231.139 19.9918 231.127 20.4367Z" fill="#FFFBEF"/>
<path d="M231.346 18.9277C231.403 19.1985 231.541 19.4113 231.507 20.2818C231.392 21.0362 231.334 20.2818 231.208 20.3204C231.311 20.8427 231.472 22.1484 231.656 20.5139L231.61 20.2527C231.736 18.7826 232.195 16.887 232.253 17.1481C231.92 17.5737 231.679 17.9605 231.357 18.9374L231.346 18.9277Z" fill="#FFFBEF"/>
<path d="M232.069 10.3972L231.885 7.35059L231.564 8.89807L231.759 8.8207C231.679 10.5519 231.92 10.1748 232.069 10.3972Z" fill="#FFFBEF"/>
<path d="M220.726 0.531966L221.197 0.203125L219.107 0.667371L220.726 0.531966Z" fill="#FFFBEF"/>
<path d="M216.018 0.570765L216.191 0.290283L214.951 0.454704L216.018 0.570765Z" fill="#FFFBEF"/>
<path d="M4.45459 45.9023L4.54721 46.8018C4.51248 46.3763 4.48932 46.1055 4.45459 45.9023Z" fill="#FFFBEF"/>
<path d="M4.47739 39.4223L4.30518 39.2676C4.39703 39.5674 4.46591 39.6931 4.47739 39.4223Z" fill="#FFFBEF"/>
<path d="M100.586 0.609336C99.0364 0.338526 97.3142 -0.0773612 97.4979 0.25148L97.9686 0.570649C99.0479 0.512618 99.8745 0.551305 100.586 0.619008V0.609336Z" fill="#FFFBEF"/>
<path d="M21.5273 2.48582C21.6766 2.51484 21.8259 2.55353 21.9751 2.58254C22.354 2.47615 22.6984 2.36976 23.0199 2.28271C22.5721 2.34075 22.0555 2.41812 21.5273 2.48582Z" fill="#FFFBEF"/>
<path d="M20.4362 3.79149L18.3926 3.58838C18.8518 3.65608 19.5063 3.72378 20.4362 3.79149Z" fill="#FFFBEF"/>
<path d="M21.286 63.3406L22.5259 63.0215C20.5856 63.0215 21.4352 63.1859 21.286 63.3406Z" fill="#FFFBEF"/>
<path d="M167.878 0.686844C166.546 0.561111 165.478 0.512752 164.548 0.493408C166.156 0.677172 167.453 0.947983 167.878 0.686844Z" fill="#FFFBEF"/>
<path d="M0.493652 43.3491C0.562539 43.9004 0.642908 44.1325 0.723276 44.1132C0.654389 43.5522 0.585502 43.2331 0.493652 43.3491Z" fill="#FFFBEF"/>
<path d="M160.69 0.502993C160.932 0.532008 161.161 0.551352 161.391 0.580367C162.367 0.532008 163.354 0.483649 164.548 0.502993C163.354 0.367588 161.999 0.290214 160.69 0.502993Z" fill="#FFFBEF"/>
<path d="M173.687 63.6019C173.802 63.6115 173.928 63.6309 174.031 63.6406C174.066 63.6019 173.917 63.5922 173.687 63.6019Z" fill="#FFFBEF"/>
<path d="M218.085 66.7742C217.648 66.7935 216.937 66.7935 216.259 66.7935C216.592 66.8129 217.132 66.8129 218.085 66.7742Z" fill="#FFFBEF"/>
<path d="M197.109 0.435422C197.27 0.396735 198.108 0.416078 197.109 0.435422V0.435422Z" fill="#FFFBEF"/>
<path d="M201.954 1.68311C201.747 1.72179 201.587 1.76048 201.552 1.83785C201.633 1.76048 201.77 1.71212 201.954 1.68311Z" fill="#FFFBEF"/>
<path d="M150.759 2.45679C150.759 2.45679 150.702 2.45679 150.667 2.45679C150.966 2.51482 150.909 2.50515 150.759 2.45679Z" fill="#FFFBEF"/>
<path d="M198.613 0.580361C198.234 0.541673 197.809 0.512658 197.338 0.483643C197.545 0.512658 197.935 0.541673 198.613 0.580361Z" fill="#FFFBEF"/>
<path d="M198.406 0.425616C198.751 0.435288 199.015 0.44496 199.279 0.454631C199.405 0.406273 199.29 0.367585 198.406 0.425616Z" fill="#FFFBEF"/>
<path d="M195.72 0.454646C196.294 0.454646 196.822 0.464318 197.339 0.483662C197.143 0.464318 197.063 0.444975 197.109 0.435303C196.822 0.435303 196.409 0.435303 195.72 0.454646Z" fill="#FFFBEF"/>
<path d="M92.0332 64.4432C92.1021 64.4432 92.171 64.4626 92.2513 64.4722C93.2617 64.3368 92.8139 64.3658 92.0332 64.4432Z" fill="#FFFBEF"/>
<path d="M74.6387 3.87838C74.6387 3.87838 74.7072 3.87838 74.7528 3.85904C74.7072 3.85904 74.6501 3.85904 74.6045 3.84937L74.6387 3.87838Z" fill="#FFFBEF"/>
<path d="M71.0684 4.11072C72.5954 3.72385 73.4564 3.76253 74.616 3.84958L73.4335 2.94043L71.0684 4.11072Z" fill="#FFFBEF"/>
<path d="M4.56961 61.416L4.90256 59.2979C5.45366 61.8512 5.26996 63.7082 5.74069 61.7158C4.56961 61.416 5.62588 53.4851 4.4548 53.1853L4.6959 51.7926C4.6959 52.1891 4.75331 52.2568 4.74183 52.6534C5.3044 49.9356 3.89222 50.6319 4.06444 47.1404C4.15628 45.9218 4.3285 45.0707 4.46628 45.9024L4.17925 43.1847C4.20221 42.3916 4.40887 42.585 4.38591 43.3781L4.29406 39.2386L4.3285 39.2676C4.1448 38.6776 3.85777 37.3332 3.74296 36.6852C3.91518 35.631 3.86926 37.2172 4.01851 36.9464L3.73148 34.6541C4.02999 33.716 4.3285 35.6213 4.28258 37.2075C5.45366 35.0604 3.98407 35.3022 4.67294 30.679L4.82219 32.8455C5.4881 31.4528 5.247 29.7602 5.66032 27.3036C5.44218 27.8839 4.61553 32.2072 4.3285 29.7215C4.42035 29.0155 4.4548 28.0967 4.22517 26.7523C4.63849 26.7426 4.53516 25.4273 4.5122 23.783L5.0633 23.8991C4.90256 22.1292 4.62701 22.2646 4.37443 21.22C4.43183 19.2373 4.85664 18.8311 5.21255 18.3668C5.3044 15.2042 4.52368 20.5527 4.42035 16.8097C4.62701 14.179 4.40887 12.322 4.07592 9.17864C4.2711 7.33132 4.40887 9.49781 4.56961 8.84013L4.13332 7.20559C4.13332 6.80905 4.28258 6.93478 4.35147 7.00248C4.2711 6.31579 4.13332 6.28677 3.99555 6.16104C3.92666 6.09333 3.85777 6.00629 3.80037 5.80318C3.74296 5.60007 3.68556 5.20353 3.65111 4.91338C3.38705 4.71994 3.52482 4.06226 3.70852 3.51097C4.36295 3.60768 4.99441 3.72375 5.51106 3.7721C5.6718 3.79145 6.32623 3.80112 6.77399 3.78178C7.2562 3.76243 7.73841 3.71407 8.18618 3.6367C8.9669 3.7721 7.8073 3.91718 8.04841 4.10094C12.4113 3.72374 11.7913 3.82046 15.3734 3.30786L18.4274 3.60768C16.1886 3.2595 19.0474 2.84361 21.5618 2.5051C20.7696 2.34068 20.0807 2.18593 19.6329 2.11823L23.6399 1.86676C24.1221 1.94414 23.7202 2.09888 23.0658 2.29232C23.3413 2.25363 23.5939 2.21495 23.8006 2.18593C25.2357 2.36002 24.4895 2.62116 23.4676 2.8823C22.9854 2.78558 22.4917 2.68886 22.021 2.59215C21.0336 2.87263 20.1036 3.18212 20.3103 3.46261C20.5744 3.40458 21.0681 3.36589 21.6192 3.33687C21.3551 3.41425 21.1944 3.48195 21.3207 3.53031C21.4584 3.57867 21.8718 3.47228 22.5262 3.35622L23.4332 3.86882L23.6513 3.66571L28.8868 3.98488C32.6411 3.46261 35.9018 2.69854 41.849 2.48576C40.3679 2.86296 41.5275 3.10475 41.4472 3.55932C39.8283 3.08541 36.8432 3.76243 33.7548 3.66571C35.3621 3.71407 35.0062 3.92685 34.6044 4.00423L40.1039 3.569C39.9776 3.93652 41.275 3.83981 42.7101 3.99456C41.6194 3.26917 46.8089 3.51097 49.0477 3.28851C49.1855 3.53031 48.6459 3.78178 45.9134 3.72375C48.9214 4.27504 49.8055 2.87263 52.7676 3.33687C52.1017 3.33687 51.7458 3.30786 51.4817 3.43359C53.0432 3.22081 56.8434 3.38523 55.9479 3.59801H55.282C59.7137 3.68506 68.7609 3.60768 69.4153 2.98869C69.4613 3.06606 68.8298 3.73342 68.5657 3.85915L76.4648 1.77971C75.7644 2.31166 78.4395 3.569 74.7656 3.86882C75.8218 3.9462 77.1192 4.03324 79.3466 3.84948C78.6232 3.7721 77.5555 3.08541 78.5314 3.03705C81.2295 3.62703 80.4028 3.35622 83.7324 3.85915C82.6531 3.74309 83.8472 2.91131 85.5579 2.94033C85.2938 3.06606 85.6956 3.76243 85.0757 3.84948L89.3122 3.03705C88.256 3.18213 89.1285 3.72375 90.07 3.95587C89.6337 3.79145 93.7325 3.97521 94.8691 3.88817L93.0666 3.69473C97.8542 3.82046 97.7968 2.54379 102.539 2.59215C101.964 2.75657 101.115 3.62703 103.537 3.73342C104.64 3.31753 108.44 1.72168 112.642 1.40251L113.446 1.64431L116.672 1.3735C114.663 2.00217 109.037 3.3272 105.96 3.83981C107.751 4.03324 106.454 4.12029 109.14 4.10094C110.093 4.3234 107.682 4.43946 106.89 4.44913L113.136 4.59421C112.86 4.11062 117.912 4.10095 117.671 3.69473L110.885 4.19766C110.61 3.71407 114.812 2.8146 119.232 2.90164C120.357 3.09508 118.394 3.7721 118.486 3.93652C119.06 3.7721 122.688 3.61736 123.09 3.73342L121.207 3.99456C123.675 4.17832 125.225 3.34655 128.188 3.81079C129.209 3.83981 131.242 4.43946 131.414 4.1493C129.749 3.58834 129.416 1.86676 130.53 1.45087C130.886 1.48956 135.891 1.98282 137.062 2.25363C138.75 2.68886 134.537 3.29819 135.972 3.66571C136.029 3.53031 136.959 3.36589 137.349 3.31753C138.417 3.43359 136.902 3.73342 139.232 3.66571C139.623 3.17245 143.974 3.7044 140.335 3.24983C142.619 3.10475 142.757 3.35622 145.432 3.3272C144.583 3.00803 147.832 2.24396 150.117 2.09888C149.979 2.22462 150.495 2.38904 150.748 2.46641C155.421 2.51477 157.935 2.73722 162.298 2.73722C162.7 2.85328 164.801 2.99836 163.905 3.21114C164.537 3.12409 165.111 2.95967 166.454 2.94033C169.061 3.36589 163.458 3.00803 165.444 3.52064C165.616 3.23048 168.923 3.12409 170.84 2.94033C170.255 2.49543 166.42 2.85328 164.503 3.03705C164.503 2.42773 167.832 1.77971 172.39 1.49923C176.007 1.34448 173.963 1.89578 174.594 1.80873C181.391 1.91512 180.392 0.735161 186.041 1.18006C188.28 1.56694 186.145 1.95381 186.638 2.23429C183.688 2.37937 182.103 1.98282 180.105 2.00217L182.562 2.18593C181.621 2.31166 179.658 2.41805 178.578 2.30199C180.461 2.65018 190.071 2.36969 195.318 2.68886C196.248 2.55346 197.855 2.41805 197.098 2.2633L195.433 2.32134C193.906 2.00217 198.556 1.8861 196.455 1.74103C198.682 1.51858 201.185 1.17039 204.319 1.35416L204.905 1.79906C204.836 1.67333 202.85 1.53792 201.977 1.67333C203.286 1.47989 206.788 2.27298 208.223 1.69267L206.03 1.38317C208.269 1.16072 211.036 0.686802 213.814 0.831879C212.551 0.396648 213.171 0.880238 211.196 0.367633C212.907 1.00597 204.09 0.338617 206.834 1.01564C204.813 0.415992 203.332 0.764176 200.68 0.251571C200.76 0.396648 201.621 0.532053 199.29 0.464351C199.187 0.503038 198.935 0.561069 198.774 0.590084C198.705 0.590084 198.682 0.590084 198.613 0.580412C198.659 0.580412 198.693 0.590084 198.739 0.599756C198.636 0.619099 198.625 0.628771 198.785 0.599756C199.336 0.667458 199.796 0.744833 199.979 0.822207C198.82 1.16072 195.111 1.15105 193.86 1.32514C192.471 1.25744 194.434 1.16072 193.688 0.996299L191.816 1.25744C191.633 0.928597 188.142 0.715817 191.403 0.522381L188.464 0.503038C186.73 0.319274 184.353 0.251571 182.895 0.386976C181.506 0.319274 179.394 0.744833 180.599 0.493366L175.995 0.696474L175.949 0.619099C171.403 0.580412 166.604 1.16072 161.403 0.57074C159.876 0.648115 158.291 0.754505 155.731 0.657787L155.237 0.377305C153.274 0.474023 149.336 0.0968225 148.498 0.386976C146.385 -0.367424 138.968 0.222556 135.513 0.0871507L135.386 0.454679C133.01 0.435335 130.725 0.541725 127.786 0.686802L127.969 1.01564C125.421 1.28645 121.425 0.78352 117.407 0.822207C117.682 0.696474 118.704 0.735161 119.427 0.802863C114.617 0.0678071 109.289 1.33481 104.927 0.802863C103.836 0.918925 103.055 0.880238 102.297 0.802863C102.401 0.802863 102.493 0.802863 102.562 0.78352C102.447 0.78352 102.286 0.78352 102.114 0.78352C101.632 0.725489 101.138 0.667458 100.61 0.609428C101.069 0.686802 101.505 0.754505 101.884 0.78352C101.046 0.78352 99.7716 0.831879 98.5316 0.909253L98.0035 0.561069C97.9001 0.561069 97.8198 0.561069 97.7165 0.57074C96.4994 0.445007 96.7291 0.735161 97.3835 0.996299C96.752 1.05433 96.178 1.12203 95.7417 1.20908C94.7543 0.648115 92.4696 1.40251 91.1148 0.793192C90.2766 1.08335 84.8575 1.01564 84.1916 1.63464C84.1457 1.55726 83.7783 1.51858 84.4557 1.5089C83.0665 1.4412 81.6772 1.36383 80.4373 1.53792L79.8517 1.09302L76.8207 1.69267C74.9837 1.42186 74.2145 1.26711 76.04 0.918925C71.6197 1.4412 72.4578 1.11236 68.7035 1.63464L68.8872 1.34448C67.5439 1.35416 65.3969 1.74103 64.5932 1.49923C61.5852 0.957612 49.7366 1.42186 42.0212 0.918925C43.5138 1.76037 38.4391 0.541725 38.1291 1.19941C37.6813 0.9963 36.6021 0.88991 37.8536 0.715817C33.9155 0.909253 31.9407 0.396648 29.2312 0.94794C28.7834 0.744833 30.0693 0.657787 29.6675 0.532053C29.3575 0.57074 28.416 0.706146 28.0027 0.590084C27.6009 0.474023 28.5768 0.425664 29.1967 0.338617C25.1783 0.367633 24.7765 0.986628 24.478 1.56694C22.4458 1.29613 21.424 1.33481 19.9544 1.71201C19.2426 1.51858 18.06 1.32514 20.5629 1.25744C19.1622 1.22842 11.9865 0.976956 11.8372 1.4412C11.4009 1.32514 9.87391 1.40251 9.50652 1.46055C7.93359 1.4412 7.07251 1.43153 6.2229 1.42186C5.69476 1.42186 5.17811 1.42186 4.54665 1.42186C3.85777 1.42186 3.05409 1.43153 2.02078 1.4412L3.22631 1.51858C2.79002 1.72168 2.33078 1.78939 1.72227 1.80873C1.73375 2.29232 1.69931 2.78558 1.65339 3.3949C1.64191 3.7044 1.61894 4.03324 1.60746 4.3911C1.60746 4.73928 1.59598 5.20353 1.60746 5.50336L1.53857 5.44532C1.05637 10.2619 1.7682 7.52476 1.2171 12.2833L1.63042 12.0221C2.51448 12.467 1.10229 16.239 1.44673 18.9955L1.68783 17.9993C1.98634 19.5081 0.482306 22.2162 0.367494 23.725C0.287126 24.0539 0.241201 23.2027 0.183795 22.7482C-0.344339 26.7136 0.723411 23.2608 0.849704 26.2107C0.562674 26.7523 0.103427 25.5046 0.0575022 27.497C-0.183603 28.4835 1.01044 33.2614 0.447862 35.9695C0.677486 35.3699 0.895629 34.7799 1.06785 36.1533C1.14821 38.2521 0.218239 41.8403 0.930072 43.736C0.872666 44.0068 0.81526 44.1035 0.757854 44.1132C0.941553 45.7187 1.05637 49.3359 1.44673 50.3031C0.0230586 51.7926 2.1356 60.2941 0.826742 60.2554L0.895629 66.4163L0.757854 66.3293C0.757854 66.5034 0.757854 66.6775 0.757854 66.8225C2.05523 66.8322 3.1689 66.8225 4.12184 66.8032C5.0633 66.7838 5.93587 66.7452 6.2803 66.6968C7.18732 66.6097 7.83026 66.4743 8.46173 66.3486C9.3343 66.426 8.69135 66.5227 8.62247 66.5807C14.099 66.8032 14.6501 66.7548 19.2426 66.2035L19.7248 66.5614C20.9647 66.3486 27.6468 67.1224 33.02 66.7065C32.9626 66.7452 32.8592 66.8129 32.4344 66.8709C38.485 66.4453 46.9122 67.8671 49.1281 66.5614L53.1235 66.2422C47.957 66.1358 53.8928 65.6716 51.7688 65.4588C53.8009 65.3814 57.0157 65.8554 54.5242 65.9231L54.1339 65.8553C53.2154 66.542 60.5519 66.0971 60.4141 66.5614C70.5749 66.5324 80.4832 66.9096 89.9896 66.9386L88.8989 66.4066L92.217 66.4357C93.0895 66.5614 93.388 66.8515 91.0229 66.8322C92.2629 67.132 94.9954 66.5807 95.0643 66.4647C99.7027 66.6775 93.2503 67.0837 94.6739 67.0933L96.6028 67.0547L96.1665 66.9966C97.7279 66.7838 97.8657 66.5517 100.713 66.5807C102.516 66.6871 101.632 66.9096 102.343 66.9289C102.343 66.9676 102.573 66.987 103.434 66.9483L107.613 66.9966L105.937 66.5807C107.785 66.3776 109.875 66.6001 107.935 66.1262C110.771 66.8612 123.538 66.3873 125.271 66.6194C127.866 66.3099 130.426 66.3196 133.607 66.3583C132.814 66.2712 132.344 65.7973 135.088 65.8553C134.089 66.8225 140.105 66.2809 142.321 66.9773C140.346 66.513 150.105 66.8612 147.005 66.2035C149.29 66.2809 147.143 66.5711 148.877 66.7935C154.319 66.4163 160.863 67.0353 167.579 66.9096C167.683 66.7838 166.558 66.5904 168.004 66.397L171.552 67.0353C172.884 66.9773 172.769 66.3003 175.203 66.7452C174.859 66.6388 174.353 66.4743 175.237 66.4357C188.406 67.0547 202.149 65.9231 215.525 67.0933C213.711 66.8419 214.916 66.8225 216.306 66.8129C215.41 66.7548 216.329 66.4937 216.145 66.3293L221.748 66.8129C222.77 66.3293 227.752 66.7838 228.338 66.3196L226.57 66.4066C228.923 65.865 223.275 65.2073 223.619 64.511C220.978 65.13 216.661 63.6018 212.322 64.482C211.369 64.3369 213.137 64.2595 212.62 64.0951C211.518 64.3949 210.198 64.4529 207.741 64.3175L208.016 64.2402C201.116 64.3175 198.154 64.0177 190.393 63.8243L190.967 64.1725C189.302 64.1241 188.946 64.0177 188.165 63.9307C186.248 64.4529 192.85 63.9597 191.104 64.5303C188.889 63.8339 179.348 64.5206 177.855 63.7276C175.295 63.7276 178.601 64.1241 176.041 64.1241L175.364 63.9113L174.721 64.1918C173.044 64.1434 172.195 63.8726 172.126 63.6985C172.539 63.7179 173.286 63.6502 173.722 63.6308C171.54 63.3794 167.579 63.7179 166.822 63.6308L169.29 63.7662C162.298 63.9693 153.745 63.6889 146.994 64.1241L147.51 64.2885C142.344 64.5883 143.377 64.1144 137.705 64.2498L137.912 64.2111C136.775 64.3756 135.26 64.4529 133.71 64.4336C135.145 64.2402 131.012 64.0661 132.895 63.8533C127.292 64.1725 130.128 64.1048 126.431 64.7044L125.581 64.4336C124.318 64.6754 124.215 64.8011 121.391 64.8785C123.71 64.6464 119.588 64.4723 122.183 64.1628C116.247 63.5728 113.365 64.7528 110.633 63.892C107.9 64.6367 115.776 64.3079 114.249 64.4626C115.524 64.7044 111.999 65.0236 110.139 64.9462C108.245 64.9269 106.913 63.9984 102.137 64.008C102.607 64.008 102.642 63.9597 103.113 63.9597C101.322 63.7662 99.6108 64.2208 97.4179 63.9113C96.1895 64.3659 94.5706 63.8823 94.2147 64.4626L98.589 64.3272C96.1091 64.482 93.7784 65.1493 89.6911 64.8205C90.0126 64.7044 91.2296 64.5497 92.0677 64.4626C90.8737 64.2885 89.76 64.5787 88.5315 64.4046C88.8874 63.8339 93.8473 64.2788 96.5109 63.8436C95.225 63.6018 91.4822 64.2595 92.814 63.6405C90.8966 64.4336 88.1067 63.5438 84.8805 64.1434L85.0986 63.7953C84.582 63.8533 83.5257 64.008 82.5843 64.008L84.2835 63.5631C81.6658 63.9403 79.2432 63.2343 76.7289 63.4374C81.9872 63.4277 77.9114 63.8533 80.1273 64.1048C73.6404 64.569 76.3959 63.2053 69.1398 63.3697C70.1272 63.3213 72.8252 63.5728 71.2868 63.7372C69.909 63.6695 68.0835 63.5341 67.2339 63.3504C62.4233 63.4181 67.9687 63.7082 65.925 63.9113C64.2832 63.4954 63.5599 64.0854 61.4589 64.2208V63.8726C55.9594 63.6502 59.9893 64.598 55.0639 64.3272L57.1534 63.8436L54.5816 63.9693L55.1098 63.5728C52.3084 63.8726 51.4358 63.7953 48.7033 63.6792C49.3347 63.921 48.3474 64.3175 45.9134 64.3272C44.2601 64.1241 46.8433 63.9984 43.399 64.0467C44.1797 63.8243 45.0293 63.5535 46.5219 63.8726C46.6711 63.7566 47.2911 63.6502 47.4403 63.5438C45.6608 63.302 42.9627 63.4858 41.7112 63.4954C42.1934 63.5051 42.7675 63.5245 43.0545 63.5728L38.0717 64.0564C37.291 63.921 37.911 63.8146 38.5309 63.7179C37.5206 63.7566 36.8203 63.921 35.3392 63.95C35.7181 63.6695 35.6262 63.3697 37.7387 63.2343L32.9855 63.5535C32.6641 63.4277 30.5515 63.215 31.16 63.1086C28.5308 62.9441 24.6961 63.6599 21.2058 63.4374C21.0221 63.4954 20.6547 63.5438 19.92 63.5825C16.6363 63.5148 13.7316 63.1666 9.83947 63.5631L7.63508 63.0505C6.10809 63.1086 6.85436 63.273 7.34805 63.4374C7.60064 63.5244 7.77286 63.6115 7.57768 63.6889C7.47435 63.7276 7.29065 63.7662 6.95769 63.7953C6.79696 63.8049 6.60178 63.8243 6.36067 63.8436C6.24586 63.8436 6.11957 63.8533 5.98179 63.863C5.91291 63.863 5.84402 63.863 5.76365 63.8726H5.66032C4.81071 63.9597 4.70738 63.8533 4.83367 63.7082C4.94849 63.5631 5.16663 63.3794 5.07478 63.302C5.01737 63.3213 4.94849 63.3504 4.86812 63.3697C4.70738 63.2923 4.5122 63.0989 4.40887 62.5573C4.30554 61.445 4.29406 60.207 4.52368 58.94C4.63849 59.8588 4.54665 60.5842 4.59257 61.445L4.56961 61.416ZM4.29406 29.7602C4.38591 30.3695 4.64998 31.5979 4.40887 32.0428C3.93814 31.3464 4.15628 30.8048 4.29406 29.7602ZM27.0612 3.15311C26.5216 3.26917 25.6835 3.21114 24.742 3.07574C25.4309 3.04672 26.2002 3.05639 27.0612 3.15311ZM186.179 0.725489C186.179 0.725489 186.122 0.735161 186.099 0.744833C184.48 0.609428 185.054 0.657787 186.179 0.725489ZM189.554 0.870566C189.899 0.822207 189.864 0.773848 189.727 0.725489C189.497 0.812535 188.739 0.822207 187.867 0.793192C188.108 0.880238 188.544 0.94794 189.554 0.870566ZM102.676 66.7935L102.022 66.7065C103.503 66.6097 103.09 66.7065 102.676 66.7935Z" fill="#FFFBEF"/>
<path d="M20.5858 3.6368C20.3791 3.57876 20.3217 3.51106 20.2758 3.44336C19.9888 3.50139 19.9888 3.56909 20.5858 3.6368Z" fill="#FFFBEF"/>
<path d="M21.0562 63.3986H21.171C21.2284 63.3793 21.2628 63.3599 21.2858 63.3406L21.0562 63.3986Z" fill="#FFFBEF"/>
<path d="M137.315 3.83977C136.626 3.79141 136.236 3.72371 135.972 3.65601C135.937 3.74305 136.247 3.81075 137.315 3.83977Z" fill="#FFFBEF"/>
<path d="M207.43 0.280518L205.272 0.367564C206.317 0.34822 206.696 0.425595 207.212 0.483625C207.166 0.406251 206.753 0.280518 207.43 0.280518Z" fill="#FFFBEF"/>
<path d="M226.179 2.44715C226.489 2.40847 226.845 2.44715 227.155 2.3988L227.063 2.23438C225.72 2.24405 224.779 2.37945 226.168 2.44715H226.179Z" fill="#FFFBEF"/>
<path d="M209.428 1.44129C209.6 1.73145 210.955 1.63473 212.471 1.5767H212.207C212.654 1.16081 211.036 1.30589 209.44 1.44129H209.428Z" fill="#FFFBEF"/>
<path d="M212.815 1.56683C213.286 1.55716 213.756 1.54749 214.216 1.56683C214.388 1.40241 213.653 1.52814 212.815 1.56683Z" fill="#FFFBEF"/>
<path d="M193.837 0.677187C194.549 0.754562 194.285 0.299988 194.698 0.416049C195.502 0.0388491 189.91 0.870623 193.837 0.677187Z" fill="#FFFBEF"/>
<path d="M210.657 2.40839L210.106 2.05054L209.268 2.34069L210.657 2.40839Z" fill="#FFFBEF"/>
<path d="M198.705 2.14726L201.127 2.24398C201.093 2.18595 201.403 2.14726 201.77 2.11824C200.278 2.10857 198.647 2.0312 198.705 2.13759V2.14726Z" fill="#FFFBEF"/>
<path d="M201.77 2.11833C202.551 2.11833 203.286 2.11833 203.722 2.0603C203.297 2.0603 202.401 2.07965 201.77 2.11833Z" fill="#FFFBEF"/>
<path d="M207.35 2.52436L206.638 2.44698L204.928 2.41797L207.35 2.52436Z" fill="#FFFBEF"/>
<path d="M172.711 2.06982L170.071 2.17621C169.807 2.30195 170.518 2.37932 171.506 2.33096C172.137 2.24392 173.113 2.19556 172.711 2.0795V2.06982Z" fill="#FFFBEF"/>
<path d="M180.691 3.06613C179.979 2.98875 179.933 2.91138 179.531 2.78564L179.451 3.24022L180.691 3.06613Z" fill="#FFFBEF"/>
<path d="M172.998 3.17236C172.734 3.2981 169.163 3.53022 172.516 3.5012C172.78 3.37547 175.432 3.26908 172.998 3.17236Z" fill="#FFFBEF"/>
<path d="M133.239 2.60191H133.905L133.813 1.85718L133.239 2.60191Z" fill="#FFFBEF"/>
<path d="M98.1871 4.37176C101.31 4.54585 98.9334 3.91718 101.758 4.13963C102.493 3.96554 99.4501 3.95587 100.196 3.81079C98.3134 3.99456 97.3146 3.88817 98.1871 4.38143V4.37176Z" fill="#FFFBEF"/>
<path d="M100.196 3.80112C100.495 3.7721 100.816 3.73342 101.161 3.68506C100.61 3.73342 100.357 3.76243 100.196 3.80112Z" fill="#FFFBEF"/>
<path d="M225.456 67.1707L227.465 67.3254L226.168 67.074L225.456 67.1707Z" fill="#FFFBEF"/>
<path d="M229.313 66.6292L229.784 67.1031L230.99 66.6775C230.53 66.6969 229.658 66.7355 229.313 66.6292Z" fill="#FFFBEF"/>
<path d="M5.41913 25.0598L5.28135 24.9341C5.1321 25.1952 5.12062 25.5918 5.09766 26.3849L5.40765 25.0598H5.41913Z" fill="#FFFBEF"/>
<path d="M5.0059 48.0303L5.01738 47.6338L4.51221 48.3785L5.0059 48.0303Z" fill="#FFFBEF"/>
<path d="M5.70502 62.6733C5.70502 62.6733 5.63656 62.712 5.57952 62.7314C5.57952 62.7314 5.57952 62.7217 5.57952 62.712C5.57952 62.712 5.57952 62.712 5.57952 62.7314C5.54529 62.7701 5.5567 63.1473 5.70502 62.6733Z" fill="#FFFBEF"/>
<path d="M42.1299 31.3807C42.0819 31.3007 41.9139 31.1807 41.6259 31.0207C41.3379 30.8447 40.9779 30.6607 40.5459 30.4687C40.1139 30.2767 39.6419 30.1087 39.1299 29.9647C38.6179 29.8207 38.1059 29.7487 37.5939 29.7487C36.9219 29.7487 36.4019 29.8687 36.0339 30.1087C35.6659 30.3327 35.4819 30.6847 35.4819 31.1647C35.4819 31.5487 35.6179 31.8527 35.8899 32.0767C36.1779 32.3007 36.5859 32.5007 37.1139 32.6767C37.6419 32.8367 38.2899 33.0287 39.0579 33.2527C40.1459 33.5407 41.0899 33.8927 41.8899 34.3087C42.6899 34.7087 43.2979 35.2287 43.7139 35.8687C44.1459 36.5087 44.3619 37.3567 44.3619 38.4127C44.3619 39.3727 44.1859 40.1887 43.8339 40.8607C43.4819 41.5167 43.0019 42.0527 42.3939 42.4687C41.8019 42.8687 41.1219 43.1647 40.3539 43.3567C39.5859 43.5327 38.7939 43.6207 37.9779 43.6207C37.1459 43.6207 36.2899 43.5407 35.4099 43.3807C34.5459 43.2047 33.7139 42.9647 32.9139 42.6607C32.1139 42.3407 31.3779 41.9567 30.7059 41.5087L32.4339 38.0767C32.4979 38.1567 32.7059 38.3087 33.0579 38.5327C33.4099 38.7407 33.8419 38.9647 34.3539 39.2047C34.8819 39.4287 35.4659 39.6287 36.1059 39.8047C36.7459 39.9807 37.3939 40.0687 38.0499 40.0687C38.7539 40.0687 39.2739 39.9567 39.6099 39.7327C39.9619 39.5087 40.1379 39.1967 40.1379 38.7967C40.1379 38.3647 39.9539 38.0287 39.5859 37.7887C39.2339 37.5487 38.7459 37.3327 38.1219 37.1407C37.5139 36.9487 36.8099 36.7327 36.0099 36.4927C34.9699 36.1727 34.1059 35.8127 33.4179 35.4127C32.7459 35.0127 32.2419 34.5247 31.9059 33.9487C31.5859 33.3727 31.4259 32.6527 31.4259 31.7887C31.4259 30.5887 31.7059 29.5807 32.2659 28.7647C32.8419 27.9327 33.6099 27.3087 34.5699 26.8927C35.5299 26.4607 36.5779 26.2447 37.7139 26.2447C38.5139 26.2447 39.2819 26.3407 40.0179 26.5327C40.7699 26.7247 41.4659 26.9647 42.1059 27.2527C42.7619 27.5407 43.3459 27.8287 43.8579 28.1167L42.1299 31.3807ZM61.3356 29.8447H56.1516V43.4287H52.2156V29.8447H47.0076V26.3887H61.3356V29.8447ZM72.0737 43.5727C70.7937 43.5727 69.6337 43.3327 68.5937 42.8527C67.5697 42.3567 66.6817 41.7007 65.9297 40.8847C65.1937 40.0527 64.6257 39.1247 64.2257 38.1007C63.8257 37.0607 63.6257 35.9887 63.6257 34.8847C63.6257 33.7487 63.8337 32.6687 64.2497 31.6447C64.6817 30.6207 65.2737 29.7087 66.0257 28.9087C66.7937 28.0927 67.6977 27.4527 68.7377 26.9887C69.7777 26.5247 70.9137 26.2927 72.1457 26.2927C73.4097 26.2927 74.5537 26.5407 75.5777 27.0367C76.6177 27.5167 77.5057 28.1727 78.2417 29.0047C78.9937 29.8367 79.5697 30.7727 79.9697 31.8127C80.3697 32.8367 80.5697 33.8847 80.5697 34.9567C80.5697 36.0927 80.3617 37.1727 79.9457 38.1967C79.5297 39.2207 78.9377 40.1407 78.1697 40.9567C77.4017 41.7567 76.4977 42.3967 75.4577 42.8767C74.4337 43.3407 73.3057 43.5727 72.0737 43.5727ZM67.6337 34.9327C67.6337 35.5887 67.7297 36.2287 67.9217 36.8527C68.1137 37.4607 68.3937 38.0047 68.7617 38.4847C69.1457 38.9647 69.6177 39.3487 70.1777 39.6367C70.7377 39.9247 71.3777 40.0687 72.0977 40.0687C72.8497 40.0687 73.5057 39.9247 74.0657 39.6367C74.6257 39.3327 75.0897 38.9327 75.4577 38.4367C75.8257 37.9407 76.0977 37.3887 76.2737 36.7807C76.4657 36.1567 76.5617 35.5247 76.5617 34.8847C76.5617 34.2287 76.4657 33.5967 76.2737 32.9887C76.0817 32.3807 75.7937 31.8367 75.4097 31.3567C75.0257 30.8607 74.5537 30.4767 73.9937 30.2047C73.4337 29.9327 72.8017 29.7967 72.0977 29.7967C71.3457 29.7967 70.6897 29.9407 70.1297 30.2287C69.5857 30.5167 69.1217 30.9087 68.7377 31.4047C68.3697 31.8847 68.0897 32.4367 67.8977 33.0607C67.7217 33.6687 67.6337 34.2927 67.6337 34.9327ZM80.2817 26.3887L68.1617 43.4287H63.9137L76.0337 26.3887H80.2817ZM97.1331 29.8447H91.9491V43.4287H88.0131V29.8447H82.8051V26.3887H97.1331V29.8447ZM120.754 43.4287V33.2767L117.082 40.6687H114.922L111.25 33.2767V43.4287H107.314V26.3887H111.586L116.002 35.2927L120.442 26.3887H124.69V43.4287H120.754ZM133.938 26.3887H138.186L144.042 43.4287H140.01L138.69 39.6127H133.386L132.09 43.4287H128.058L133.938 26.3887ZM138.042 36.9007L136.05 30.3487L134.01 36.9007H138.042ZM153.945 43.5487C152.825 43.5487 151.769 43.3407 150.777 42.9247C149.785 42.4927 148.913 41.8927 148.161 41.1247C147.409 40.3407 146.817 39.4207 146.385 38.3647C145.969 37.2927 145.761 36.1007 145.761 34.7887C145.761 33.6047 145.977 32.5007 146.409 31.4767C146.841 30.4527 147.441 29.5487 148.209 28.7647C148.977 27.9807 149.873 27.3727 150.897 26.9407C151.937 26.4927 153.057 26.2687 154.257 26.2687C155.825 26.2687 157.209 26.6047 158.409 27.2767C159.609 27.9487 160.497 28.8527 161.073 29.9887L158.145 32.1967C157.761 31.4447 157.201 30.8527 156.465 30.4207C155.745 29.9887 154.961 29.7727 154.113 29.7727C153.473 29.7727 152.881 29.9087 152.337 30.1807C151.809 30.4367 151.345 30.8047 150.945 31.2847C150.561 31.7487 150.265 32.2927 150.057 32.9167C149.849 33.5407 149.745 34.2127 149.745 34.9327C149.745 35.6687 149.857 36.3487 150.081 36.9727C150.305 37.5967 150.617 38.1407 151.017 38.6047C151.417 39.0527 151.889 39.4047 152.433 39.6607C152.993 39.9167 153.609 40.0447 154.281 40.0447C155.097 40.0447 155.873 39.8447 156.609 39.4447C157.361 39.0287 158.049 38.4207 158.673 37.6207V41.5087C157.313 42.8687 155.737 43.5487 153.945 43.5487ZM158.433 37.3807H155.121V34.5247H161.697V43.4287H158.433V37.3807ZM165.979 43.4287V26.3887H169.915V43.4287H165.979ZM186.83 39.9727V43.4287H174.854V26.3887H186.614V29.8447H178.79V33.1567H185.51V36.3487H178.79V39.9727H186.83ZM194.837 33.6847V43.4287H190.901V26.3887H194.021L201.917 36.4207V26.3887H205.853V43.4287H202.637L194.837 33.6847Z" fill="white"/>
</g>
<defs>
<clipPath id="clip0_140_29047">
<rect width="234.319" height="67.3254" fill="white"/>
</clipPath>
</defs>
</svg>
